<svg width="187" height="58" viewBox="0 0 187 58" fill="none" xmlns="http://www.w3.org/2000/svg">
<path d="M172.108 0.000186128H14.8999C14.3269 0.000186128 13.7607 0.000186128 13.1892 0.00304964C12.7108 0.00591315 12.2361 0.0142316 11.7531 0.0212329C10.7038 0.0325464 9.65692 0.117127 8.62162 0.274238C7.58777 0.434771 6.5863 0.73742 5.6511 1.17195C4.71703 1.61015 3.86355 2.17956 3.12162 2.8595C2.37579 3.53753 1.75408 4.32125 1.2804 5.18051C0.80542 6.03806 0.476064 6.957 0.303712 7.9056C0.129722 8.853 0.036096 9.81132 0.023675 10.772C0.0091731 11.2109 0.00764164 11.6514 0 12.0904V45.1844C0.00764164 45.6289 0.0091731 46.0596 0.023675 46.5043C0.0360998 47.4649 0.129726 48.4232 0.303712 49.3706C0.475588 50.3197 0.804964 51.2392 1.2804 52.097C1.75387 52.9535 2.37566 53.7341 3.12162 54.4083C3.86074 55.0913 4.71477 55.6611 5.6511 56.0959C6.5863 56.5316 7.58765 56.8361 8.62162 56.9991C9.6571 57.1549 10.7039 57.2396 11.7531 57.2522C12.2361 57.262 12.7108 57.2675 13.1892 57.2675C13.7607 57.2704 14.3269 57.2704 14.8999 57.2704H172.108C172.67 57.2704 173.241 57.2704 173.802 57.2675C174.279 57.2675 174.767 57.262 175.243 57.2522C176.29 57.2402 177.335 57.1556 178.369 56.9991C179.406 56.8349 180.411 56.5306 181.35 56.0959C182.286 55.6608 183.139 55.0911 183.878 54.4083C184.622 53.7314 185.245 52.9515 185.724 52.097C186.196 51.2386 186.522 50.3192 186.692 49.3706C186.866 48.4231 186.963 47.465 186.982 46.5043C186.988 46.0596 186.988 45.6289 186.988 45.1844C187 44.6642 187 44.1469 187 43.6183V13.6536C187 13.1293 187 12.6091 186.988 12.0904C186.988 11.6514 186.988 11.2109 186.982 10.7719C186.963 9.81118 186.866 8.85307 186.692 7.90554C186.522 6.95749 186.196 6.03862 185.724 5.18045C184.76 3.45816 183.23 2.05622 181.35 1.17182C180.411 0.738353 179.406 0.435784 178.369 0.27411C177.335 0.116305 176.29 0.0316959 175.243 0.0210325C174.767 0.0140455 174.279 0.00565543 173.802 0.00286351C173.241 0 172.67 0.000186128 172.108 0.000186128Z" fill="#C9C9C9"/>
<path d="M13.1997 56.0176C12.7236 56.0176 12.259 56.012 11.7866 56.0023C10.808 55.9906 9.83169 55.9125 8.86567 55.7687C7.96491 55.6266 7.09232 55.3622 6.27667 54.9843C5.4685 54.6095 4.73139 54.118 4.09357 53.5288C3.44651 52.9464 2.90781 52.271 2.49881 51.5293C2.0853 50.7828 1.79912 49.9826 1.65026 49.1566C1.48949 48.2691 1.40251 47.3717 1.39007 46.4721C1.38016 46.1701 1.36719 45.1647 1.36719 45.1647V12.0904C1.36719 12.0904 1.381 11.1004 1.39014 10.8096C1.40206 9.91145 1.48854 9.01541 1.64882 8.12927C1.79796 7.30102 2.08436 6.49852 2.49809 5.74954C2.90559 5.00834 3.4413 4.33244 4.08446 3.74802C4.72689 3.15805 5.46636 2.66407 6.2759 2.28409C7.08968 1.90738 7.96062 1.64485 8.85956 1.50531C9.82875 1.36008 10.8084 1.28156 11.7904 1.27041L13.2005 1.25293H173.798L175.225 1.27111C176.198 1.28171 177.169 1.35952 178.129 1.5039C179.037 1.6452 179.917 1.90956 180.74 2.28829C182.362 3.05406 183.681 4.26558 184.514 5.75304C184.921 6.49685 185.203 7.2928 185.35 8.11389C185.512 9.00731 185.603 9.91038 185.622 10.8159C185.626 11.2214 185.626 11.6569 185.626 12.0904C185.639 12.6273 185.639 13.1383 185.639 13.6536V43.6183C185.639 44.1384 185.639 44.646 185.626 45.1577C185.626 45.6233 185.626 46.0498 185.62 46.4888C185.602 47.3782 185.513 48.2651 185.353 49.1426C185.207 49.9745 184.923 50.7809 184.509 51.5336C184.097 52.2673 183.562 52.9368 182.922 53.5176C182.284 54.11 181.545 54.6044 180.735 54.9816C179.915 55.3624 179.036 55.6278 178.129 55.7687C177.163 55.9133 176.186 55.9913 175.208 56.0023C174.75 56.012 174.271 56.0176 173.805 56.0176L172.111 56.0204L13.1997 56.0176Z" fill="#D6D6D6"/>
<path d="M43.7272 28.8305C43.7466 27.3375 44.1471 25.8736 44.8913 24.575C45.6355 23.2765 46.6993 22.1854 47.9837 21.4034C47.1677 20.2494 46.0913 19.2996 44.8399 18.6296C43.5885 17.9596 42.1966 17.5879 40.7748 17.5438C37.7417 17.2285 34.8012 19.3412 33.2556 19.3412C31.6801 19.3412 29.3004 17.5751 26.7379 17.6273C25.0804 17.6803 23.465 18.1577 22.0491 19.0128C20.6333 19.868 19.4652 21.0718 18.6588 22.5069C15.1656 28.4965 17.7712 37.2992 21.1174 42.1407C22.7916 44.5114 24.7483 47.1597 27.3085 47.0657C29.8138 46.9628 30.7495 45.4836 33.7737 45.4836C36.7698 45.4836 37.6477 47.0657 40.2598 47.006C42.9482 46.9628 44.642 44.6247 46.2574 42.2315C47.4603 40.5423 48.3859 38.6753 49 36.6997C47.4381 36.0455 46.1053 34.9504 45.1677 33.5511C44.23 32.1517 43.729 30.51 43.7272 28.8305Z" fill="#7D7D7D"/>
<path d="M38.7937 14.3563C40.2595 12.6136 40.9816 10.3737 40.8068 8.1123C38.5673 8.34524 36.4988 9.4052 35.0132 11.081C34.2868 11.8996 33.7305 12.8521 33.376 13.8838C33.0216 14.9155 32.8759 16.0063 32.9474 17.0938C34.0675 17.1052 35.1756 16.8648 36.1883 16.3906C37.201 15.9164 38.0918 15.2208 38.7937 14.3563Z" fill="#7D7D7D"/>
<path d="M73.385 37.7762H66.5419L64.8985 42.5818H62L68.4817 24.8022H71.4931L77.9749 42.5818H75.0269L73.385 37.7762ZM67.2506 35.5586H72.6749L70.0009 27.7595H69.9261L67.2506 35.5586Z" fill="black"/>
<path d="M91.9702 36.1025C91.9702 40.1307 89.7931 42.7188 86.5078 42.7188C85.6756 42.7619 84.8479 42.572 84.1196 42.1709C83.3912 41.7699 82.7917 41.1737 82.3895 40.4509H82.3273V46.8714H79.6406V29.6204H82.2413V31.7765H82.2907C82.7113 31.0571 83.321 30.464 84.0549 30.0605C84.7888 29.657 85.6194 29.458 86.4584 29.4848C89.7804 29.4848 91.9702 32.0855 91.9702 36.1025ZM89.2086 36.1025C89.2086 33.4781 87.8392 31.7527 85.7496 31.7527C83.6968 31.7527 82.3161 33.5144 82.3161 36.1025C82.3161 38.7143 83.6968 40.4635 85.7496 40.4635C87.8392 40.4635 89.2086 38.7507 89.2086 36.1025Z" fill="black"/>
<path d="M106.376 36.1025C106.376 40.1307 104.199 42.7188 100.914 42.7188C100.082 42.7619 99.2542 42.572 98.5258 42.1709C97.7975 41.7698 97.1979 41.1737 96.7958 40.4509H96.7336V46.8714H94.0469V29.6204H96.6475V31.7765H96.6969C97.1175 31.057 97.7272 30.464 98.4611 30.0605C99.195 29.657 100.026 29.458 100.865 29.4848C104.187 29.4848 106.376 32.0855 106.376 36.1025ZM103.615 36.1025C103.615 33.4781 102.245 31.7527 100.156 31.7527C98.1031 31.7527 96.7223 33.5144 96.7223 36.1025C96.7223 38.7143 98.1031 40.4635 100.156 40.4635C102.245 40.4635 103.615 38.7507 103.615 36.1025Z" fill="black"/>
<path d="M115.899 37.628C116.098 39.3912 117.827 40.5488 120.191 40.5488C122.455 40.5488 124.085 39.3911 124.085 37.8013C124.085 36.4213 123.102 35.595 120.775 35.0287L118.449 34.4736C115.152 33.685 113.621 32.1582 113.621 29.6806C113.621 26.6129 116.321 24.5059 120.154 24.5059C123.948 24.5059 126.548 26.6129 126.636 29.6806H123.924C123.761 27.9063 122.28 26.8353 120.116 26.8353C117.951 26.8353 116.47 27.9189 116.47 29.496C116.47 30.753 117.416 31.4927 119.73 32.0589L121.708 32.5399C125.392 33.4026 126.922 34.8679 126.922 37.4685C126.922 40.7948 124.247 42.8781 119.992 42.8781C116.01 42.8781 113.322 40.8438 113.148 37.6279L115.899 37.628Z" fill="black"/>
<path d="M132.72 26.5542V29.6218H135.209V31.7289H132.72V38.8751C132.72 39.9853 133.218 40.5026 134.312 40.5026C134.608 40.4975 134.903 40.477 135.196 40.4411V42.5356C134.704 42.6266 134.204 42.6678 133.704 42.6586C131.054 42.6586 130.02 41.6729 130.02 39.1589V31.7289H128.117V29.6218H130.02V26.5542H132.72Z" fill="black"/>
<path d="M136.656 36.1014C136.656 32.0229 139.082 29.46 142.864 29.46C146.659 29.46 149.073 32.0228 149.073 36.1014C149.073 40.1911 146.672 42.7428 142.864 42.7428C139.058 42.7428 136.656 40.1911 136.656 36.1014ZM146.336 36.1014C146.336 33.3036 145.041 31.6523 142.864 31.6523C140.687 31.6523 139.394 33.3162 139.394 36.1014C139.394 38.9104 140.687 40.5491 142.864 40.5491C145.041 40.5491 146.336 38.9104 146.336 36.1014Z" fill="black"/>
<path d="M151.281 29.6203H153.844V31.8267H153.906C154.079 31.1376 154.487 30.5286 155.06 30.1021C155.634 29.6756 156.338 29.4576 157.054 29.4847C157.364 29.4836 157.673 29.5169 157.975 29.584V32.0727C157.584 31.9545 157.176 31.9001 156.768 31.912C156.377 31.8963 155.988 31.9644 155.627 32.1117C155.266 32.259 154.941 32.482 154.675 32.7654C154.409 33.0487 154.208 33.3857 154.086 33.7531C153.964 34.1206 153.924 34.5099 153.968 34.8943V42.583H151.281L151.281 29.6203Z" fill="black"/>
<path d="M170.362 38.7748C170 41.1279 167.686 42.7428 164.726 42.7428C160.918 42.7428 158.555 40.2163 158.555 36.1629C158.555 32.097 160.931 29.46 164.613 29.46C168.234 29.46 170.511 31.9236 170.511 35.8539V36.7655H161.267V36.9263C161.224 37.4034 161.284 37.884 161.444 38.3362C161.603 38.7884 161.858 39.2019 162.191 39.5491C162.524 39.8964 162.928 40.1695 163.375 40.3504C163.823 40.5312 164.305 40.6156 164.788 40.598C165.423 40.6569 166.06 40.5113 166.605 40.1828C167.149 39.8543 167.572 39.3605 167.811 38.7747L170.362 38.7748ZM161.28 34.9059H167.823C167.847 34.477 167.782 34.0477 167.63 33.6451C167.479 33.2425 167.245 32.8752 166.944 32.5663C166.642 32.2573 166.28 32.0135 165.879 31.8499C165.477 31.6864 165.047 31.6068 164.613 31.616C164.175 31.6134 163.742 31.6966 163.337 31.8609C162.932 32.0252 162.564 32.2673 162.254 32.5731C161.944 32.879 161.698 33.2426 161.531 33.643C161.364 34.0434 161.278 34.4726 161.28 34.9059Z" fill="black"/>
<path d="M66.9284 11.4228C67.4917 11.3827 68.0569 11.467 68.5833 11.6695C69.1097 11.872 69.5842 12.1877 69.9725 12.5938C70.3608 12.9999 70.6532 13.4862 70.8287 14.0178C71.0042 14.5494 71.0584 15.1129 70.9874 15.6677C70.9874 18.397 69.4979 19.9658 66.9284 19.9658H63.8125V11.4228H66.9284ZM65.1523 18.7577H66.7787C67.1812 18.7815 67.584 18.7161 67.9578 18.5664C68.3316 18.4166 68.6669 18.1861 68.9394 17.8918C69.2119 17.5975 69.4147 17.2467 69.5331 16.865C69.6514 16.4832 69.6824 16.0802 69.6236 15.6851C69.6781 15.2916 69.644 14.8911 69.5239 14.5121C69.4037 14.1332 69.2004 13.7853 68.9285 13.4933C68.6566 13.2013 68.3229 12.9725 67.9512 12.8233C67.5796 12.674 67.1792 12.608 66.7787 12.6301H65.1523V18.7577Z" fill="black"/>
<path d="M72.4989 16.7392C72.458 16.3155 72.5069 15.888 72.6426 15.4842C72.7782 15.0803 72.9976 14.709 73.2867 14.394C73.5758 14.0791 73.9281 13.8274 74.3211 13.6552C74.7141 13.483 75.1392 13.394 75.5689 13.394C75.9987 13.394 76.4237 13.483 76.8167 13.6552C77.2097 13.8274 77.5621 14.0791 77.8511 14.394C78.1402 14.709 78.3596 15.0803 78.4953 15.4842C78.6309 15.888 78.6799 16.3155 78.6389 16.7392C78.6806 17.1633 78.6323 17.5914 78.497 17.9959C78.3617 18.4004 78.1424 18.7724 77.8533 19.0879C77.5641 19.4035 77.2115 19.6557 76.8181 19.8283C76.4247 20.0009 75.9992 20.09 75.5689 20.09C75.1386 20.09 74.7131 20.0009 74.3197 19.8283C73.9263 19.6557 73.5737 19.4035 73.2846 19.0879C72.9954 18.7724 72.7762 18.4004 72.6409 17.9959C72.5056 17.5914 72.4572 17.1633 72.4989 16.7392ZM77.3175 16.7392C77.3175 15.3417 76.6835 14.5244 75.571 14.5244C74.4543 14.5244 73.8261 15.3417 73.8261 16.7392C73.8261 18.1479 74.4543 18.9588 75.571 18.9588C76.6836 18.9588 77.3175 18.1423 77.3175 16.7392Z" fill="black"/>
<path d="M86.8045 19.9622H85.4718L84.1263 15.2139H84.0246L82.6848 19.9622H81.3647L79.5703 13.5151H80.8734L82.0396 18.4346H82.1356L83.474 13.5151H84.7066L86.045 18.4346H86.1466L87.3071 13.5151H88.5919L86.8045 19.9622Z" fill="black"/>
<path d="M90.0938 13.5204H91.3305V14.5446H91.4265C91.5894 14.1768 91.8641 13.8684 92.2123 13.6625C92.5605 13.4566 92.965 13.3635 93.3692 13.396C93.686 13.3724 94.004 13.4197 94.2998 13.5344C94.5956 13.6491 94.8615 13.8282 95.0779 14.0585C95.2943 14.2888 95.4556 14.5643 95.5499 14.8647C95.6442 15.1651 95.669 15.4827 95.6225 15.7939V19.9675H94.3377V16.1134C94.3377 15.0773 93.8831 14.5621 92.9329 14.5621C92.7179 14.5522 92.5032 14.5884 92.3036 14.6684C92.104 14.7483 91.9242 14.87 91.7766 15.0252C91.629 15.1804 91.5169 15.3654 91.4482 15.5674C91.3795 15.7695 91.3557 15.9839 91.3785 16.1959V19.9675H90.0938L90.0938 13.5204Z" fill="black"/>
<path d="M97.6719 11H98.9566V19.9638H97.6719V11Z" fill="black"/>
<path d="M100.749 16.7393C100.708 16.3156 100.757 15.8881 100.893 15.4842C101.028 15.0803 101.248 14.709 101.537 14.394C101.826 14.0791 102.178 13.8274 102.571 13.6552C102.964 13.483 103.389 13.394 103.819 13.394C104.249 13.394 104.674 13.483 105.067 13.6552C105.46 13.8274 105.813 14.0791 106.102 14.394C106.391 14.709 106.61 15.0803 106.746 15.4842C106.882 15.8881 106.931 16.3156 106.89 16.7393C106.931 17.1634 106.883 17.5915 106.748 17.996C106.612 18.4005 106.393 18.7725 106.104 19.0881C105.815 19.4036 105.462 19.6558 105.068 19.8284C104.675 20.0009 104.25 20.0901 103.819 20.0901C103.389 20.0901 102.963 20.0009 102.57 19.8284C102.177 19.6558 101.824 19.4036 101.535 19.0881C101.246 18.7725 101.026 18.4005 100.891 17.996C100.756 17.5915 100.707 17.1634 100.749 16.7393ZM105.567 16.7393C105.567 15.3418 104.934 14.5245 103.821 14.5245C102.704 14.5245 102.076 15.3418 102.076 16.7393C102.076 18.148 102.704 18.9589 103.821 18.9589C104.934 18.9589 105.567 18.1424 105.567 16.7393Z" fill="black"/>
<path d="M108.234 18.1423C108.234 16.9818 109.107 16.3128 110.656 16.2177L112.419 16.117V15.5605C112.419 14.8796 111.964 14.4951 111.086 14.4951C110.369 14.4951 109.872 14.7559 109.73 15.2117H108.486C108.617 14.1043 109.669 13.394 111.146 13.394C112.778 13.394 113.698 14.1987 113.698 15.5605V19.9656H112.461V19.0595H112.36C112.153 19.3845 111.864 19.6495 111.52 19.8273C111.177 20.0052 110.792 20.0895 110.404 20.0718C110.131 20.0999 109.855 20.0711 109.594 19.987C109.332 19.903 109.092 19.7656 108.887 19.5839C108.683 19.4021 108.519 19.1799 108.407 18.9316C108.294 18.6833 108.235 18.4144 108.234 18.1423ZM112.419 17.5914V17.0524L110.829 17.1531C109.933 17.2125 109.526 17.5145 109.526 18.0829C109.526 18.6631 110.034 19.0008 110.733 19.0008C110.938 19.0213 111.145 19.0009 111.342 18.9406C111.538 18.8803 111.721 18.7815 111.878 18.65C112.035 18.5185 112.164 18.357 112.257 18.1752C112.35 17.9933 112.405 17.7948 112.419 17.5914Z" fill="black"/>
<path d="M115.391 16.7375C115.391 14.7004 116.448 13.4098 118.093 13.4098C118.5 13.3913 118.903 13.4878 119.257 13.6881C119.611 13.8883 119.899 14.1842 120.089 14.5409H120.185V11H121.47V19.9638H120.239V18.9453H120.137C119.932 19.2996 119.634 19.5917 119.273 19.79C118.913 19.9883 118.505 20.0851 118.093 20.0701C116.437 20.0702 115.391 18.7796 115.391 16.7375ZM116.718 16.7375C116.718 18.105 117.369 18.9278 118.457 18.9278C119.54 18.9278 120.209 18.0931 120.209 16.7431C120.209 15.3995 119.533 14.5528 118.457 14.5528C117.376 14.5528 116.718 15.3813 116.718 16.7375Z" fill="black"/>
<path d="M126.788 16.7392C126.747 16.3155 126.796 15.888 126.932 15.4842C127.067 15.0803 127.287 14.709 127.576 14.394C127.865 14.0791 128.217 13.8274 128.61 13.6552C129.003 13.483 129.428 13.394 129.858 13.394C130.288 13.394 130.713 13.483 131.106 13.6552C131.499 13.8274 131.851 14.0791 132.14 14.394C132.429 14.709 132.649 15.0803 132.784 15.4842C132.92 15.888 132.969 16.3155 132.928 16.7392C132.97 17.1633 132.921 17.5914 132.786 17.9959C132.651 18.4004 132.431 18.7724 132.142 19.0879C131.853 19.4035 131.501 19.6557 131.107 19.8283C130.714 20.0009 130.288 20.09 129.858 20.09C129.428 20.09 129.002 20.0009 128.609 19.8283C128.215 19.6557 127.863 19.4035 127.574 19.0879C127.284 18.7724 127.065 18.4004 126.93 17.9959C126.795 17.5914 126.746 17.1633 126.788 16.7392ZM131.607 16.7392C131.607 15.3417 130.973 14.5244 129.86 14.5244C128.743 14.5244 128.115 15.3417 128.115 16.7392C128.115 18.1479 128.743 18.9588 129.86 18.9588C130.973 18.9588 131.607 18.1423 131.607 16.7392Z" fill="black"/>
<path d="M134.648 13.5204H135.885V14.5446H135.981C136.144 14.1768 136.419 13.8684 136.767 13.6625C137.115 13.4566 137.52 13.3635 137.924 13.396C138.241 13.3724 138.559 13.4197 138.854 13.5344C139.15 13.6491 139.416 13.8282 139.633 14.0585C139.849 14.2888 140.01 14.5643 140.105 14.8647C140.199 15.1651 140.224 15.4827 140.177 15.7939V19.9675H138.892V16.1134C138.892 15.0773 138.438 14.5621 137.488 14.5621C137.273 14.5522 137.058 14.5884 136.858 14.6684C136.659 14.7483 136.479 14.87 136.331 15.0252C136.184 15.1804 136.072 15.3654 136.003 15.5674C135.934 15.7695 135.91 15.9839 135.933 16.1959V19.9675H134.648V13.5204Z" fill="black"/>
<path d="M147.437 11.9116V13.5461H148.847V14.6178H147.437V17.933C147.437 18.6083 147.718 18.904 148.357 18.904C148.521 18.9035 148.685 18.8937 148.847 18.8746V19.9345C148.617 19.9754 148.383 19.9971 148.148 19.9995C146.72 19.9995 146.151 19.5017 146.151 18.2587V14.6178H145.117V13.5461H146.151V11.9116H147.437Z" fill="black"/>
<path d="M150.602 11H151.875V14.5528H151.977C152.147 14.1815 152.43 13.8714 152.785 13.6648C153.14 13.4581 153.551 13.3649 153.962 13.3979C154.277 13.3809 154.592 13.433 154.884 13.5505C155.177 13.668 155.439 13.8479 155.653 14.0775C155.868 14.307 156.028 14.5806 156.123 14.8786C156.218 15.1766 156.246 15.4917 156.204 15.8014V19.9639H154.918V16.1153C154.918 15.0855 154.433 14.564 153.526 14.564C153.305 14.5461 153.083 14.5761 152.875 14.6521C152.667 14.728 152.478 14.8481 152.322 15.0038C152.166 15.1594 152.046 15.347 151.971 15.5534C151.896 15.7598 151.867 15.9799 151.886 16.1985V19.9638H150.602L150.602 11Z" fill="black"/>
<path d="M163.7 18.2249C163.525 18.8141 163.147 19.3238 162.631 19.6648C162.115 20.0058 161.495 20.1563 160.879 20.0901C160.45 20.1013 160.024 20.02 159.63 19.8517C159.236 19.6834 158.883 19.4323 158.597 19.1157C158.311 18.799 158.098 18.4246 157.973 18.0182C157.847 17.6118 157.813 17.1833 157.872 16.7624C157.814 16.3402 157.85 15.9108 157.975 15.5032C158.1 15.0956 158.312 14.7194 158.596 14.4C158.881 14.0806 159.231 13.8255 159.624 13.652C160.017 13.4784 160.443 13.3905 160.873 13.3942C162.684 13.3942 163.777 14.6197 163.777 16.6442V17.0882H159.18V17.1595C159.16 17.3961 159.19 17.6342 159.268 17.8587C159.347 18.0831 159.471 18.2889 159.635 18.4628C159.798 18.6366 159.996 18.7748 160.216 18.8685C160.437 18.9621 160.674 19.0091 160.914 19.0065C161.221 19.043 161.533 18.9882 161.808 18.849C162.084 18.7099 162.312 18.4926 162.463 18.2249L163.7 18.2249ZM159.18 16.1472H162.468C162.485 15.9308 162.455 15.7135 162.381 15.5091C162.308 15.3048 162.192 15.118 162.041 14.9607C161.89 14.8034 161.707 14.6791 161.505 14.5958C161.303 14.5125 161.085 14.4721 160.866 14.4771C160.644 14.4743 160.423 14.5156 160.217 14.5986C160.012 14.6815 159.825 14.8045 159.668 14.9601C159.51 15.1158 159.386 15.301 159.303 15.5049C159.219 15.7087 159.177 15.9271 159.18 16.1472Z" fill="black"/>
</svg>
