<svg width="23" height="23" viewBox="0 0 23 23" fill="none" xmlns="http://www.w3.org/2000/svg">
<path d="M11.0058 0C4.92747 0 0 4.92747 0 11.0058C0 17.0841 4.92747 22.0116 11.0058 22.0116C17.0841 22.0116 22.0116 17.0841 22.0116 11.0058C22.0045 4.9304 17.0812 0.0070756 11.0058 0Z" fill="#89CFF0"/>
<path d="M17.2336 9.30711L9.66621 15.824C9.48669 15.9753 9.25393 16.0481 9.02022 16.026C8.78651 16.004 8.57147 15.889 8.4234 15.7068L5.05314 11.4665C4.7558 11.092 4.81831 10.5474 5.19276 10.2501C5.56722 9.95274 6.11181 10.0153 6.40916 10.3897L9.21912 13.9275L16.1034 7.99836C16.3348 7.77923 16.6679 7.70498 16.9705 7.80511C17.2731 7.90523 17.4961 8.16353 17.5511 8.47744C17.6061 8.79135 17.4841 9.11009 17.2336 9.30711Z" fill="white"/>
</svg>
