<svg width="20" height="20" viewBox="0 0 20 20" fill="none" xmlns="http://www.w3.org/2000/svg">
<path opacity="0.5" fill-rule="evenodd" clip-rule="evenodd" d="M1 12.3477C1.41421 12.3477 1.75 12.6845 1.75 13.0999C1.75 14.5397 1.75159 15.5438 1.85315 16.3015C1.9518 17.0375 2.13225 17.4272 2.40901 17.7048C2.68577 17.9824 3.07435 18.1634 3.80812 18.2624C4.56347 18.3642 5.56459 18.3658 7 18.3658H13C14.4354 18.3658 15.4365 18.3642 16.1919 18.2624C16.9257 18.1634 17.3142 17.9824 17.591 17.7048C17.8678 17.4272 18.0482 17.0375 18.1469 16.3015C18.2484 15.5438 18.25 14.5397 18.25 13.0999C18.25 12.6845 18.5858 12.3477 19 12.3477C19.4142 12.3477 19.75 12.6845 19.75 13.0999V13.155C19.75 14.5267 19.75 15.6323 19.6335 16.502C19.5125 17.4048 19.2536 18.1649 18.6517 18.7686C18.0497 19.3724 17.2919 19.6321 16.3918 19.7535C15.5248 19.8703 14.4225 19.8703 13.0549 19.8703H6.94513C5.57754 19.8703 4.47522 19.8703 3.60825 19.7535C2.70814 19.6321 1.95027 19.3724 1.34835 18.7687C0.746431 18.1649 0.48754 17.4048 0.36652 16.502C0.24996 15.6323 0.249981 14.5267 0.250001 13.155C0.250001 13.1366 0.250001 13.1183 0.250001 13.0999C0.250001 12.6845 0.585791 12.3477 1 12.3477Z" fill="white"/>
<path fill-rule="evenodd" clip-rule="evenodd" d="M10 14.8544C10.2106 14.8544 10.4114 14.7656 10.5535 14.6097L14.5535 10.2215C14.833 9.91488 14.8118 9.43904 14.5061 9.1587C14.2004 8.87835 13.726 8.89962 13.4465 9.20624L10.75 12.1645V1.06281C10.75 0.647351 10.4142 0.310547 10 0.310547C9.5858 0.310547 9.25 0.647351 9.25 1.06281V12.1645L6.55353 9.20624C6.27403 8.89962 5.79963 8.87835 5.49393 9.1587C5.18823 9.43904 5.16698 9.91488 5.44648 10.2215L9.4465 14.6097C9.5886 14.7656 9.7894 14.8544 10 14.8544Z" fill="white"/>
</svg>
