<svg width="37" height="36" viewBox="0 0 37 36" fill="none" xmlns="http://www.w3.org/2000/svg">
<path fill-rule="evenodd" clip-rule="evenodd" d="M19.0662 2.9502C22.6504 2.9502 23.1726 2.96937 24.683 3.0387C26.2524 3.11097 27.3247 3.36025 28.2628 3.72457C29.2474 4.09461 30.1393 4.675 30.8765 5.42525C31.6268 6.16241 32.2071 7.05438 32.5772 8.03895C32.9415 8.97705 33.1908 10.0494 33.2631 11.6188C33.3339 13.1926 33.3516 13.6941 33.3516 17.7002V17.8182C33.3516 21.7166 33.3339 22.224 33.2631 23.7816C33.1908 25.351 32.9415 26.4233 32.5772 27.3614C32.2071 28.346 31.6268 29.238 30.8765 29.9751C30.1393 30.7254 29.2474 31.3058 28.2628 31.6758C27.3247 32.0401 26.2524 32.2894 24.683 32.3617C23.1092 32.4325 22.6077 32.4502 18.6016 32.4502H18.4836C14.5851 32.4502 14.0777 32.4325 12.5201 32.3617C10.9507 32.2894 9.87841 32.0401 8.94031 31.6758C7.95575 31.3058 7.06378 30.7254 6.32661 29.9751C5.57636 29.238 4.99598 28.346 4.62594 27.3614C4.26161 26.4233 4.01234 25.351 3.94006 23.7816C3.87074 22.2712 3.85156 21.7476 3.85156 18.1648V17.2356C3.85156 13.6513 3.87074 13.1292 3.94006 11.6188C4.01234 10.0494 4.26161 8.97705 4.62594 8.03895C4.99598 7.05438 5.57636 6.16241 6.32661 5.42525C7.06378 4.675 7.95575 4.09461 8.94031 3.72457C9.87841 3.36025 10.9507 3.11097 12.5201 3.0387C14.0305 2.96937 14.5542 2.9502 18.1369 2.9502H19.0662ZM18.9467 5.60815H18.2564C14.6338 5.60815 14.15 5.62437 12.6411 5.6937C11.203 5.76007 10.4227 5.99902 9.90201 6.2011C9.21319 6.46955 8.72201 6.78815 8.20576 7.3044C7.68951 7.82065 7.37091 8.31182 7.10246 9.00065C6.90039 9.52132 6.65996 10.3016 6.59506 11.7397C6.52574 13.2486 6.50951 13.7324 6.50951 17.355V18.0453C6.50951 21.6679 6.52574 22.1517 6.59506 23.6607C6.66144 25.0988 6.90039 25.8791 7.10246 26.3997C7.37091 27.0871 7.69099 27.5797 8.20576 28.096C8.72201 28.6122 9.21319 28.9308 9.90201 29.1993C10.4227 29.4014 11.203 29.6418 12.6411 29.7067C14.1957 29.7775 14.6618 29.7922 18.6016 29.7922H18.7196C22.5501 29.7922 23.0221 29.7775 24.5606 29.7067C26.0002 29.6403 26.7804 29.4014 27.3011 29.1993C27.9885 28.9308 28.4811 28.6122 28.9974 28.096C29.5136 27.5797 29.8322 27.0886 30.1007 26.3997C30.3027 25.8791 30.5432 25.0988 30.6081 23.6607C30.6789 22.1045 30.6936 21.6399 30.6936 17.7002V17.5822C30.6936 13.7516 30.6789 13.2796 30.6081 11.7412C30.5417 10.3016 30.3027 9.52132 30.1007 9.00065C29.8643 8.35986 29.4873 7.78022 28.9974 7.3044C28.5215 6.81449 27.9419 6.43748 27.3011 6.2011C26.7804 5.99902 26.0002 5.7586 24.562 5.6937C23.0531 5.62437 22.5693 5.60815 18.9467 5.60815ZM18.6016 10.1261C19.5962 10.1261 20.5811 10.322 21.5001 10.7026C22.419 11.0833 23.254 11.6412 23.9573 12.3445C24.6606 13.0478 25.2185 13.8828 25.5991 14.8017C25.9798 15.7206 26.1757 16.7055 26.1757 17.7002C26.1757 18.6948 25.9798 19.6798 25.5991 20.5987C25.2185 21.5176 24.6606 22.3526 23.9573 23.0559C23.254 23.7592 22.419 24.3171 21.5001 24.6978C20.5811 25.0784 19.5962 25.2743 18.6016 25.2743C16.5928 25.2743 14.6663 24.4763 13.2458 23.0559C11.8254 21.6355 11.0274 19.709 11.0274 17.7002C11.0274 15.6914 11.8254 13.7649 13.2458 12.3445C14.6663 10.9241 16.5928 10.1261 18.6016 10.1261ZM18.6016 12.784C17.2977 12.784 16.0473 13.302 15.1253 14.2239C14.2033 15.1459 13.6854 16.3963 13.6854 17.7002C13.6854 19.004 14.2033 20.2545 15.1253 21.1765C16.0473 22.0984 17.2977 22.6164 18.6016 22.6164C19.9054 22.6164 21.1559 22.0984 22.0778 21.1765C22.9998 20.2545 23.5177 19.004 23.5177 17.7002C23.5177 16.3963 22.9998 15.1459 22.0778 14.2239C21.1559 13.302 19.9054 12.784 18.6016 12.784ZM26.4751 8.05665C26.9445 8.05665 27.3948 8.24313 27.7267 8.57507C28.0586 8.90701 28.2451 9.35721 28.2451 9.82665C28.2451 10.2961 28.0586 10.7463 27.7267 11.0782C27.3948 11.4102 26.9445 11.5966 26.4751 11.5966C26.0057 11.5966 25.5555 11.4102 25.2235 11.0782C24.8916 10.7463 24.7051 10.2961 24.7051 9.82665C24.7051 9.35721 24.8916 8.90701 25.2235 8.57507C25.5555 8.24313 26.0057 8.05665 26.4751 8.05665Z" fill="white"/>
</svg>
