<svg width="29" height="29" viewBox="0 0 29 29" fill="none" xmlns="http://www.w3.org/2000/svg">
<path d="M26.8544 0H2.1398C2.13207 0 2.12337 0 2.1137 0C0.954354 0 0.0135369 0.932115 0 2.08759V26.9105C0.0135369 28.0669 0.954354 29 2.1137 29C2.12337 29 2.13207 29 2.14174 29H26.8515C26.8592 29 26.8689 29 26.8786 29C28.0389 29 28.9816 28.0689 29 26.9124V26.9105V2.08952C28.9816 0.932115 28.0389 0 26.8776 0C26.8679 0 26.8592 0 26.8496 0H26.8544ZM8.60079 24.7127H4.29411V10.875H8.60079V24.7127ZM6.44842 8.98176C5.07055 8.98176 3.95472 7.86496 3.95472 6.48806C3.95472 5.11116 5.07152 3.99437 6.44842 3.99437C7.82532 3.99437 8.94212 5.1102 8.94212 6.4871C8.94212 6.48806 8.94212 6.48903 8.94212 6.49096C8.94212 7.8669 7.82629 8.98273 6.45035 8.98273C6.44939 8.98273 6.44842 8.98273 6.44745 8.98273L6.44842 8.98176ZM24.7059 24.7127H20.4118V17.9838C20.4118 16.3787 20.3789 14.3144 18.1743 14.3144C15.9349 14.3144 15.5936 16.0606 15.5936 17.8659V24.7136H11.2995V10.876H15.4244V12.7624H15.4805C16.2811 11.4136 17.7295 10.524 19.3859 10.524C19.4449 10.524 19.5029 10.525 19.5609 10.5269H19.5522C23.9033 10.5269 24.7078 13.3909 24.7078 17.1184V24.7136L24.7059 24.7127Z" fill="white"/>
</svg>
