<svg width="177" height="58" viewBox="0 0 177 58" fill="none" xmlns="http://www.w3.org/2000/svg">
<rect width="58" height="57.6813" rx="13.3846" fill="url(#paint0_linear_1758_761)"/>
<rect width="58" height="57.6813" rx="13.3846" fill="url(#paint1_linear_1758_761)"/>
<path d="M47.5928 23.1308C47.454 22.8994 47.2689 22.7143 47.1301 22.4829L47.0375 22.3904C45.788 20.5855 44.307 19.012 42.641 17.7162C41.0675 16.4667 39.6329 15.5874 37.6429 14.5692C36.3934 13.9213 34.7736 13.2271 33.6166 13.4122C32.9224 13.5511 32.1357 13.9676 31.6266 14.5692C31.2101 14.6155 30.8399 14.7081 30.4234 14.8006C28.7111 15.4022 27.6929 16.698 26.6748 17.9939C26.4897 18.2253 26.3046 18.5029 26.1194 18.7343C26.0732 18.7806 25.9343 18.9657 25.7492 19.2434C25.3327 19.7987 24.1294 21.4185 23.7129 21.835L18.576 20.8169C18.1132 20.678 17.6041 20.6318 17.0951 20.6318C13.439 20.6318 9.73671 24.2415 8.25579 29.2396C6.54347 35.0708 8.39462 40.7631 12.3746 41.92C12.8374 42.0589 13.3465 42.1514 13.8555 42.1514C14.4572 42.9382 15.7067 43.401 16.262 43.5398C18.8537 44.0952 21.5378 44.2803 24.1294 44.4654L25.3327 44.5579C26.9987 44.6968 28.5722 44.7431 30.0531 44.7431C31.5341 44.7431 32.9687 44.6968 34.3571 44.5579C34.8662 44.5117 35.4215 44.4654 35.8843 44.234C36.3471 44.0026 36.7173 43.6786 37.0875 43.401C37.6892 42.8919 38.2445 42.3828 38.8461 41.8738C41.0675 39.9301 43.3352 37.9401 45.464 35.8112C46.5747 34.6543 47.778 33.451 48.7961 32.0626C49.3977 31.2296 50.1845 30.1189 50.1845 28.9157C50.1845 26.7406 48.7498 24.7506 47.5928 23.1308ZM26.4897 19.7987C26.6748 19.5673 26.8136 19.3822 26.8136 19.3359L27.369 18.6418C27.5078 18.7806 27.7392 18.8269 27.9706 18.7343C28.202 18.5955 28.2945 18.3178 28.202 18.0401C28.1557 17.9476 28.1094 17.9013 28.0169 17.855C28.6648 17.022 29.359 16.3278 30.2383 15.865C30.3771 15.9576 30.5622 15.9576 30.7011 15.9113C30.8399 15.865 30.9324 15.7262 30.9324 15.5874C31.3027 15.4948 31.6729 15.4485 32.0431 15.4485C32.9687 15.4485 33.848 15.7725 34.4034 16.3278C34.681 16.5592 34.8662 16.8832 35.0513 17.2534V17.346L35.0975 17.3922C35.3752 18.0864 35.5603 18.9194 35.5603 19.9838C35.5603 20.7243 35.5603 21.4648 35.6066 22.2515C35.5141 22.2515 35.4678 22.2515 35.3752 22.2978C35.1438 22.4366 35.0513 22.7143 35.1438 22.992C35.2364 23.1771 35.4215 23.2696 35.6066 23.2696V23.5473C35.6066 24.7506 35.6529 25.9538 35.6529 27.1108V27.8513C35.5603 27.8513 35.5141 27.8513 35.4215 27.8975C35.1901 28.0364 35.0975 28.314 35.1901 28.5917C35.2827 28.7768 35.4678 28.8694 35.6529 28.8694V29.3322C35.6992 30.7206 35.6992 32.1089 35.6992 33.4973C35.6529 33.4973 35.5603 33.4973 35.5141 33.5436C35.2827 33.6824 35.1901 33.9601 35.2827 34.2377C35.3752 34.3766 35.5141 34.4691 35.6529 34.5154C35.6529 34.8394 35.6066 35.117 35.6066 35.441C35.5603 35.3947 35.5603 35.3484 35.5141 35.3484C35.3752 35.2096 35.1438 35.2096 34.9587 35.3022C34.7273 35.441 34.6348 35.7187 34.7273 35.9963C34.7736 36.1352 34.9124 36.2277 35.005 36.2277C35.0975 36.2277 35.2827 36.274 35.3752 36.1815C35.4215 36.1352 35.4678 36.1352 35.5141 36.0889C35.4678 36.9219 35.3752 37.7549 35.2364 38.588C35.1901 38.8194 35.0975 39.0507 35.005 39.0507C34.8662 39.0507 34.681 38.9582 34.4959 38.8194C34.4959 38.7731 34.4496 38.7731 34.4496 38.7268C34.4034 38.6805 34.3571 38.6805 34.3108 38.6342C34.0794 38.4491 33.8017 38.1715 33.6166 37.8938C33.4778 37.7087 33.3852 37.5235 33.2464 37.2922C33.3389 37.2459 33.4315 37.1533 33.4778 37.0145C33.4778 36.9682 33.5241 36.8756 33.4778 36.8294C33.4778 36.7831 33.4778 36.6905 33.4315 36.6442C33.3852 36.5054 33.2464 36.4129 33.1538 36.4129C33.0613 36.3666 32.9224 36.3666 32.8299 36.4129C32.7373 36.1815 32.6448 35.9501 32.5059 35.7187C32.4134 35.4873 32.2745 35.2096 32.182 34.9782C32.3208 34.8394 32.3671 34.608 32.2745 34.3766L32.1357 34.2377C32.0431 34.1452 31.9043 34.0989 31.7655 34.1452C31.5341 33.6361 31.3027 33.1271 31.1176 32.618C31.1638 32.4791 31.2101 32.3403 31.1176 32.1552C31.0713 32.0164 30.9324 31.9238 30.8399 31.9238C30.8399 31.8775 30.7936 31.8775 30.7936 31.8312C30.5159 31.1833 30.2383 30.5817 29.9606 29.9338L29.6829 29.3322C28.8962 27.2959 27.9706 25.2134 26.5822 23.5936L26.6285 23.5473C26.6285 23.501 26.6748 23.4085 26.6285 23.3622C26.5822 23.3159 26.6285 23.2234 26.5822 23.1771C26.4434 22.9457 26.1657 22.8531 25.9343 22.9457C25.5641 22.6217 25.1013 22.3903 24.6848 22.2052C24.8236 22.0664 24.9625 21.8813 25.1476 21.6499C25.1939 21.6499 25.1939 21.6499 25.2401 21.6036C25.4253 21.5111 25.4715 21.3722 25.5178 21.1871C25.7492 20.7706 26.0732 20.3541 26.4897 19.7987ZM13.9481 41.1796C13.5316 41.1796 13.0688 41.1333 12.6523 40.9945C9.13509 39.9763 7.5616 34.7931 9.13509 29.471C10.5235 24.8894 13.8555 21.5573 17.0951 21.5573C17.2802 21.5573 17.4653 21.5573 17.6504 21.6036L18.2983 21.7424H18.3446C21.8618 22.8069 23.4353 27.9901 21.8618 33.2659C20.5197 37.8475 17.1876 41.1796 13.9481 41.1796ZM48.0094 31.461C47.0375 32.8031 45.8805 34.0064 44.7698 35.117C42.6873 37.1996 40.4196 39.1896 38.1982 41.1333C37.5966 41.6424 37.0413 42.1514 36.4396 42.6605C36.162 42.9382 35.838 43.2159 35.4678 43.3547C35.0975 43.4935 34.681 43.5398 34.2182 43.5861C31.4878 43.8175 28.5722 43.8175 25.3327 43.5861L24.1294 43.4935C21.5841 43.3084 18.8999 43.1233 16.3546 42.5679C16.0306 42.5217 15.429 42.2903 14.9662 41.9663C18.2057 41.3184 21.3527 37.9401 22.6948 33.4973C24.0369 28.962 23.2039 24.5192 20.8899 22.2052L23.6204 22.7606C23.8055 22.8069 24.8236 23.2234 25.379 23.7324C26.9062 25.2596 27.878 27.4347 28.8036 29.5636L29.0813 30.2115C29.359 30.8594 29.6366 31.461 29.9143 32.1089C30.3308 33.1271 30.7936 34.1452 31.2564 35.1633C31.3952 35.441 31.4878 35.7187 31.6266 35.9963C31.9506 36.7831 32.3208 37.6161 32.8299 38.3103C32.8762 38.3566 33.9406 39.8375 35.005 39.8375H35.0513C35.3752 39.8375 35.9768 39.6524 36.162 38.588C36.671 35.4873 36.6247 32.294 36.5785 29.2396C36.5785 28.4992 36.5322 27.805 36.5322 27.0645C36.5322 25.8613 36.4859 24.658 36.4859 23.501C36.4859 22.3441 36.4396 21.1408 36.4396 19.9838C36.4396 18.5955 36.162 17.4385 35.6529 16.5592C37.6892 17.4385 39.5866 18.5955 41.1601 20.0301C44.1682 22.668 46.2508 25.8613 46.297 25.8613C46.3896 26.0001 46.5284 26.0927 46.6673 26.0927C46.7598 26.0927 46.8524 26.0464 46.8987 26.0001C47.1301 25.8613 47.1763 25.5836 47.0375 25.3522C47.0375 25.2596 44.9549 22.0664 41.8543 19.3359C39.5866 17.346 36.8099 15.8187 33.7555 14.8469C33.5241 14.7543 33.2464 14.6618 32.9687 14.6155C33.2464 14.4767 33.5241 14.3378 33.7555 14.2915C34.7273 14.1064 36.5322 15.032 37.1801 15.356C39.1238 16.3278 40.5122 17.2071 42.0394 18.4104C43.6129 19.6599 45.0475 21.1871 46.2508 22.8994L46.3433 22.992C46.4822 23.2234 46.6673 23.4085 46.8061 23.6399C47.9631 25.2134 49.2589 27.0182 49.2589 28.8231C49.2589 29.7487 48.5647 30.6743 48.0094 31.461ZM35.005 19.3359C35.0513 19.3359 35.1438 19.3359 35.1901 19.2897L35.3289 19.1508C35.3752 19.1045 35.4215 19.0583 35.4215 18.9657C35.4678 18.8269 35.4678 18.688 35.3752 18.5955C35.3289 18.4566 35.1901 18.3641 35.0975 18.3641C34.9587 18.3178 34.8199 18.3178 34.7273 18.4104C34.5885 18.4566 34.5422 18.5955 34.4959 18.688C34.4496 18.8269 34.4496 18.9657 34.5422 19.0583C34.6348 19.2434 34.8199 19.3359 35.005 19.3359ZM33.848 17.0683C33.8943 17.0683 33.9869 17.0683 34.0331 17.022L34.172 16.8832C34.3108 16.7443 34.3108 16.5129 34.2182 16.3278C34.172 16.189 34.0331 16.0964 33.9406 16.0964C33.8017 16.0501 33.6629 16.0501 33.5703 16.1427C33.3389 16.2815 33.2464 16.5592 33.3389 16.8369C33.4778 17.022 33.6629 17.1146 33.848 17.0683Z" fill="white"/>
<path d="M32.2668 19.9887C32.2668 20.035 32.2668 20.1275 32.3131 20.1738C32.452 20.4052 32.7296 20.4978 33.0073 20.4052L33.1461 20.2664C33.2387 20.1738 33.285 20.035 33.2387 19.8961C33.2387 19.8498 33.2387 19.7573 33.1924 19.711C33.1461 19.5722 33.0073 19.4796 32.9148 19.4796C32.7759 19.4333 32.6371 19.4333 32.5445 19.5259C32.3594 19.6185 32.2668 19.8036 32.2668 19.9887Z" fill="white"/>
<path d="M31.1601 17.9466C31.2887 18.1966 31.5956 18.2951 31.8456 18.1666C32.0957 18.038 32.1942 17.7311 32.0656 17.4811C31.9371 17.231 31.6302 17.1325 31.3801 17.2611C31.1301 17.3896 31.0316 17.6965 31.1601 17.9466Z" fill="white"/>
<path d="M30.6109 19.6301C30.7395 19.8802 31.0464 19.9787 31.2964 19.8502C31.5465 19.7216 31.645 19.4147 31.5164 19.1647C31.3879 18.9146 31.081 18.8161 30.8309 18.9447C30.5809 19.0732 30.4824 19.3801 30.6109 19.6301Z" fill="white"/>
<path d="M32.843 18.4895C32.9715 18.7396 33.2784 18.8381 33.5285 18.7095C33.7785 18.581 33.877 18.2741 33.7485 18.024C33.6199 17.774 33.313 17.6755 33.063 17.804C32.813 17.9326 32.7145 18.2395 32.843 18.4895Z" fill="white"/>
<path d="M29.4861 17.3821C29.6146 17.6321 29.9215 17.7306 30.1715 17.6021C30.4216 17.4736 30.5201 17.1667 30.3916 16.9166C30.263 16.6666 29.9561 16.5681 29.7061 16.6966C29.456 16.8251 29.3575 17.1321 29.4861 17.3821Z" fill="white"/>
<path d="M31.6561 16.2551C31.7846 16.5052 32.0915 16.6037 32.3416 16.4752C32.5916 16.3466 32.6901 16.0397 32.5616 15.7897C32.4331 15.5396 32.1262 15.4411 31.8761 15.5697C31.6261 15.6982 31.5276 16.0051 31.6561 16.2551Z" fill="white"/>
<path d="M30.0614 21.1318C30.0614 21.1781 30.0614 21.2706 30.1077 21.3169L30.2465 21.4557C30.3391 21.5483 30.4779 21.5946 30.6167 21.5946C30.663 21.5946 30.7556 21.5946 30.8019 21.5483C31.0333 21.4095 31.1258 21.1318 31.0333 20.8541L30.8944 20.7153C30.7556 20.5764 30.5242 20.5764 30.3391 20.669C30.154 20.7153 30.0614 20.9467 30.0614 21.1318Z" fill="white"/>
<path d="M28.9281 19.0872C29.0566 19.3372 29.3635 19.4357 29.6136 19.3072C29.8636 19.1786 29.9621 18.8717 29.8336 18.6217C29.705 18.3716 29.3981 18.2731 29.1481 18.4017C28.898 18.5302 28.7995 18.8371 28.9281 19.0872Z" fill="white"/>
<path d="M34.8297 23.9585C34.6446 24.0511 34.552 24.2362 34.552 24.4213C34.552 24.4676 34.552 24.5602 34.5983 24.6064C34.7371 24.8378 35.0148 24.9304 35.2925 24.8378C35.4313 24.7916 35.4776 24.6527 35.5239 24.5602C35.5701 24.4213 35.5701 24.2825 35.4776 24.1899C35.4313 24.0511 35.2925 23.9585 35.1999 23.9585C35.1073 23.9123 34.9685 23.9123 34.8297 23.9585Z" fill="white"/>
<path d="M34.3744 21.9988C34.2459 21.7487 33.939 21.6502 33.6889 21.7788C33.4389 21.9073 33.3404 22.2142 33.4689 22.4642C33.5975 22.7143 33.9044 22.8128 34.1544 22.6843C34.4045 22.5557 34.503 22.2488 34.3744 21.9988Z" fill="white"/>
<path d="M33.8253 23.6521C33.6968 23.402 33.3899 23.3035 33.1399 23.4321C32.8898 23.5606 32.7913 23.8675 32.9198 24.1176C33.0484 24.3676 33.3553 24.4661 33.6053 24.3376C33.8554 24.209 33.9539 23.9021 33.8253 23.6521Z" fill="white"/>
<path d="M32.6916 21.4333C32.563 21.1833 32.2561 21.0848 32.0061 21.2133C31.756 21.3419 31.6575 21.6488 31.7861 21.8988C31.9146 22.1489 32.2215 22.2474 32.4715 22.1188C32.7216 21.9903 32.8201 21.6834 32.6916 21.4333Z" fill="white"/>
<path d="M34.2361 20.0626C33.986 20.1911 33.8875 20.498 34.0161 20.7481C34.1446 20.9981 34.4515 21.0966 34.7015 20.9681C34.9516 20.8396 35.0501 20.5326 34.9216 20.2826C34.793 20.0326 34.4861 19.9341 34.2361 20.0626Z" fill="white"/>
<path d="M32.5976 25.1162C32.4125 25.2088 32.3199 25.3939 32.3199 25.579C32.3199 25.6253 32.3199 25.7179 32.3662 25.7641C32.4588 25.9492 32.6439 26.0418 32.829 26.0418C32.8753 26.0418 32.9679 26.0418 33.0141 25.9955L33.153 25.8567C33.2918 25.7179 33.2918 25.4865 33.1992 25.3013L33.0604 25.1625C33.0141 25.1162 32.9678 25.07 32.8753 25.07C32.8753 25.0237 32.7365 25.07 32.5976 25.1162Z" fill="white"/>
<path d="M34.0918 26.3323C34.2203 26.5823 34.5272 26.6808 34.7773 26.5523C35.0273 26.4238 35.1258 26.1169 34.9973 25.8668C34.8687 25.6168 34.5618 25.5183 34.3118 25.6468C34.0617 25.7753 33.9632 26.0822 34.0918 26.3323Z" fill="white"/>
<path d="M34.2314 28.2218C34.4628 28.083 34.5554 27.8053 34.4628 27.5276C34.324 27.2962 34.0463 27.2037 33.7686 27.2962C33.6298 27.3425 33.5835 27.4813 33.5372 27.5739C33.491 27.7127 33.491 27.8516 33.5835 27.9441C33.6761 28.1292 33.8612 28.2218 34.0463 28.2218C34.1389 28.3143 34.1851 28.2681 34.2314 28.2218Z" fill="white"/>
<path d="M26.7403 20.221C26.8689 20.471 27.1758 20.5695 27.4258 20.441C27.6759 20.3124 27.7744 20.0055 27.6458 19.7555C27.5173 19.5054 27.2104 19.4069 26.9603 19.5355C26.7103 19.664 26.6118 19.9709 26.7403 20.221Z" fill="white"/>
<path d="M26.2088 21.9104C26.3374 22.1605 26.6443 22.259 26.8943 22.1304C27.1444 22.0019 27.2429 21.695 27.1143 21.4449C26.9858 21.1949 26.6789 21.0964 26.4288 21.2249C26.1788 21.3535 26.0803 21.6604 26.2088 21.9104Z" fill="white"/>
<path d="M28.4321 20.7796C28.5606 21.0296 28.8675 21.1281 29.1176 20.9996C29.3676 20.871 29.4661 20.5641 29.3376 20.3141C29.2091 20.064 28.9022 19.9655 28.6521 20.0941C28.4021 20.2226 28.3036 20.5295 28.4321 20.7796Z" fill="white"/>
<path d="M31.0293 27.0183C31.1218 26.9258 31.1681 26.7869 31.1218 26.6481C31.1218 26.6018 31.1218 26.5093 31.0755 26.463C30.9367 26.2316 30.659 26.139 30.3814 26.2316C30.15 26.3704 30.0574 26.6481 30.15 26.9258L30.2888 27.0646C30.3814 27.1572 30.5202 27.2034 30.659 27.2034C30.7053 27.2034 30.7979 27.2034 30.8442 27.1572C30.9367 27.1109 30.983 27.0646 31.0293 27.0183ZM31.4921 22.8995C31.2607 23.0383 31.1681 23.316 31.2607 23.5937C31.3995 23.8251 31.6772 23.9176 31.9548 23.8251C32.1862 23.6862 32.2788 23.4086 32.1862 23.1309C32.14 22.9921 32.0011 22.8995 31.9086 22.8995C31.7235 22.8069 31.5846 22.8069 31.4921 22.8995Z" fill="white"/>
<path d="M29.7219 24.9179C29.972 24.7893 30.0705 24.4824 29.942 24.2324C29.8134 23.9823 29.5065 23.8838 29.2565 24.0124C29.0064 24.1409 28.9079 24.4478 29.0365 24.6979C29.165 24.9479 29.4719 25.0464 29.7219 24.9179Z" fill="white"/>
<path d="M29.4145 25.946C29.2859 25.696 28.979 25.5975 28.729 25.726C28.4789 25.8546 28.3804 26.1615 28.509 26.4115C28.6375 26.6616 28.9444 26.7601 29.1944 26.6315C29.4445 26.503 29.543 26.1961 29.4145 25.946Z" fill="white"/>
<path d="M31.6553 24.7927C31.5268 24.5427 31.2199 24.4442 30.9698 24.5727C30.7198 24.7012 30.6213 25.0081 30.7498 25.2582C30.8783 25.5082 31.1852 25.6067 31.4353 25.4782C31.6853 25.3497 31.7838 25.0428 31.6553 24.7927Z" fill="white"/>
<path d="M27.5577 23.4708C27.3077 23.5993 27.2092 23.9062 27.3377 24.1563C27.4663 24.4063 27.7732 24.5048 28.0232 24.3763C28.2732 24.2478 28.3718 23.9409 28.2432 23.6908C28.1147 23.4408 27.8078 23.3423 27.5577 23.4708Z" fill="white"/>
<path d="M29.5747 22.9739C29.7032 23.2239 30.0101 23.3224 30.2602 23.1939C30.5102 23.0654 30.6087 22.7585 30.4802 22.5084C30.3516 22.2584 30.0447 22.1599 29.7947 22.2884C29.5446 22.4169 29.4461 22.7238 29.5747 22.9739Z" fill="white"/>
<path d="M28.0145 22.6214C28.1071 22.7139 28.2459 22.7602 28.3848 22.7602C28.431 22.7602 28.5236 22.7602 28.5699 22.7139C28.7087 22.6677 28.755 22.5288 28.8013 22.4363C28.8475 22.2974 28.8475 22.1586 28.755 22.066L28.6162 21.9272C28.4773 21.7884 28.2459 21.7884 28.0608 21.8809C27.8294 22.0197 27.7369 22.2974 27.8294 22.5751C27.922 22.5288 27.9682 22.5751 28.0145 22.6214Z" fill="white"/>
<path d="M32.0159 29.3603C32.2659 29.2317 32.3644 28.9248 32.2359 28.6748C32.1074 28.4247 31.8005 28.3262 31.5504 28.4548C31.3004 28.5833 31.2019 28.8902 31.3304 29.1402C31.4589 29.3903 31.7658 29.4888 32.0159 29.3603Z" fill="white"/>
<path d="M31.7173 30.3933C31.5888 30.1432 31.2819 30.0447 31.0318 30.1733C30.7818 30.3018 30.6833 30.6087 30.8118 30.8588C30.9404 31.1088 31.2473 31.2073 31.4973 31.0788C31.7474 30.9502 31.8459 30.6433 31.7173 30.3933Z" fill="white"/>
<path d="M33.9051 29.2546C33.7765 29.0046 33.4696 28.9061 33.2196 29.0346C32.9695 29.1632 32.871 29.4701 32.9996 29.7201C33.1281 29.9701 33.435 30.0687 33.685 29.9401C33.9351 29.8116 34.0336 29.5047 33.9051 29.2546Z" fill="white"/>
<path d="M30.5747 28.1648C30.4462 27.9147 30.1393 27.8162 29.8892 27.9448C29.6392 28.0733 29.5407 28.3802 29.6692 28.6303C29.7978 28.8803 30.1047 28.9788 30.3547 28.8503C30.6048 28.7217 30.7033 28.4148 30.5747 28.1648Z" fill="white"/>
<path d="M32.7802 27.0271C32.6516 26.777 32.3447 26.6785 32.0947 26.8071C31.8446 26.9356 31.7461 27.2425 31.8747 27.4926C32.0032 27.7426 32.3101 27.8411 32.5602 27.7126C32.8102 27.584 32.9087 27.2771 32.7802 27.0271Z" fill="white"/>
<path d="M34.301 33.8642C34.5511 33.7356 34.6496 33.4287 34.5211 33.1787C34.3925 32.9286 34.0856 32.8301 33.8356 32.9587C33.5855 33.0872 33.487 33.3941 33.6156 33.6442C33.7441 33.8942 34.051 33.9927 34.301 33.8642Z" fill="white"/>
<path d="M33.9936 34.8699C33.865 34.6198 33.5581 34.5213 33.3081 34.6498C33.058 34.7784 32.9595 35.0853 33.0881 35.3353C33.2166 35.5854 33.5235 35.6839 33.7735 35.5553C34.0236 35.4268 34.1221 35.1199 33.9936 34.8699Z" fill="white"/>
<path d="M32.8688 32.6296C32.7403 32.3796 32.4334 32.2811 32.1833 32.4096C31.9333 32.5382 31.8348 32.8451 31.9633 33.0951C32.0918 33.3451 32.3987 33.4437 32.6488 33.3151C32.8988 33.1866 32.9973 32.8797 32.8688 32.6296Z" fill="white"/>
<path d="M35.0742 31.4626C34.9457 31.2126 34.6388 31.1141 34.3888 31.2426C34.1387 31.3712 34.0402 31.6781 34.1687 31.9281C34.2973 32.1782 34.6042 32.2767 34.8542 32.1481C35.1043 32.0196 35.2028 31.7127 35.0742 31.4626Z" fill="white"/>
<path d="M34.671 29.8838C34.6247 30.0226 34.6247 30.1615 34.7173 30.254L34.8561 30.3929C34.9487 30.4854 35.0875 30.5317 35.2264 30.5317C35.2726 30.5317 35.3652 30.5317 35.4115 30.4854C35.5503 30.4391 35.5966 30.3003 35.6429 30.2077C35.6892 30.1152 35.6892 29.9301 35.5966 29.8375L35.4578 29.6987C35.3189 29.5598 35.0875 29.5598 34.9024 29.6524C34.7636 29.6524 34.7173 29.745 34.671 29.8838Z" fill="white"/>
<path d="M33.1497 31.6493C33.3997 31.5208 33.4982 31.2139 33.3697 30.9638C33.2411 30.7138 32.9342 30.6153 32.6842 30.7438C32.4341 30.8724 32.3356 31.1793 32.4642 31.4293C32.5927 31.6794 32.8996 31.7779 33.1497 31.6493Z" fill="white"/>
<path d="M35.154 37.073C35.0254 36.8229 34.7185 36.7244 34.4685 36.853C34.2184 36.9815 34.1199 37.2884 34.2485 37.5385C34.377 37.7885 34.6839 37.887 34.9339 37.7585C35.184 37.6299 35.2825 37.323 35.154 37.073Z" fill="white"/>
<path d="M11.7828 39.6605C11.644 39.6605 11.5052 39.6143 11.4126 39.4754C9.42262 37.1152 8.821 33.4129 9.93169 29.7569C10.9961 26.1008 13.634 23.2315 16.5959 22.3985C16.8272 22.3522 17.1049 22.4911 17.1512 22.7225C17.1975 22.9539 17.0586 23.2315 16.8272 23.2778C14.1431 24.0183 11.7828 26.6562 10.811 29.9883C9.83913 33.2741 10.3482 36.745 12.1531 38.8275C12.3382 39.0126 12.2919 39.3366 12.1068 39.4754C11.968 39.6143 11.8754 39.6605 11.7828 39.6605ZM17.4752 27.4429C17.3363 27.3966 17.1975 27.3966 17.1049 27.4892C16.9198 27.5818 16.8272 27.7669 16.8272 27.952C16.8272 27.9983 16.8272 28.0908 16.8735 28.1371C17.0124 28.3685 17.29 28.461 17.5677 28.3685L17.7065 28.2297C17.7528 28.1834 17.7991 28.1371 17.7991 28.0445C17.8454 27.9057 17.8454 27.7669 17.7528 27.6743C17.7065 27.5818 17.5677 27.4892 17.4752 27.4429Z" fill="white"/>
<path d="M19.4146 28.2117C19.286 27.9616 18.9791 27.8631 18.7291 27.9916C18.479 28.1202 18.3805 28.4271 18.5091 28.6771C18.6376 28.9272 18.9445 29.0257 19.1946 28.8971C19.4446 28.7686 19.5431 28.4617 19.4146 28.2117Z" fill="white"/>
<path d="M20.3396 26.1366C19.5529 25.3036 18.4422 24.8408 17.3778 24.8408C16.4522 24.8408 15.6192 25.1648 15.0176 25.7664C14.5548 26.2292 14.2308 26.8308 14.1383 27.4787C13.9531 28.4969 14.8787 28.8208 15.5266 29.0985C15.9431 29.2836 16.4059 29.4224 16.7299 29.7464C17.0538 30.0703 17.1927 30.4868 17.3778 30.9496C17.6092 31.5975 17.9331 32.338 18.7661 32.338H18.9975C19.6917 32.2454 20.2933 31.9215 20.7561 31.4587C22.0519 30.0703 21.9131 27.7101 20.3396 26.1366ZM20.4322 30.3017C20.2933 30.2092 20.1082 30.1629 19.9231 30.2555C19.6917 30.3943 19.5992 30.672 19.6917 30.9496C19.6917 30.9959 19.738 31.0422 19.7843 31.0422C19.5066 31.2736 19.1364 31.4124 18.7661 31.4587C18.5347 31.505 18.4422 31.3199 18.2108 30.6257C18.2108 30.5794 18.1645 30.5794 18.1645 30.5331C18.3034 30.6257 18.5347 30.672 18.6736 30.5794C18.8587 30.4868 18.9513 30.3017 18.9513 30.1166C18.9513 30.0703 18.9513 29.9778 18.905 29.9315L18.7661 29.7927C18.6273 29.6538 18.3959 29.6538 18.2108 29.7464C18.072 29.8389 17.9794 29.9778 17.9331 30.1166C17.7943 29.7927 17.6092 29.4687 17.3315 29.1448C16.8687 28.682 16.3134 28.4969 15.8506 28.2655C15.1101 27.9878 15.0176 27.8489 15.0176 27.6638C15.0638 27.525 15.0638 27.3862 15.1101 27.2936C15.1101 27.3862 15.1101 27.4787 15.1564 27.6176C15.2952 27.8489 15.5729 27.9415 15.8506 27.8489C16.082 27.7101 16.1745 27.4324 16.082 27.1548C15.9431 26.9234 15.6655 26.8308 15.3878 26.9234L15.2489 27.0622C15.3415 26.8308 15.4803 26.6457 15.6655 26.4606C15.758 26.368 15.8969 26.2755 16.0357 26.1829C16.082 26.1829 16.1282 26.2292 16.2208 26.1829C16.2671 26.1829 16.3596 26.1829 16.4059 26.1366L16.5448 25.9978C16.591 25.9515 16.591 25.9515 16.591 25.9052C16.8224 25.8127 17.1001 25.7664 17.3778 25.7664H17.6092C17.3778 25.9052 17.2852 26.1829 17.4241 26.4143C17.5629 26.6457 17.8406 26.7383 18.1182 26.6457C18.3496 26.5069 18.4422 26.2292 18.3496 25.9515C18.3496 25.9052 18.3034 25.859 18.2571 25.859C18.6273 25.9515 18.9513 26.1366 19.2752 26.368C19.1364 26.4606 19.0438 26.6457 19.0901 26.7845C19.0901 26.8308 19.0901 26.9234 19.1364 26.9696C19.2752 27.201 19.5529 27.2936 19.8306 27.201C19.9231 27.1548 19.9694 27.1085 20.0157 27.0159C20.3859 27.4787 20.6173 27.9878 20.7099 28.4969C20.6173 28.4969 20.571 28.4969 20.4785 28.5431C20.2471 28.682 20.1545 28.9596 20.2471 29.2373C20.3396 29.4224 20.5247 29.515 20.7099 29.515C20.6173 29.7927 20.571 30.0241 20.4322 30.3017ZM14.0457 36.6882C13.9069 36.6882 13.768 36.6882 13.5829 36.6419C13.1201 36.5494 12.611 36.318 12.1483 35.994C11.9631 35.8552 11.9169 35.5312 12.0557 35.3461C12.1945 35.161 12.5185 35.1147 12.7036 35.2536C13.0276 35.5312 13.3978 35.6701 13.7217 35.7626C14.092 35.8089 14.4159 35.7626 14.6936 35.5775C15.3878 35.1147 15.8043 33.7726 15.8506 32.7545C15.8968 32.0603 15.6192 31.505 15.0176 30.9496C14.8324 30.7645 14.8324 30.4868 15.0176 30.3017C15.2027 30.1166 15.4803 30.1166 15.6655 30.3017C16.4522 31.0422 16.8224 31.8752 16.7761 32.8471C16.7299 33.7726 16.3596 35.6701 15.2027 36.4105C14.925 36.5957 14.5085 36.6882 14.0457 36.6882Z" fill="white"/>
<path d="M14.1906 34.5085C14.0518 34.5085 13.9129 34.5085 13.0336 33.7681C12.8485 33.583 12.8022 33.3053 12.9874 33.1202C13.1725 32.9351 13.4501 32.8888 13.6353 33.0739C14.1443 33.4904 14.3294 33.583 14.3757 33.6292C14.5608 33.6755 14.6997 33.8606 14.6997 34.092C14.6534 34.2772 14.4683 34.5085 14.1906 34.5085Z" fill="white"/>
<path d="M78.1223 32.1704H76.4251V39.8566C76.4251 40.8684 76.2021 41.6136 75.756 42.0923C75.31 42.571 74.728 42.8103 74.0099 42.8103C73.2375 42.8103 72.6391 42.5601 72.2148 42.0596C71.7905 41.5592 71.5784 40.8248 71.5784 39.8566V21.4488C71.5784 20.4044 71.8123 19.6483 72.2801 19.1805C72.7479 18.7127 73.504 18.4787 74.5484 18.4787H82.4305C83.5184 18.4787 84.4486 18.5277 85.221 18.6256C85.9935 18.7127 86.6898 18.8976 87.3099 19.1805C88.0605 19.496 88.7242 19.9475 89.3008 20.5349C89.8774 21.1224 90.3126 21.8078 90.6063 22.5911C90.9109 23.3636 91.0632 24.1849 91.0632 25.0553C91.0632 26.8395 90.5573 28.2647 89.5456 29.3309C88.5447 30.397 87.0216 31.1531 84.9763 31.5992C85.8357 32.0561 86.6571 32.7306 87.4404 33.6227C88.2237 34.5148 88.92 35.4668 89.5293 36.4786C90.1494 37.4795 90.6281 38.3879 90.9653 39.2038C91.3135 40.0089 91.4875 40.5637 91.4875 40.8684C91.4875 41.1839 91.3842 41.4994 91.1775 41.8149C90.9816 42.1195 90.7097 42.3588 90.3615 42.5329C90.0134 42.7178 89.6108 42.8103 89.1539 42.8103C88.61 42.8103 88.153 42.6798 87.7831 42.4187C87.4132 42.1684 87.0923 41.8475 86.8203 41.4558C86.5592 41.0642 86.2002 40.4876 85.7433 39.726L83.8013 36.4949C83.105 35.309 82.4795 34.4061 81.9246 33.7859C81.3807 33.1658 80.8258 32.7415 80.2601 32.5131C79.6944 32.2846 78.9818 32.1704 78.1223 32.1704ZM80.8965 22.1179H76.4251V28.6944H80.766C81.9301 28.6944 82.9092 28.5965 83.7034 28.4007C84.4976 28.194 85.1014 27.8513 85.5148 27.3726C85.9391 26.883 86.1512 26.2139 86.1512 25.3653C86.1512 24.7017 85.9826 24.1197 85.6453 23.6192C85.3081 23.1079 84.8403 22.7271 84.2419 22.4769C83.6762 22.2375 82.5611 22.1179 80.8965 22.1179ZM106.273 34.8467H97.5588C97.5697 35.8584 97.771 36.7505 98.1626 37.523C98.5652 38.2954 99.0928 38.8774 99.7456 39.2691C100.409 39.6608 101.138 39.8566 101.932 39.8566C102.465 39.8566 102.95 39.7967 103.385 39.6771C103.831 39.5465 104.26 39.3507 104.674 39.0896C105.087 38.8176 105.468 38.5293 105.816 38.2247C106.164 37.9201 106.616 37.5067 107.171 36.9844C107.399 36.7886 107.726 36.6907 108.15 36.6907C108.607 36.6907 108.977 36.8158 109.26 37.066C109.542 37.3163 109.684 37.6698 109.684 38.1268C109.684 38.5293 109.526 39.0026 109.211 39.5465C108.895 40.0796 108.416 40.5964 107.775 41.0968C107.144 41.5864 106.344 41.9944 105.376 42.3207C104.418 42.6471 103.314 42.8103 102.063 42.8103C99.2016 42.8103 96.9768 41.9944 95.3884 40.3625C93.8 38.7306 93.0058 36.5166 93.0058 33.7207C93.0058 32.4043 93.2017 31.1858 93.5933 30.0652C93.985 28.9338 94.5561 27.9655 95.3068 27.1604C96.0575 26.3554 96.9822 25.7407 98.081 25.3164C99.1798 24.8812 100.398 24.6636 101.736 24.6636C103.477 24.6636 104.968 25.0335 106.208 25.7733C107.459 26.5022 108.395 27.4487 109.015 28.6128C109.635 29.7769 109.945 30.9628 109.945 32.1704C109.945 33.2909 109.624 34.0198 108.982 34.3571C108.34 34.6835 107.437 34.8467 106.273 34.8467ZM97.5588 32.3172H105.637C105.528 30.7941 105.115 29.6572 104.396 28.9066C103.689 28.145 102.754 27.7642 101.59 27.7642C100.48 27.7642 99.5661 28.1505 98.848 28.9229C98.1409 29.6844 97.7111 30.8159 97.5588 32.3172ZM129.022 37.2945C129.022 37.8494 128.854 38.4423 128.517 39.0733C128.19 39.7043 127.684 40.3081 126.999 40.8847C126.324 41.4504 125.47 41.9073 124.437 42.2555C123.403 42.6036 122.239 42.7777 120.945 42.7777C118.192 42.7777 116.043 41.9781 114.499 40.3788C112.954 38.7687 112.181 36.6146 112.181 33.9165C112.181 32.0888 112.535 30.4732 113.242 29.0698C113.949 27.6663 114.972 26.5838 116.31 25.8223C117.648 25.0498 119.247 24.6636 121.108 24.6636C122.261 24.6636 123.316 24.8323 124.274 25.1695C125.242 25.5068 126.058 25.942 126.721 26.475C127.396 27.0081 127.907 27.5793 128.255 28.1885C128.614 28.7869 128.794 29.3472 128.794 29.8694C128.794 30.4025 128.593 30.854 128.19 31.2239C127.799 31.5938 127.32 31.7787 126.754 31.7787C126.384 31.7787 126.074 31.6862 125.824 31.5013C125.585 31.3055 125.313 30.9954 125.008 30.5711C124.464 29.7443 123.893 29.1241 123.294 28.7107C122.707 28.2973 121.956 28.0906 121.042 28.0906C119.726 28.0906 118.665 28.6074 117.86 29.6409C117.055 30.6636 116.653 32.067 116.653 33.8512C116.653 34.6889 116.756 35.4613 116.963 36.1685C117.169 36.8648 117.469 37.4631 117.86 37.9636C118.252 38.4532 118.725 38.8285 119.28 39.0896C119.835 39.3398 120.444 39.4649 121.108 39.4649C122 39.4649 122.761 39.2582 123.392 38.8448C124.034 38.4314 124.6 37.8004 125.09 36.9518C125.362 36.4514 125.655 36.0597 125.971 35.7768C126.286 35.494 126.673 35.3526 127.129 35.3526C127.673 35.3526 128.125 35.5593 128.484 35.9727C128.843 36.3861 129.022 36.8267 129.022 37.2945ZM143.514 40.2972C142.437 41.1349 141.393 41.7659 140.381 42.1902C139.38 42.6036 138.254 42.8103 137.003 42.8103C135.861 42.8103 134.854 42.5873 133.984 42.1412C133.125 41.6843 132.461 41.0696 131.993 40.2972C131.525 39.5248 131.291 38.6871 131.291 37.7841C131.291 36.5656 131.678 35.5266 132.45 34.6672C133.223 33.8077 134.283 33.2311 135.632 32.9373C135.915 32.8721 136.617 32.7252 137.737 32.4967C138.858 32.2683 139.815 32.0616 140.61 31.8766C141.415 31.6808 142.285 31.4469 143.221 31.1749C143.166 29.9999 142.927 29.1405 142.503 28.5965C142.089 28.0417 141.224 27.7642 139.908 27.7642C138.776 27.7642 137.922 27.922 137.346 28.2375C136.78 28.553 136.29 29.0262 135.877 29.6572C135.475 30.2882 135.186 30.7071 135.012 30.9138C134.849 31.1096 134.49 31.2075 133.935 31.2075C133.435 31.2075 132.999 31.0498 132.63 30.7343C132.271 30.4079 132.091 29.9945 132.091 29.494C132.091 28.7107 132.368 27.9492 132.923 27.2094C133.478 26.4696 134.343 25.8604 135.518 25.3817C136.693 24.903 138.156 24.6636 139.908 24.6636C141.866 24.6636 143.406 24.8975 144.526 25.3653C145.647 25.8223 146.435 26.5512 146.892 27.5521C147.36 28.553 147.594 29.8803 147.594 31.5339C147.594 32.5783 147.589 33.465 147.578 34.1939C147.578 34.9228 147.572 35.7333 147.561 36.6254C147.561 37.4631 147.697 38.3389 147.969 39.2528C148.252 40.1558 148.394 40.7378 148.394 40.9989C148.394 41.4558 148.176 41.8747 147.741 42.2555C147.317 42.6254 146.833 42.8103 146.289 42.8103C145.832 42.8103 145.38 42.5982 144.934 42.1739C144.488 41.7387 144.015 41.1131 143.514 40.2972ZM143.221 33.8512C142.568 34.0906 141.616 34.3462 140.365 34.6182C139.125 34.8793 138.265 35.0751 137.786 35.2057C137.308 35.3254 136.851 35.5701 136.416 35.94C135.98 36.2991 135.763 36.8049 135.763 37.4577C135.763 38.1322 136.018 38.7088 136.53 39.1875C137.041 39.6553 137.71 39.8892 138.537 39.8892C139.418 39.8892 140.229 39.6988 140.969 39.3181C141.719 38.9264 142.269 38.426 142.617 37.8167C143.019 37.1422 143.221 36.0325 143.221 34.4876V33.8512ZM151.462 40.1014V20.7797C151.462 19.8876 151.658 19.2131 152.05 18.7562C152.452 18.2992 152.991 18.0708 153.665 18.0708C154.34 18.0708 154.884 18.2992 155.297 18.7562C155.711 19.2022 155.917 19.8767 155.917 20.7797V40.1014C155.917 41.0044 155.705 41.6843 155.281 42.1412C154.868 42.5873 154.329 42.8103 153.665 42.8103C153.013 42.8103 152.48 42.5764 152.066 42.1086C151.664 41.6408 151.462 40.9717 151.462 40.1014ZM159.867 40.1014V20.7797C159.867 19.8876 160.063 19.2131 160.455 18.7562C160.857 18.2992 161.396 18.0708 162.07 18.0708C162.745 18.0708 163.289 18.2992 163.702 18.7562C164.116 19.2022 164.322 19.8767 164.322 20.7797V40.1014C164.322 41.0044 164.11 41.6843 163.686 42.1412C163.272 42.5873 162.734 42.8103 162.07 42.8103C161.418 42.8103 160.884 42.5764 160.471 42.1086C160.069 41.6408 159.867 40.9717 159.867 40.1014ZM171.226 42.8103C170.551 42.8103 169.969 42.5927 169.48 42.1576C168.99 41.7224 168.745 41.1131 168.745 40.3298C168.745 39.6662 168.979 39.095 169.447 38.6163C169.915 38.1377 170.492 37.8983 171.177 37.8983C171.862 37.8983 172.444 38.1377 172.923 38.6163C173.413 39.0842 173.657 39.6553 173.657 40.3298C173.657 41.1023 173.413 41.7115 172.923 42.1576C172.444 42.5927 171.879 42.8103 171.226 42.8103Z" fill="#292929"/>
<defs>
<linearGradient id="paint0_linear_1758_761" x1="6.53297" y1="3.82417" x2="52.9011" y2="54.1758" gradientUnits="userSpaceOnUse">
<stop stop-color="#01C6FF"/>
<stop offset="0.516545" stop-color="#0162FC"/>
</linearGradient>
<linearGradient id="paint1_linear_1758_761" x1="6.87886" y1="5.62816" x2="50.6535" y2="55.0309" gradientUnits="userSpaceOnUse">
<stop stop-color="#0391E4"/>
<stop offset="1" stop-color="#01ACEF"/>
</linearGradient>
</defs>
</svg>
