<svg width="37" height="36" viewBox="0 0 37 36" fill="none" xmlns="http://www.w3.org/2000/svg">
<path d="M13.0278 29.8712C24.1596 29.8712 30.2484 20.648 30.2484 12.6506C30.2484 12.388 30.2484 12.127 30.2307 11.8688C31.4154 11.0112 32.4378 9.9493 33.25 8.733C32.1453 9.2227 30.9734 9.5439 29.7734 9.68585C31.037 8.92926 31.9826 7.73936 32.4343 6.3376C31.2465 7.04248 29.947 7.53932 28.5919 7.8067C27.6795 6.8358 26.4724 6.1928 25.1576 5.97726C23.8428 5.76172 22.4936 5.98566 21.3189 6.61441C20.1442 7.24316 19.2096 8.24164 18.6597 9.45525C18.1099 10.6689 17.9754 12.0299 18.2773 13.3276C15.8709 13.207 13.5169 12.5818 11.3679 11.4924C9.21884 10.403 7.32293 8.8739 5.8032 7.0043C5.02929 8.33652 4.79222 9.91362 5.14024 11.4145C5.48826 12.9154 6.39522 14.2272 7.67645 15.0829C6.71366 15.055 5.77169 14.796 4.93 14.3277V14.4044C4.93057 15.8016 5.41438 17.1557 6.29939 18.2369C7.18439 19.3182 8.41612 20.0601 9.7857 20.3368C8.89452 20.5798 7.95949 20.6151 7.05252 20.4401C7.43921 21.6429 8.19222 22.6948 9.20621 23.4485C10.2202 24.2023 11.4444 24.6202 12.7077 24.6438C11.4526 25.63 10.0155 26.359 8.47845 26.7893C6.94141 27.2195 5.33463 27.3426 3.75 27.1513C6.51799 28.9277 9.73878 29.8699 13.0278 29.8653" fill="white"/>
</svg>
