<svg width="36" height="36" viewBox="0 0 36 36" fill="none" xmlns="http://www.w3.org/2000/svg">
<path fill-rule="evenodd" clip-rule="evenodd" d="M29.8196 7.99155C31.0896 8.3308 32.0881 9.32937 32.4274 10.5993C33.0439 12.9003 33.0469 17.7 33.0469 17.7C33.0469 17.7 33.0469 22.5011 32.4303 24.8006C32.2623 25.4257 31.9329 25.9956 31.4752 26.4533C31.0175 26.911 30.4476 27.2404 29.8225 27.4085C27.5215 28.0265 18.2969 28.0265 18.2969 28.0265C18.2969 28.0265 9.07075 28.0265 6.77122 27.4085C6.14622 27.2403 5.57636 26.9108 5.1187 26.4532C4.66103 25.9955 4.33162 25.4257 4.16342 24.8006C3.54687 22.5011 3.54688 17.7 3.54688 17.7C3.54688 17.7 3.54688 12.8989 4.16195 10.5993C4.33041 9.97448 4.65992 9.40477 5.11754 8.94714C5.57517 8.48952 6.14488 8.16001 6.76975 7.99155C9.06928 7.375 18.2939 7.375 18.2939 7.375C18.2939 7.375 27.5201 7.375 29.8196 7.99155ZM23.008 17.7L15.3469 22.125V13.275L23.008 17.7Z" fill="white"/>
</svg>
