<svg width="219" height="72" viewBox="0 0 219 72" fill="none" xmlns="http://www.w3.org/2000/svg">
<rect y="3.42188" width="66.7266" height="66.7266" rx="20.3918" fill="url(#paint0_linear_3396_8565)"/>
<path d="M47.8373 17.1316C46.9688 17.0104 45.535 17.4131 44.6026 17.677C40.2155 18.9184 35.4458 23.7914 33.3472 26.3651C32.5857 27.3344 32.1345 29.5798 32.9151 30.8303C33.2383 31.3481 33.9785 31.508 34.6069 31.6894C35.2085 31.863 36.307 31.8182 36.9197 31.6894C39.4458 31.1592 43.6638 30.3898 44.2354 30.2667C44.2767 30.2578 44.3125 30.2513 44.3541 30.2451C44.7538 30.1829 46.6768 29.716 48.646 28.678C49.0069 28.4878 49.0503 28.4531 49.7242 27.9139C50.3981 27.1053 50.6197 26.4977 50.9372 25.6227C51.7157 23.4772 51.1081 21.7141 50.8025 20.5011C50.4628 19.1533 49.3762 17.3463 47.8373 17.1316Z" fill="#89CFF0"/>
<path d="M30.4088 39.2091C28.8842 48.9238 24.657 55.1368 19.5354 55.8107C17.7833 55.9455 17.1094 55.8107 17.1094 55.8107C17.1818 53.8316 19.3793 47.9647 20.3408 41.8381C21.8651 32.1232 20.7713 19.6733 25.1821 20.3655C29.5931 21.0578 31.9332 29.4942 30.4088 39.2091Z" fill="#89CFF0"/>
<path d="M99.2394 53L91.8674 39.9794H88.708V53H82.0062V19.5867H94.5481C97.1331 19.5867 99.3351 20.0495 101.154 20.975C102.973 21.8685 104.33 23.0972 105.223 24.661C106.149 26.1928 106.611 27.9161 106.611 29.8309C106.611 32.0329 105.973 34.0275 104.697 35.8147C103.42 37.5699 101.521 38.7826 99 39.4528L106.994 53H99.2394ZM88.708 34.953H94.3087C96.1278 34.953 97.4841 34.5222 98.3777 33.6605C99.2713 32.7669 99.7181 31.5383 99.7181 29.9745C99.7181 28.4427 99.2713 27.2619 98.3777 26.4322C97.4841 25.5705 96.1278 25.1397 94.3087 25.1397H88.708V34.953ZM135.65 39.1656C135.65 40.123 135.587 40.9846 135.459 41.7505H116.072C116.231 43.6653 116.901 45.1653 118.082 46.2503C119.263 47.3354 120.715 47.8779 122.438 47.8779C124.928 47.8779 126.699 46.8088 127.752 44.6706H134.98C134.214 47.2237 132.746 49.33 130.576 50.9895C128.406 52.617 125.741 53.4308 122.582 53.4308C120.029 53.4308 117.731 52.8723 115.689 51.7554C113.678 50.6065 112.098 48.9949 110.95 46.9205C109.833 44.8461 109.274 42.4526 109.274 39.74C109.274 36.9955 109.833 34.586 110.95 32.5116C112.067 30.4373 113.63 28.8416 115.641 27.7246C117.651 26.6077 119.965 26.0492 122.582 26.0492C125.103 26.0492 127.353 26.5917 129.332 27.6768C131.342 28.7618 132.89 30.3096 133.975 32.3202C135.092 34.2988 135.65 36.5806 135.65 39.1656ZM128.709 37.2508C128.677 35.5274 128.055 34.1552 126.842 33.1339C125.63 32.0808 124.146 31.5542 122.39 31.5542C120.731 31.5542 119.327 32.0649 118.178 33.0861C117.061 34.0754 116.375 35.4636 116.12 37.2508H128.709ZM137.143 39.74C137.143 36.9955 137.702 34.602 138.819 32.5595C139.936 30.4851 141.484 28.8895 143.462 27.7725C145.441 26.6236 147.707 26.0492 150.26 26.0492C153.547 26.0492 156.26 26.8789 158.398 28.5384C160.568 30.166 162.02 32.4638 162.754 35.4317H155.526C155.143 34.2828 154.488 33.3893 153.563 32.751C152.669 32.0808 151.552 31.7457 150.212 31.7457C148.297 31.7457 146.781 32.4478 145.664 33.852C144.547 35.2243 143.989 37.1869 143.989 39.74C143.989 42.2612 144.547 44.2238 145.664 45.628C146.781 47.0003 148.297 47.6864 150.212 47.6864C152.925 47.6864 154.696 46.4737 155.526 44.0483H162.754C162.02 46.9205 160.568 49.2023 158.398 50.8937C156.228 52.5851 153.515 53.4308 150.26 53.4308C147.707 53.4308 145.441 52.8723 143.462 51.7554C141.484 50.6065 139.936 49.0108 138.819 46.9684C137.702 44.894 137.143 42.4846 137.143 39.74ZM164.265 39.6443C164.265 36.9635 164.791 34.586 165.844 32.5116C166.93 30.4373 168.382 28.8416 170.201 27.7246C172.052 26.6077 174.11 26.0492 176.376 26.0492C178.355 26.0492 180.078 26.4481 181.546 27.2459C183.046 28.0438 184.243 29.049 185.136 30.2617V26.48H191.886V53H185.136V49.1225C184.274 50.3671 183.078 51.4043 181.546 52.2341C180.046 53.0319 178.307 53.4308 176.328 53.4308C174.094 53.4308 172.052 52.8564 170.201 51.7075C168.382 50.5586 166.93 48.947 165.844 46.8726C164.791 44.7664 164.265 42.3569 164.265 39.6443ZM185.136 39.74C185.136 38.1124 184.817 36.7242 184.179 35.5753C183.54 34.3945 182.679 33.501 181.594 32.8946C180.509 32.2563 179.344 31.9372 178.099 31.9372C176.855 31.9372 175.706 32.2404 174.653 32.8467C173.599 33.4531 172.738 34.3467 172.068 35.5274C171.429 36.6763 171.11 38.0486 171.11 39.6443C171.11 41.2399 171.429 42.6441 172.068 43.8568C172.738 45.0376 173.599 45.9472 174.653 46.5854C175.738 47.2237 176.886 47.5428 178.099 47.5428C179.344 47.5428 180.509 47.2396 181.594 46.6333C182.679 45.995 183.54 45.1014 184.179 43.9526C184.817 42.7718 185.136 41.3676 185.136 39.74ZM203.458 17.5762V53H196.756V17.5762H203.458ZM215.105 17.5762V53H208.404V17.5762H215.105Z" fill="white"/>
<defs>
<linearGradient id="paint0_linear_3396_8565" x1="33.3633" y1="3.42187" x2="33.3633" y2="70.1484" gradientUnits="userSpaceOnUse">
<stop offset="0.00438132" stop-color="#F2F2F2"/>
<stop offset="0.53125" stop-color="white"/>
<stop offset="1" stop-color="white"/>
</linearGradient>
</defs>
</svg>
