<svg width="87" height="87" viewBox="0 0 87 87" fill="none" xmlns="http://www.w3.org/2000/svg">
<rect width="87" height="87" rx="15.66" fill="#E5F4FC"/>
<path d="M60.5348 22.0249C59.5587 21.8887 57.9473 22.3414 56.8993 22.6379C51.9687 24.0332 46.6081 29.5098 44.2495 32.4024C43.3937 33.4918 42.8865 36.0154 43.7639 37.4208C44.1271 38.0028 44.9591 38.1824 45.6652 38.3863C46.3414 38.5814 47.5761 38.5311 48.2647 38.3863C51.1037 37.7904 55.8442 36.9258 56.4867 36.7873C56.5331 36.7773 56.5734 36.7701 56.62 36.7631C57.0693 36.6932 59.2306 36.1685 61.4437 35.0019C61.8493 34.7881 61.8981 34.749 62.6555 34.1431C63.4129 33.2343 63.6619 32.5514 64.0188 31.568C64.8937 29.1567 64.2109 27.1752 63.8673 25.8119C63.4856 24.2971 62.2644 22.2663 60.5348 22.0249Z" fill="#89CFF0"/>
<path d="M40.9471 46.84C39.2336 57.7582 34.4827 64.741 28.7266 65.4984C26.7574 65.6499 26 65.4984 26 65.4984C26.0814 63.2741 28.5511 56.6803 29.6317 49.7947C31.3449 38.8762 30.1156 24.8839 35.0728 25.6619C40.0304 26.4399 42.6603 35.9215 40.9471 46.84Z" fill="#89CFF0"/>
</svg>
