<svg width="128" height="42" viewBox="0 0 128 42" fill="none" xmlns="http://www.w3.org/2000/svg">
<rect y="2" width="39" height="39" rx="11.9185" fill="url(#paint0_linear_3352_7185)"/>
<path d="M26.08 11.659C25.6479 11.5987 24.9346 11.7991 24.4706 11.9304C22.2879 12.548 19.9149 14.9725 18.8707 16.2529C18.4919 16.7352 18.2674 17.8524 18.6558 18.4745C18.8166 18.7322 19.1848 18.8117 19.4975 18.902C19.7968 18.9883 20.3434 18.9661 20.6482 18.902C21.905 18.6382 24.0036 18.2554 24.288 18.1941C24.3085 18.1897 24.3263 18.1865 24.347 18.1834C24.5459 18.1524 25.5027 17.9202 26.4824 17.4037C26.6619 17.3091 26.6835 17.2918 27.0188 17.0236C27.3541 16.6212 27.4643 16.3189 27.6223 15.8836C28.0097 14.8161 27.7074 13.9389 27.5553 13.3354C27.3863 12.6648 26.8457 11.7658 26.08 11.659Z" fill="white"/>
<path d="M17.406 22.6429C16.6474 27.4763 14.5443 30.5675 11.9961 30.9028C11.1243 30.9698 10.7891 30.9028 10.7891 30.9028C10.8251 29.9181 11.9184 26.9991 12.3968 23.9509C13.1552 19.1175 12.611 12.9233 14.8055 13.2677C17.0001 13.6121 18.1644 17.8094 17.406 22.6429Z" fill="white"/>
<path d="M58.0029 31L53.6942 23.3898H51.8476V31H47.9305V11.4708H55.261C56.7718 11.4708 58.0589 11.7413 59.1221 12.2822C60.1853 12.8044 60.978 13.5226 61.5003 14.4365C62.0412 15.3319 62.3116 16.3391 62.3116 17.4583C62.3116 18.7453 61.9386 19.9111 61.1925 20.9556C60.4464 21.9815 59.3366 22.6903 57.863 23.082L62.5355 31H58.0029ZM51.8476 20.452H55.1211C56.1843 20.452 56.977 20.2002 57.4993 19.6966C58.0216 19.1743 58.2827 18.4562 58.2827 17.5422C58.2827 16.6469 58.0216 15.9567 57.4993 15.4718C56.977 14.9681 56.1843 14.7163 55.1211 14.7163H51.8476V20.452ZM79.2843 22.9141C79.2843 23.4737 79.247 23.9773 79.1724 24.425H67.841C67.9342 25.5441 68.3259 26.4208 69.0161 27.055C69.7062 27.6892 70.5549 28.0063 71.5621 28.0063C73.017 28.0063 74.0523 27.3814 74.6678 26.1317H78.8926C78.4449 27.6239 77.5869 28.855 76.3185 29.8249C75.0502 30.7762 73.4927 31.2518 71.6461 31.2518C70.1539 31.2518 68.8109 30.9254 67.6171 30.2726C66.442 29.6011 65.5187 28.6591 64.8472 27.4467C64.1944 26.2343 63.868 24.8353 63.868 23.2499C63.868 21.6458 64.1944 20.2375 64.8472 19.0251C65.5001 17.8127 66.414 16.88 67.5892 16.2272C68.7643 15.5743 70.1166 15.2479 71.6461 15.2479C73.1196 15.2479 74.4346 15.565 75.5911 16.1992C76.7662 16.8334 77.6708 17.738 78.305 18.9132C78.9579 20.0696 79.2843 21.4033 79.2843 22.9141ZM75.2274 21.795C75.2087 20.7877 74.845 19.9857 74.1362 19.3888C73.4274 18.7733 72.5601 18.4655 71.5342 18.4655C70.5642 18.4655 69.7435 18.7639 69.072 19.3608C68.4192 19.939 68.0182 20.7504 67.8689 21.795H75.2274ZM80.1569 23.2499C80.1569 21.6458 80.4833 20.2468 81.1361 19.053C81.789 17.8406 82.6936 16.908 83.8501 16.2552C85.0065 15.5837 86.3309 15.2479 87.8231 15.2479C89.7443 15.2479 91.3298 15.7329 92.5795 16.7028C93.8478 17.6541 94.6965 18.9971 95.1255 20.7318H90.9007C90.6769 20.0603 90.2945 19.538 89.7536 19.165C89.2313 18.7733 88.5785 18.5774 87.7951 18.5774C86.6759 18.5774 85.7899 18.9878 85.1371 19.8085C84.4843 20.6105 84.1579 21.7577 84.1579 23.2499C84.1579 24.7234 84.4843 25.8706 85.1371 26.6913C85.7899 27.4933 86.6759 27.8944 87.7951 27.8944C89.3806 27.8944 90.4158 27.1856 90.9007 25.768H95.1255C94.6965 27.4467 93.8478 28.7803 92.5795 29.7689C91.3111 30.7575 89.7256 31.2518 87.8231 31.2518C86.3309 31.2518 85.0065 30.9254 83.8501 30.2726C82.6936 29.6011 81.789 28.6684 81.1361 27.4747C80.4833 26.2623 80.1569 24.854 80.1569 23.2499ZM96.0086 23.1939C96.0086 21.6271 96.3164 20.2375 96.9319 19.0251C97.5661 17.8127 98.4148 16.88 99.478 16.2272C100.56 15.5743 101.763 15.2479 103.087 15.2479C104.244 15.2479 105.251 15.4811 106.109 15.9474C106.986 16.4137 107.685 17.0013 108.207 17.7101V15.4997H112.152V31H108.207V28.7337C107.704 29.4612 107.004 30.0674 106.109 30.5523C105.232 31.0187 104.216 31.2518 103.059 31.2518C101.754 31.2518 100.56 30.9161 99.478 30.2446C98.4148 29.5731 97.5661 28.6311 96.9319 27.4187C96.3164 26.1876 96.0086 24.7794 96.0086 23.1939ZM108.207 23.2499C108.207 22.2986 108.021 21.4872 107.648 20.8157C107.275 20.1256 106.771 19.6033 106.137 19.2489C105.503 18.8758 104.822 18.6893 104.095 18.6893C103.367 18.6893 102.696 18.8665 102.08 19.2209C101.464 19.5753 100.961 20.0976 100.569 20.7877C100.196 21.4592 100.01 22.2613 100.01 23.1939C100.01 24.1265 100.196 24.9473 100.569 25.656C100.961 26.3462 101.464 26.8778 102.08 27.2508C102.714 27.6239 103.386 27.8104 104.095 27.8104C104.822 27.8104 105.503 27.6332 106.137 27.2788C106.771 26.9058 107.275 26.3835 107.648 25.712C108.021 25.0219 108.207 24.2011 108.207 23.2499ZM118.916 10.2957V31H114.999V10.2957H118.916ZM125.724 10.2957V31H121.807V10.2957H125.724Z" fill="#444954"/>
<defs>
<linearGradient id="paint0_linear_3352_7185" x1="19.5" y1="2" x2="19.5" y2="41" gradientUnits="userSpaceOnUse">
<stop stop-color="#89CFF0"/>
<stop offset="1" stop-color="#62BEE9"/>
</linearGradient>
</defs>
</svg>
