<svg width="12" height="12" viewBox="0 0 12 12" fill="none" xmlns="http://www.w3.org/2000/svg">
<path d="M7.85156 1.07764V1.693C7.85156 2.85334 7.85156 3.43352 8.21204 3.79398C8.57252 4.15446 9.15269 4.15446 10.313 4.15446H11.2361M11.2361 4.15446L9.69765 2.92373M11.2361 4.15446L9.69765 5.38519" stroke="#1C274C" stroke-width="0.923046" stroke-linecap="round" stroke-linejoin="round"/>
<path d="M8.24252 8.18093L8.52282 7.88586L7.85354 7.25019L7.57325 7.54526L8.24252 8.18093ZM9.44506 7.76162L10.6207 8.43834L11.0812 7.63836L9.90554 6.96165L9.44506 7.76162ZM10.8476 9.8413L9.97341 10.7616L10.6427 11.3973L11.5169 10.477L10.8476 9.8413ZM9.44746 11.0565C8.56441 11.1437 6.26031 11.0693 3.75937 8.43631L3.09012 9.07198C5.81577 11.9416 8.4158 12.0859 9.5381 11.9751L9.44746 11.0565ZM3.75937 8.43631C1.37415 5.92507 0.974051 3.80683 0.924182 2.87774L0.00246458 2.92721C0.0635395 4.06516 0.546711 6.39428 3.09012 9.07198L3.75937 8.43631ZM4.60571 4.35207L4.7822 4.16625L4.11294 3.53056L3.93645 3.71638L4.60571 4.35207ZM4.92084 1.85278L4.1449 0.755286L3.39121 1.28817L4.16718 2.38566L4.92084 1.85278ZM1.51853 0.518679L0.552656 1.53556L1.22191 2.17125L2.18779 1.15437L1.51853 0.518679ZM4.27108 4.03422C3.93645 3.71638 3.9356 3.71727 3.9356 3.71727L3.93473 3.7182L3.93294 3.72011C3.93173 3.72142 3.93048 3.72278 3.92918 3.7242C3.92661 3.72703 3.92387 3.7301 3.92099 3.73342C3.91523 3.74004 3.90891 3.74761 3.90214 3.75615C3.88862 3.77325 3.87331 3.79426 3.85726 3.81934C3.82507 3.86965 3.79015 3.93591 3.76059 4.01899C3.70046 4.18795 3.6677 4.4117 3.70864 4.69112C3.78908 5.2401 4.14879 5.97836 5.08865 6.96786L5.75792 6.33219C4.87943 5.40724 4.66301 4.83759 4.62194 4.5573C4.60212 4.42208 4.62226 4.35082 4.63022 4.32845C4.63469 4.31587 4.63762 4.31237 4.63475 4.31685C4.63337 4.31902 4.6306 4.32309 4.62595 4.32898C4.62362 4.33192 4.62082 4.33531 4.61747 4.33917C4.61579 4.34109 4.61398 4.34312 4.61203 4.34528C4.61105 4.34635 4.61003 4.34746 4.60898 4.34859L4.60738 4.35031L4.60655 4.35118C4.60655 4.35118 4.60571 4.35207 4.27108 4.03422ZM5.08865 6.96786C6.02579 7.95447 6.73352 8.34234 7.2735 8.43003C7.5506 8.47501 7.7749 8.43907 7.94474 8.37212C8.02775 8.33938 8.09341 8.30092 8.1427 8.26597C8.16732 8.2485 8.18781 8.23194 8.2043 8.21748C8.21261 8.21022 8.21987 8.20345 8.22621 8.1973C8.22941 8.19428 8.23236 8.19133 8.23507 8.18862C8.23642 8.18727 8.23772 8.18591 8.23895 8.18462L8.24079 8.18277L8.24165 8.18185C8.24165 8.18185 8.24252 8.18093 7.90788 7.86309C7.57325 7.54526 7.57411 7.5444 7.57411 7.5444L7.57491 7.54347L7.57657 7.54181C7.57768 7.5407 7.57872 7.5396 7.57971 7.53855C7.5818 7.53652 7.58377 7.53455 7.58562 7.53277C7.58931 7.5292 7.59269 7.52612 7.59565 7.52354C7.60149 7.51837 7.60586 7.51504 7.60869 7.51307C7.61448 7.50895 7.61386 7.51037 7.60605 7.51344C7.59417 7.51812 7.53823 7.53787 7.4215 7.51892C7.17375 7.47868 6.63925 7.26004 5.75792 6.33219L5.08865 6.96786ZM4.1449 0.755286C3.52117 -0.126888 2.27308 -0.27572 1.51853 0.518679L2.18779 1.15437C2.50953 0.815641 3.07593 0.842249 3.39121 1.28817L4.1449 0.755286ZM0.924182 2.87774C0.910994 2.63203 1.01799 2.38595 1.22191 2.17125L0.552656 1.53556C0.222913 1.88272 -0.0277129 2.36497 0.00246458 2.92721L0.924182 2.87774ZM9.97341 10.7616C9.80173 10.9424 9.6221 11.0393 9.44746 11.0565L9.5381 11.9751C9.99784 11.9297 10.3699 11.6846 10.6427 11.3973L9.97341 10.7616ZM4.7822 4.16625C5.37763 3.53939 5.41978 2.5584 4.92084 1.85278L4.16718 2.38566C4.42694 2.75308 4.38711 3.24191 4.11294 3.53056L4.7822 4.16625ZM10.6207 8.43834C11.1258 8.7291 11.2247 9.44433 10.8476 9.8413L11.5169 10.477C12.3199 9.63153 12.086 8.21674 11.0812 7.63836L10.6207 8.43834ZM8.52282 7.88586C8.75998 7.63615 9.12956 7.58003 9.44506 7.76162L9.90554 6.96165C9.22956 6.57255 8.39119 6.68412 7.85354 7.25019L8.52282 7.88586Z" fill="#1C274C"/>
</svg>
