<svg width="14" height="14" viewBox="0 0 14 14" fill="none" xmlns="http://www.w3.org/2000/svg">
<path d="M12.8555 7.0486V7.95027C12.8555 10.2626 12.8555 11.4188 12.161 12.1371C11.4665 12.8555 10.3487 12.8555 8.11328 12.8555H5.74219C3.5067 12.8555 2.38896 12.8555 1.69448 12.1371C1 11.4188 1 10.2626 1 7.95027V7.0486C1 5.69209 1 5.01383 1.30777 4.45157C1.61554 3.8893 2.17781 3.54034 3.30235 2.84242L4.4879 2.10663C5.67662 1.36888 6.271 1 6.92773 1C7.58447 1 8.17884 1.36888 9.36759 2.10663L10.5531 2.84241C11.6777 3.54034 12.2399 3.8893 12.5477 4.45157" stroke="#1C274C" stroke-width="0.88916" stroke-linecap="round"/>
<path d="M8.70508 10.4844H5.14844" stroke="#1C274C" stroke-width="0.88916" stroke-linecap="round"/>
</svg>
    