<svg width="14" height="13" viewBox="0 0 14 13" fill="none" xmlns="http://www.w3.org/2000/svg">
<mask id="path-1-inside-1_2215_4605" fill="white">
<path d="M0.543846 11.916C0.472349 11.9157 0.401502 11.9296 0.335392 11.9568C0.269282 11.9841 0.209217 12.0241 0.15866 12.0747C0.108103 12.1252 0.0680549 12.1853 0.0408246 12.2514C0.0135944 12.3175 -0.000279102 12.3884 4.25446e-06 12.4599C0.000249385 12.531 0.0145128 12.6014 0.0419795 12.6671C0.0694463 12.7327 0.109578 12.7923 0.160082 12.8425C0.210586 12.8926 0.270473 12.9323 0.336321 12.9593C0.402168 12.9862 0.472686 13 0.543846 12.9997H12.4602C12.5313 13 12.6018 12.9862 12.6677 12.9592C12.7335 12.9323 12.7934 12.8926 12.8439 12.8424C12.8944 12.7923 12.9345 12.7327 12.962 12.6671C12.9895 12.6014 13.0037 12.531 13.004 12.4599C13.0043 12.3884 12.9904 12.3175 12.9632 12.2514C12.9359 12.1853 12.8959 12.1252 12.8453 12.0747C12.7948 12.0241 12.7347 11.9841 12.6686 11.9568C12.6025 11.9296 12.5317 11.9157 12.4602 11.916H0.543846Z"/>
</mask>
<path d="M0.543846 11.916L0.535732 13.9634H0.543846V11.916ZM4.25446e-06 12.4599L2.04736 12.4528L2.04736 12.4517L4.25446e-06 12.4599ZM0.543846 12.9997L0.543846 10.9523L0.535736 10.9523L0.543846 12.9997ZM12.4602 12.9997L12.4682 10.9523H12.4602V12.9997ZM13.004 12.4599L10.9566 12.4517L10.9566 12.4528L13.004 12.4599ZM12.4602 11.916L12.4602 13.9634L12.4682 13.9634L12.4602 11.916ZM0.55196 9.86867C0.210235 9.86731 -0.128378 9.93362 -0.444352 10.0638L1.11514 13.8499C0.931382 13.9256 0.734463 13.9642 0.535732 13.9634L0.55196 9.86867ZM-0.444352 10.0638C-0.760328 10.1939 -1.04741 10.3853 -1.28905 10.627L1.60637 13.5224C1.46585 13.6629 1.29889 13.7742 1.11514 13.8499L-0.444352 10.0638ZM-1.28905 10.627C-1.53069 10.8686 -1.7221 11.1557 -1.85225 11.4717L1.93389 13.0312C1.85821 13.2149 1.74689 13.3819 1.60637 13.5224L-1.28905 10.627ZM-1.85225 11.4717C-1.98239 11.7876 -2.0487 12.1263 -2.04735 12.468L2.04736 12.4517C2.04814 12.6505 2.00958 12.8474 1.93389 13.0312L-1.85225 11.4717ZM-2.04735 12.4669C-2.04618 12.807 -1.97801 13.1436 -1.84673 13.4573L1.93069 11.8768C2.00703 12.0593 2.04668 12.255 2.04736 12.4528L-2.04735 12.4669ZM-1.84673 13.4573C-1.71545 13.7711 -1.52364 14.0559 -1.28225 14.2955L1.60242 11.3894C1.7428 11.5287 1.85434 11.6944 1.93069 11.8768L-1.84673 13.4573ZM-1.28225 14.2955C-1.04087 14.5351 -0.754642 14.7248 -0.439919 14.8538L1.11256 11.0647C1.29559 11.1397 1.46204 11.2501 1.60242 11.3894L-1.28225 14.2955ZM-0.439919 14.8538C-0.125202 14.9827 0.211842 15.0484 0.551957 15.047L0.535736 10.9523C0.733531 10.9516 0.929538 10.9898 1.11256 11.0647L-0.439919 14.8538ZM0.543846 15.0471H12.4602V10.9523H0.543846V15.0471ZM12.4521 15.047C12.7922 15.0484 13.1293 14.9827 13.444 14.8537L11.8914 11.0648C12.0744 10.9898 12.2704 10.9516 12.4682 10.9523L12.4521 15.047ZM13.444 14.8537C13.7587 14.7248 14.0449 14.5351 14.2863 14.2955L11.4015 11.3894C11.5419 11.2501 11.7084 11.1398 11.8914 11.0648L13.444 14.8537ZM14.2863 14.2955C14.5277 14.0559 14.7195 13.7711 14.8507 13.4573L11.0733 11.8768C11.1496 11.6944 11.2612 11.5288 11.4015 11.3894L14.2863 14.2955ZM14.8507 13.4573C14.982 13.1436 15.0502 12.807 15.0513 12.4669L10.9566 12.4528C10.9573 12.255 10.997 12.0593 11.0733 11.8768L14.8507 13.4573ZM15.0513 12.468C15.0527 12.1263 14.9864 11.7877 14.8562 11.4717L11.0701 13.0311C10.9944 12.8474 10.9558 12.6505 10.9566 12.4517L15.0513 12.468ZM14.8562 11.4717C14.7261 11.1557 14.5347 10.8686 14.2931 10.627L11.3976 13.5224C11.2571 13.3818 11.1458 13.2149 11.0701 13.0311L14.8562 11.4717ZM14.2931 10.627C14.0514 10.3854 13.7644 10.1939 13.4484 10.0638L11.8888 13.8499C11.7051 13.7742 11.5381 13.6629 11.3976 13.5224L14.2931 10.627ZM13.4484 10.0638C13.1324 9.93364 12.7938 9.86733 12.4521 9.86867L12.4682 13.9634C12.2695 13.9642 12.0726 13.9256 11.8888 13.8499L13.4484 10.0638ZM12.4602 9.86865H0.543846V13.9634H12.4602V9.86865Z" fill="#1C274C" mask="url(#path-1-inside-1_2215_4605)"/>
<path d="M1.62976 12.5936L1.62821 12.5936C1.61043 12.5937 1.5928 12.5902 1.57635 12.5835C1.5599 12.5768 1.54493 12.5668 1.53231 12.5543C1.51969 12.5418 1.50967 12.5269 1.5028 12.5105C1.496 12.4942 1.49244 12.4768 1.49231 12.4592V9.4251C1.49231 8.93862 1.89908 8.53186 2.38552 8.53186H3.03732C3.52378 8.53186 3.93056 8.93863 3.93056 9.4251V12.4592C3.9303 12.4948 3.91606 12.5288 3.89091 12.554C3.86576 12.5791 3.83173 12.5933 3.79618 12.5936L1.62976 12.5936Z" stroke="#1C274C" stroke-width="0.812749"/>
<path d="M5.28137 7.58183C5.28137 7.09535 5.68815 6.6886 6.17461 6.6886H6.82239C7.30886 6.6886 7.71563 7.09535 7.71563 7.58183V12.4594C7.71537 12.4949 7.70113 12.529 7.67598 12.5541C7.65083 12.5793 7.6168 12.5935 7.58125 12.5938H5.41575C5.3802 12.5935 5.34617 12.5793 5.32102 12.5541C5.29587 12.529 5.28163 12.4949 5.28137 12.4594V7.58183Z" stroke="#1C274C" stroke-width="0.812749"/>
<path d="M9.20391 13.0001H11.3712C11.4424 13.0004 11.5129 12.9866 11.5788 12.9597C11.6446 12.9327 11.7045 12.893 11.755 12.8429C11.8055 12.7927 11.8456 12.7331 11.8731 12.6675C11.9006 12.6019 11.9148 12.5314 11.9151 12.4603M9.20391 13.0001L9.20534 12.5937C9.20519 12.5937 9.20503 12.5937 9.20488 12.5937M9.20391 13.0001C9.06089 12.9996 8.92387 12.9426 8.82274 12.8415C8.72161 12.7403 8.66457 12.6033 8.66406 12.4603M9.20391 13.0001V12.5937H9.20488M9.20488 12.5937H11.3712H11.3728C11.3906 12.5938 11.4082 12.5904 11.4247 12.5836C11.4411 12.5769 11.4561 12.567 11.4687 12.5544C11.4813 12.5419 11.4913 12.527 11.4982 12.5106C11.505 12.4944 11.5086 12.477 11.5087 12.4593M9.20488 12.5937C9.16931 12.5935 9.13525 12.5793 9.11009 12.5541C9.08493 12.5289 9.07069 12.4949 9.07044 12.4593M11.5087 12.4593V12.4603H11.9151M11.5087 12.4593V5.9583C11.5087 5.47344 11.0996 5.06507 10.6115 5.06507H9.96367C9.47721 5.06507 9.07044 5.47183 9.07044 5.9583V12.4593M11.5087 12.4593C11.5087 12.4592 11.5087 12.459 11.5087 12.4588L11.9151 12.4603M11.9151 12.4603V5.9583C11.9151 5.24739 11.3224 4.65869 10.6115 4.65869H9.96367C9.25278 4.65869 8.66406 5.24739 8.66406 5.9583V12.4603M8.66406 12.4603L9.07043 12.4588C9.07044 12.459 9.07044 12.4592 9.07044 12.4593M8.66406 12.4603H9.07044V12.4593" stroke="#1C274C" stroke-width="0.812749"/>
<mask id="path-6-inside-2_2215_4605" fill="white">
<path d="M9.45826 2.00622e-08C9.31514 0.000278098 9.17795 0.0571826 9.07665 0.158284C8.97535 0.259385 8.91817 0.396466 8.91761 0.539583C8.91734 0.610809 8.93111 0.681391 8.95814 0.747289C8.98517 0.813186 9.02493 0.873106 9.07515 0.923617C9.12537 0.974129 9.18505 1.01424 9.25079 1.04166C9.31653 1.06908 9.38703 1.08326 9.45826 1.0834H10.0179C6.95424 3.71741 3.74633 5.35362 0.440864 5.9661C0.299957 5.9928 0.175386 6.07428 0.094467 6.19268C0.0135478 6.31109 -0.0171158 6.45675 0.00919986 6.59773C0.0349619 6.73854 0.115413 6.86343 0.232973 6.94511C0.350533 7.02679 0.495644 7.05861 0.636596 7.03363C4.19564 6.37417 7.62008 4.60567 10.8337 1.8166V2.45458C10.8334 2.52571 10.8471 2.59621 10.8741 2.66204C10.9011 2.72786 10.9407 2.78774 10.9908 2.83823C11.0409 2.88873 11.1005 2.92887 11.1661 2.95635C11.2317 2.98383 11.3021 2.99811 11.3732 2.99839C11.4447 2.99867 11.5156 2.9848 11.5817 2.95757C11.6478 2.93034 11.7079 2.89029 11.7584 2.83974C11.809 2.78918 11.849 2.72912 11.8762 2.66302C11.9035 2.59691 11.9173 2.52607 11.9171 2.45458V0.859101C11.9172 0.391564 11.5213 -0.000102348 11.0537 2.00622e-08H9.45826Z"/>
</mask>
<path d="M9.45826 2.00622e-08L9.45826 -2.04737L9.45428 -2.04736L9.45826 2.00622e-08ZM8.91761 0.539583L10.965 0.547583L10.965 0.547578L8.91761 0.539583ZM9.45826 1.0834L9.45428 3.13077H9.45826V1.0834ZM10.0179 1.0834L11.3527 2.63588L15.5398 -0.963969H10.0179V1.0834ZM0.440864 5.9661L0.0678489 3.95298L0.0597435 3.95452L0.440864 5.9661ZM0.00919986 6.59773L2.02315 6.22927L2.0218 6.22205L0.00919986 6.59773ZM0.636596 7.03363L0.993916 9.04957L1.00177 9.04818L1.0096 9.04673L0.636596 7.03363ZM10.8337 1.8166H12.881V-2.67125L9.49169 0.27037L10.8337 1.8166ZM10.8337 2.45458L12.881 2.46259V2.45458H10.8337ZM11.3732 2.99839L11.3813 0.951039L11.3812 0.951038L11.3732 2.99839ZM11.9171 2.45458L9.86968 2.45458L9.86971 2.46259L11.9171 2.45458ZM11.9171 0.859101L9.86969 0.85865V0.859101H11.9171ZM11.0537 2.00622e-08L11.0537 2.04737L11.0542 2.04737L11.0537 2.00622e-08ZM9.45428 -2.04736C8.77024 -2.04603 8.11452 -1.77406 7.63036 -1.29084L10.5229 1.60741C10.2414 1.88842 9.86004 2.04659 9.46223 2.04736L9.45428 -2.04736ZM7.63036 -1.29084C7.14619 -0.807628 6.87293 -0.152446 6.87026 0.531589L10.965 0.547578C10.9634 0.945377 10.8045 1.3264 10.5229 1.60741L7.63036 -1.29084ZM6.87026 0.531583C6.86893 0.872002 6.93475 1.20935 7.06395 1.52432L10.8523 -0.0297383C10.9275 0.153433 10.9657 0.349617 10.965 0.547583L6.87026 0.531583ZM7.06395 1.52432C7.19316 1.83928 7.38321 2.12567 7.62321 2.36708L10.5271 -0.519849C10.6667 -0.379456 10.7772 -0.21291 10.8523 -0.0297383L7.06395 1.52432ZM7.62321 2.36708C7.86323 2.60851 8.1485 2.80023 8.4627 2.93127L10.0389 -0.847949C10.2216 -0.771741 10.3875 -0.660247 10.5271 -0.519849L7.62321 2.36708ZM8.4627 2.93127C8.77689 3.06231 9.11385 3.1301 9.45428 3.13076L9.46223 -0.963965C9.66021 -0.96358 9.85617 -0.924155 10.0389 -0.847949L8.4627 2.93127ZM9.45826 3.13077H10.0179V-0.963969H9.45826V3.13077ZM8.6832 -0.469078C5.83802 1.97706 2.95177 3.41863 0.0678519 3.953L0.813876 7.9792C4.54089 7.28861 8.07046 5.45776 11.3527 2.63588L8.6832 -0.469078ZM0.0597435 3.95452C-0.613725 4.08212 -1.20911 4.47157 -1.59587 5.03749L1.7848 7.34788C1.55989 7.67699 1.21364 7.90348 0.821984 7.97768L0.0597435 3.95452ZM-1.59587 5.03749C-1.98262 5.60341 -2.12918 6.2996 -2.00341 6.97341L2.0218 6.22205C2.09495 6.6139 2.00972 7.01877 1.7848 7.34788L-1.59587 5.03749ZM-2.00474 6.96619C-1.88161 7.6392 -1.49709 8.23612 -0.93521 8.6265L1.40116 5.26372C1.72792 5.49075 1.95153 5.83788 2.02314 6.22927L-2.00474 6.96619ZM-0.93521 8.6265C-0.373327 9.01688 0.320234 9.16898 0.993916 9.04957L0.279276 5.01768C0.671054 4.94824 1.07439 5.0367 1.40116 5.26372L-0.93521 8.6265ZM1.0096 9.04673C4.99346 8.30856 8.74197 6.34291 12.1756 3.36282L9.49169 0.27037C6.49819 2.86844 3.39783 4.43978 0.263587 5.02053L1.0096 9.04673ZM8.7863 1.8166V2.45458H12.881V1.8166H8.7863ZM8.78631 2.44656C8.78498 2.78658 8.85064 3.12351 8.97952 3.43813L12.7687 1.88595C12.8436 2.06891 12.8818 2.26485 12.881 2.46259L8.78631 2.44656ZM8.97952 3.43813C9.1084 3.75275 9.29799 4.03891 9.53747 4.28027L12.4442 1.3962C12.5835 1.53656 12.6937 1.70298 12.7687 1.88595L8.97952 3.43813ZM9.53747 4.28027C9.77695 4.52163 10.0616 4.71345 10.3752 4.84479L11.957 1.0679C12.1394 1.14428 12.3049 1.25584 12.4442 1.3962L9.53747 4.28027ZM10.3752 4.84479C10.6888 4.97613 11.0253 5.04442 11.3653 5.04574L11.3812 0.951038C11.579 0.95181 11.7746 0.991519 11.957 1.0679L10.3752 4.84479ZM11.3652 5.04574C11.7069 5.04708 12.0455 4.98076 12.3615 4.85062L10.8019 1.06451C10.9856 0.988826 11.1825 0.95026 11.3813 0.951039L11.3652 5.04574ZM12.3615 4.85062C12.6774 4.72047 12.9645 4.52907 13.2061 4.28745L10.3107 1.39203C10.4512 1.2515 10.6182 1.1402 10.8019 1.06451L12.3615 4.85062ZM13.2061 4.28745C13.4477 4.04582 13.6391 3.75876 13.7693 3.44281L9.98319 1.88322C10.0589 1.69948 10.1702 1.53254 10.3107 1.39203L13.2061 4.28745ZM13.7693 3.44281C13.8994 3.12685 13.9658 2.78826 13.9644 2.44656L9.86971 2.46259C9.86893 2.26388 9.9075 2.06697 9.98319 1.88322L13.7693 3.44281ZM13.9644 2.45458V0.859101H9.86969V2.45458H13.9644ZM13.9644 0.859552C13.9648 -0.75207 12.6388 -2.04771 11.0533 -2.04737L11.0542 2.04737C10.4037 2.04751 9.86955 1.5352 9.86969 0.85865L13.9644 0.859552ZM11.0537 -2.04737H9.45826V2.04737H11.0537V-2.04737Z" fill="#1C274C" mask="url(#path-6-inside-2_2215_4605)"/>
</svg>
