<svg width="13" height="13" viewBox="0 0 13 13" fill="none" xmlns="http://www.w3.org/2000/svg">
<path d="M11.5039 11.9998L11.5039 11.9996L11.5039 11.9998Z" stroke="#1C274C" stroke-width="1.88993"/>
<path d="M1.502 12.125L1.50057 12.125C1.48415 12.1251 1.46789 12.1219 1.4527 12.1157C1.43751 12.1095 1.4237 12.1003 1.41205 12.0887C1.4004 12.0772 1.39114 12.0634 1.38481 12.0483C1.37853 12.0333 1.37524 12.0172 1.37512 12.0009V9.20016C1.37512 8.75109 1.75061 8.37561 2.19965 8.37561H2.80133C3.25037 8.37561 3.62587 8.7511 3.62587 9.20016V12.0009C3.62564 12.0338 3.61249 12.0652 3.58927 12.0884C3.56605 12.1116 3.53462 12.1248 3.5018 12.125L1.502 12.125Z" stroke="#1C274C" stroke-width="0.750249"/>
<path d="M4.87512 7.4985C4.87512 7.04942 5.25062 6.67395 5.69967 6.67395H6.29764C6.74669 6.67395 7.12218 7.04942 7.12218 7.4985V12.0009C7.12195 12.0338 7.10881 12.0652 7.08559 12.0884C7.06236 12.1116 7.03094 12.1248 6.99811 12.125H4.9992C4.96637 12.1248 4.93495 12.1116 4.91172 12.0884C4.8885 12.0652 4.87536 12.0338 4.87512 12.0009V7.4985Z" stroke="#1C274C" stroke-width="0.750249"/>
<path d="M8.49834 12.5003H10.499C10.5647 12.5005 10.6298 12.4878 10.6906 12.4629C10.7513 12.438 10.8066 12.4014 10.8532 12.3551C10.8999 12.3088 10.9369 12.2538 10.9623 12.1932C10.9876 12.1326 11.0008 12.0676 11.001 12.002M8.49834 12.5003L8.49965 12.1251C8.49952 12.1251 8.4994 12.1251 8.49927 12.1251M8.49834 12.5003C8.36631 12.4998 8.23983 12.4472 8.14648 12.3538C8.05312 12.2605 8.00047 12.134 8 12.002M8.49834 12.5003V12.1251H8.49927M8.49927 12.1251H10.499H10.5004C10.5169 12.1252 10.5331 12.122 10.5483 12.1158C10.5635 12.1096 10.5773 12.1004 10.589 12.0889C10.6006 12.0773 10.6099 12.0636 10.6162 12.0484C10.6225 12.0334 10.6258 12.0173 10.6259 12.0011M8.49927 12.1251C8.46642 12.1249 8.43496 12.1118 8.41173 12.0885C8.3885 12.0653 8.37536 12.0339 8.37512 12.0011M10.6259 12.0011V12.002H11.001M10.6259 12.0011V5.99996C10.6259 5.55239 10.2482 5.17542 9.79766 5.17542H9.19967C8.75062 5.17542 8.37512 5.5509 8.37512 5.99996V12.0011M10.6259 12.0011C10.6259 12.0009 10.6259 12.0008 10.6259 12.0006L11.001 12.002M11.001 12.002V5.99996C11.001 5.34372 10.4539 4.80029 9.79766 4.80029H9.19967C8.54345 4.80029 8 5.34372 8 5.99996V12.002M8 12.002L8.37512 12.0006C8.37512 12.0008 8.37512 12.0009 8.37512 12.0011M8 12.002H8.37512V12.0011" stroke="#1C274C" stroke-width="0.750249"/>
<mask id="path-5-inside-1_2215_4612" fill="white">
<path d="M8.73092 0.5C8.59881 0.500257 8.47217 0.552785 8.37866 0.646112C8.28515 0.739438 8.23237 0.865978 8.23185 0.99809C8.2316 1.06384 8.24431 1.12899 8.26926 1.18982C8.29422 1.25065 8.33092 1.30596 8.37728 1.35259C8.42363 1.39922 8.47873 1.43625 8.53941 1.46156C8.60009 1.48687 8.66517 1.49996 8.73092 1.50009H9.24757C6.41946 3.93154 3.45824 5.44193 0.406962 6.00731C0.27689 6.03195 0.161899 6.10717 0.0872025 6.21647C0.012506 6.32577 -0.0157996 6.46023 0.0084924 6.59037C0.0322733 6.72035 0.106538 6.83564 0.215058 6.91103C0.323577 6.98643 0.457529 7.01581 0.587642 6.99275C3.873 6.384 7.0341 4.7515 10.0006 2.1769V2.76582C10.0003 2.83149 10.013 2.89656 10.0379 2.95733C10.0628 3.01809 10.0994 3.07336 10.1456 3.11998C10.1919 3.16659 10.2469 3.20364 10.3074 3.22901C10.368 3.25437 10.433 3.26756 10.4986 3.26782C10.5646 3.26807 10.63 3.25527 10.6911 3.23013C10.7521 3.20499 10.8075 3.16803 10.8542 3.12136C10.9009 3.07469 10.9378 3.01925 10.963 2.95823C10.9881 2.89721 11.0009 2.83182 11.0006 2.76582V1.29304C11.0007 0.861453 10.6353 0.499906 10.2037 0.5H8.73092Z"/>
</mask>
<path d="M8.73092 0.5L8.73092 -1.38993L8.72725 -1.38992L8.73092 0.5ZM8.23185 0.99809L10.1218 1.00547L10.1218 1.00547L8.23185 0.99809ZM8.73092 1.50009L8.72725 3.39001H8.73092V1.50009ZM9.24757 1.50009L10.4797 2.93318L14.3448 -0.38984L9.24757 -0.38984V1.50009ZM0.406962 6.00731L0.0626314 4.149L0.0551493 4.15042L0.406962 6.00731ZM0.0084924 6.59037L1.86757 6.25024L1.86633 6.24358L0.0084924 6.59037ZM0.587642 6.99275L0.917484 8.85367L0.924731 8.85238L0.931967 8.85104L0.587642 6.99275ZM10.0006 2.1769H11.8905V-1.96583L8.76178 0.749578L10.0006 2.1769ZM10.0006 2.76582L11.8905 2.77322V2.76582H10.0006ZM10.4986 3.26782L10.5061 1.3779L10.506 1.3779L10.4986 3.26782ZM11.0006 2.76582L9.11071 2.76582L9.11074 2.77322L11.0006 2.76582ZM11.0006 1.29304L9.11072 1.29262V1.29304H11.0006ZM10.2037 0.5L10.2037 2.38993L10.2041 2.38993L10.2037 0.5ZM8.72725 -1.38992C8.09581 -1.3887 7.49052 -1.13763 7.04359 -0.691578L9.71372 1.9838C9.45381 2.2432 9.10181 2.38921 8.73459 2.38992L8.72725 -1.38992ZM7.04359 -0.691578C6.59666 -0.245522 6.34441 0.359277 6.34194 0.99071L10.1218 1.00547C10.1203 1.37268 9.97364 1.7244 9.71372 1.9838L7.04359 -0.691578ZM6.34194 0.990705C6.34071 1.30495 6.40147 1.61635 6.52074 1.9071L10.0178 0.472548C10.0871 0.641634 10.1225 0.822732 10.1218 1.00547L6.34194 0.990705ZM6.52074 1.9071C6.64001 2.19784 6.81544 2.4622 7.03699 2.68506L9.71756 0.0201271C9.8464 0.149724 9.94843 0.303463 10.0178 0.472548L6.52074 1.9071ZM7.03699 2.68506C7.25855 2.90791 7.52188 3.08489 7.81192 3.20585L9.2669 -0.282742C9.43557 -0.212395 9.58871 -0.109474 9.71756 0.0201271L7.03699 2.68506ZM7.81192 3.20585C8.10195 3.32682 8.413 3.3894 8.72725 3.39001L8.73459 -0.389837C8.91735 -0.389481 9.09823 -0.353088 9.2669 -0.282742L7.81192 3.20585ZM8.73092 3.39001H9.24757V-0.38984H8.73092V3.39001ZM8.01547 0.0669934C5.38908 2.32502 2.72478 3.65574 0.0626342 4.14901L0.751289 7.8656C4.1917 7.22812 7.44985 5.53806 10.4797 2.93318L8.01547 0.0669934ZM0.0551493 4.15042C-0.56653 4.2682 -1.11613 4.62771 -1.47315 5.15011L1.64755 7.28283C1.43993 7.58663 1.12031 7.7957 0.758774 7.8642L0.0551493 4.15042ZM-1.47315 5.15011C-1.83016 5.67251 -1.96545 6.31516 -1.84934 6.93716L1.86633 6.24358C1.93385 6.6053 1.85517 6.97903 1.64755 7.28283L-1.47315 5.15011ZM-1.85058 6.93049C-1.73691 7.55175 -1.38197 8.10276 -0.863293 8.46312L1.29341 5.35894C1.59504 5.56851 1.80146 5.88895 1.86756 6.25024L-1.85058 6.93049ZM-0.863293 8.46312C-0.344619 8.82348 0.295608 8.96389 0.917484 8.85367L0.2578 5.13182C0.619451 5.06772 0.991773 5.14938 1.29341 5.35894L-0.863293 8.46312ZM0.931967 8.85104C4.60946 8.16964 8.06972 6.35514 11.2393 3.60423L8.76178 0.749578C5.99848 3.14785 3.13654 4.59836 0.243317 5.13445L0.931967 8.85104ZM8.11063 2.1769V2.76582H11.8905V2.1769H8.11063ZM8.11065 2.75842C8.10942 3.07229 8.17003 3.38331 8.289 3.67374L11.7868 2.24092C11.8559 2.40981 11.8912 2.59068 11.8905 2.77322L8.11065 2.75842ZM8.289 3.67374C8.40797 3.96417 8.58298 4.22832 8.80405 4.45112L11.4872 1.78883C11.6158 1.9184 11.7176 2.07202 11.7868 2.24092L8.289 3.67374ZM8.80405 4.45112C9.02511 4.67392 9.28788 4.85099 9.57738 4.97223L11.0375 1.48578C11.2059 1.55629 11.3587 1.65926 11.4872 1.78883L8.80405 4.45112ZM9.57738 4.97223C9.86688 5.09347 10.1774 5.1565 10.4913 5.15773L10.506 1.3779C10.6885 1.37862 10.8691 1.41527 11.0375 1.48578L9.57738 4.97223ZM10.4912 5.15773C10.8067 5.15896 11.1192 5.09775 11.4109 4.97761L9.97124 1.48265C10.1409 1.41279 10.3226 1.37719 10.5061 1.3779L10.4912 5.15773ZM11.4109 4.97761C11.7025 4.85747 11.9675 4.68079 12.1906 4.45774L9.51781 1.78498C9.64753 1.65526 9.80163 1.55252 9.97124 1.48265L11.4109 4.97761ZM12.1906 4.45774C12.4136 4.2347 12.5903 3.96971 12.7104 3.67806L9.21549 2.2384C9.28535 2.0688 9.3881 1.91469 9.51781 1.78498L12.1906 4.45774ZM12.7104 3.67806C12.8306 3.38639 12.8918 3.07384 12.8906 2.75842L9.11074 2.77322C9.11002 2.58979 9.14562 2.40802 9.21549 2.2384L12.7104 3.67806ZM12.8906 2.76582V1.29304H9.11072V2.76582H12.8906ZM12.8906 1.29345C12.8909 -0.194236 11.6669 -1.39025 10.2033 -1.38993L10.2041 2.38993C9.60364 2.39006 9.11058 1.91714 9.11072 1.29262L12.8906 1.29345ZM10.2037 -1.38993H8.73092V2.38993H10.2037V-1.38993Z" fill="#1C274C" mask="url(#path-5-inside-1_2215_4612)"/>
</svg>
