<svg width="14" height="14" viewBox="0 0 14 14" fill="none" xmlns="http://www.w3.org/2000/svg">
<path d="M11.6792 8.55708L13.4193 7.9125L13.4123 6.04116L11.6646 5.40825C11.5935 5.19859 11.5083 4.99396 11.4097 4.79575L12.1849 3.10816L10.8567 1.78983L9.17319 2.57791C8.97462 2.47934 8.7696 2.39437 8.55952 2.32358L7.91494 0.583496L6.0436 0.590496L5.41069 2.33816C5.20105 2.40934 4.99642 2.4945 4.79819 2.59308L3.1106 1.81783L1.79227 3.1455L2.58035 4.83016C2.48176 5.02871 2.39678 5.23374 2.32602 5.44383L0.585938 6.08783L0.592937 7.95916L2.3406 8.59208C2.41174 8.80173 2.49691 9.00636 2.59552 9.20458L1.82027 10.8922L3.14794 12.2105L4.83202 11.4224C5.03058 11.521 5.2356 11.606 5.44569 11.6767L6.09027 13.4168L7.9616 13.4098L8.59452 11.6622C8.80416 11.591 9.00879 11.5058 9.20702 11.4072L10.8946 12.1825L12.2129 10.8548L11.4249 9.17075C11.5234 8.97219 11.6084 8.76716 11.6792 8.55708ZM11.5118 10.7329L10.768 11.4825L9.19652 10.7603L8.94627 10.8857C8.77097 10.9724 8.59013 11.0475 8.40494 11.1103L8.14127 11.2013L7.5521 12.8282L6.49627 12.8323L5.89544 11.2112L5.62944 11.1232C5.44451 11.0606 5.26404 10.9856 5.08927 10.8986L4.83844 10.7761L3.27044 11.5093L2.52027 10.7656L3.24302 9.1935L3.11702 8.94266C3.03007 8.7678 2.95485 8.58734 2.89185 8.4025L2.80144 8.13883L1.17394 7.54966L1.17102 6.49383L2.79094 5.893L2.8796 5.627C2.94205 5.44192 3.01689 5.26126 3.1036 5.08625L3.22727 4.83541L2.49344 3.26741L3.23719 2.51783L4.80869 3.24L5.05894 3.11458C5.23424 3.02788 5.41508 2.95285 5.60027 2.89L5.86394 2.799L6.4531 1.17208L7.50894 1.168L8.10977 2.78908L8.37577 2.87716C8.56053 2.93966 8.74081 3.0147 8.91535 3.10175L9.16619 3.22483L10.7359 2.491L11.4855 3.23475L10.7628 4.80683L10.8888 5.05766C10.9757 5.23253 11.0509 5.41298 11.1139 5.59783L11.2044 5.8615L12.8319 6.45066L12.8348 7.5065L11.2149 8.10733L11.1262 8.37333C11.0637 8.5584 10.9889 8.73906 10.9022 8.91408L10.7785 9.16491L11.5118 10.7329ZM7.0026 4.20016C6.44882 4.20016 5.90746 4.36438 5.44701 4.67205C4.98655 4.97972 4.62767 5.41702 4.41574 5.92865C4.20382 6.44028 4.14837 7.00327 4.25641 7.54642C4.36444 8.08956 4.63112 8.58847 5.02271 8.98006C5.41429 9.37165 5.9132 9.63832 6.45635 9.74636C6.9995 9.8544 7.56248 9.79895 8.07412 9.58703C8.58575 9.3751 9.02305 9.01622 9.33072 8.55576C9.63839 8.0953 9.8026 7.55395 9.8026 7.00016C9.8026 6.25756 9.5076 5.54537 8.9825 5.02026C8.4574 4.49516 7.74521 4.20016 7.0026 4.20016ZM7.0026 9.21683C6.56419 9.21683 6.13562 9.08682 5.77109 8.84325C5.40656 8.59968 5.12245 8.25349 4.95467 7.84844C4.7869 7.4434 4.743 6.9977 4.82853 6.56771C4.91406 6.13772 5.12518 5.74275 5.43518 5.43274C5.74519 5.12274 6.14016 4.91162 6.57015 4.82609C7.00014 4.74056 7.44584 4.78446 7.85089 4.95223C8.25593 5.12 8.60212 5.40412 8.8457 5.76865C9.08927 6.13318 9.21927 6.56175 9.21927 7.00016C9.21865 7.58787 8.98491 8.15133 8.56934 8.5669C8.15377 8.98247 7.59031 9.21621 7.0026 9.21683Z" fill="#1C274C"/>
</svg>
