<svg width="13" height="13" viewBox="0 0 13 13" fill="none" xmlns="http://www.w3.org/2000/svg">
<path d="M11.834 5.99414V8.42622C11.834 10.8583 10.8644 11.8333 8.42689 11.8333H5.50731C5.19315 11.8333 4.90604 11.8171 4.64062 11.7791" stroke="#1C274C" stroke-width="0.8125" stroke-linecap="round" stroke-linejoin="round"/>
<path d="M2.10156 8.32331V5.99414" stroke="#1C274C" stroke-width="0.8125" stroke-linecap="round" stroke-linejoin="round"/>
<path d="M6.975 6.41667C7.96625 6.41667 8.6975 5.60964 8.6 4.61836L8.23709 1H5.70751L5.3446 4.61836C5.2471 5.60964 5.98375 6.41667 6.975 6.41667Z" stroke="#1C274C" stroke-width="0.8125" stroke-linecap="round" stroke-linejoin="round"/>
<path d="M10.3908 6.41667C11.485 6.41667 12.2867 5.52833 12.1783 4.43957L12.0267 2.94999C11.8317 1.54166 11.29 1 9.87083 1H8.21875L8.59792 4.79709C8.69542 5.69083 9.49708 6.41667 10.3908 6.41667Z" stroke="#1C274C" stroke-width="0.8125" stroke-linecap="round" stroke-linejoin="round"/>
<path d="M3.52923 6.41667C4.42298 6.41667 5.23005 5.69083 5.31672 4.79709L5.43591 3.60003L5.6959 1H4.04382C2.62465 1 2.083 1.54166 1.888 2.94999L1.73631 4.43957C1.62798 5.52833 2.43506 6.41667 3.52923 6.41667Z" stroke="#1C274C" stroke-width="0.8125" stroke-linecap="round" stroke-linejoin="round"/>
<path d="M5.33333 10.2082C5.33333 10.6144 5.21957 10.9991 5.01916 11.3241C4.91624 11.4974 4.79166 11.6544 4.64541 11.779C4.62916 11.8007 4.61292 11.8169 4.59125 11.8332C4.21208 12.1744 3.71375 12.3748 3.16667 12.3748C2.50583 12.3748 1.9154 12.0769 1.5254 11.6111C1.51457 11.5948 1.49834 11.584 1.48751 11.5678C1.42251 11.4919 1.36293 11.4107 1.31418 11.3241C1.11376 10.9991 1 10.6144 1 10.2082C1 9.52567 1.31417 8.91359 1.8125 8.51817C1.90458 8.44234 2.00207 8.37734 2.10499 8.32317C2.41916 8.14442 2.78208 8.0415 3.16667 8.0415C3.70833 8.0415 4.19582 8.2365 4.57499 8.56692C4.63999 8.61567 4.69958 8.67525 4.75374 8.73484C5.11124 9.12484 5.33333 9.63942 5.33333 10.2082Z" stroke="#1C274C" stroke-width="0.8125" stroke-miterlimit="10" stroke-linecap="round" stroke-linejoin="round"/>
<path d="M3.97353 10.1973H2.35938" stroke="#1C274C" stroke-width="0.8125" stroke-miterlimit="10" stroke-linecap="round" stroke-linejoin="round"/>
<path d="M3.16406 9.40674V11.0263" stroke="#1C274C" stroke-width="0.8125" stroke-miterlimit="10" stroke-linecap="round" stroke-linejoin="round"/>
</svg>
