<svg width="13" height="14" viewBox="0 0 13 14" fill="none" xmlns="http://www.w3.org/2000/svg">
<path d="M6.33333 8.3806C6.1156 8.34947 5.893 8.33333 5.66667 8.33333C3.08934 8.33333 1 10.4227 1 13H7.66667M10.3313 11C10.998 10.3333 11.6647 10.0697 11.6647 9.33333C11.6647 8.59693 11.0677 8 10.3313 8C9.71007 8 9.188 8.42493 9.04 9M10.3313 13H10.338M8.33333 3.66667C8.33333 5.13943 7.1394 6.33333 5.66667 6.33333C4.19391 6.33333 3 5.13943 3 3.66667C3 2.19391 4.19391 1 5.66667 1C7.1394 1 8.33333 2.19391 8.33333 3.66667Z" stroke="#1C274C" stroke-linecap="round" stroke-linejoin="round"/>
</svg>
