<svg width="190" height="74" viewBox="0 0 190 74" fill="none" xmlns="http://www.w3.org/2000/svg">
<rect width="190" height="74" rx="12" fill="#25252D"/>
<path d="M45.1875 26.2411C45.1942 25.7193 45.3318 25.2077 45.5876 24.7538C45.8435 24.3 46.2091 23.9186 46.6506 23.6453C46.3702 23.242 46.0001 22.91 45.57 22.6759C45.1398 22.4417 44.6613 22.3118 44.1726 22.2964C43.13 22.1862 42.1192 22.9246 41.5879 22.9246C41.0463 22.9246 40.2283 22.3073 39.3474 22.3256C38.7776 22.3441 38.2223 22.5109 37.7356 22.8098C37.2489 23.1087 36.8474 23.5294 36.5702 24.031C35.3694 26.1244 36.2651 29.2009 37.4154 30.8931C37.9909 31.7217 38.6635 32.6472 39.5435 32.6144C40.4048 32.5784 40.7264 32.0614 41.766 32.0614C42.7959 32.0614 43.0976 32.6144 43.9956 32.5935C44.9197 32.5784 45.5019 31.7613 46.0572 30.9248C46.4707 30.3344 46.7889 29.6819 47 28.9914C46.4631 28.7628 46.0049 28.3801 45.6826 27.891C45.3603 27.4019 45.1881 26.8281 45.1875 26.2411Z" fill="white"/>
<path d="M43.4923 21.1823C43.9962 20.5732 44.2444 19.7904 44.1843 19C43.4145 19.0814 42.7034 19.4519 42.1928 20.0376C41.9431 20.3237 41.7518 20.6566 41.63 21.0172C41.5081 21.3777 41.4581 21.759 41.4826 22.1391C41.8677 22.1431 42.2486 22.059 42.5967 21.8933C42.9448 21.7276 43.251 21.4845 43.4923 21.1823Z" fill="white"/>
<path d="M61.946 29.606H56.942L56.114 32H53.468L57.986 19.418H60.92L65.438 32H62.774L61.946 29.606ZM61.262 27.59L59.444 22.334L57.626 27.59H61.262ZM69.1068 23.468C69.4308 23.012 69.8748 22.634 70.4388 22.334C71.0148 22.022 71.6688 21.866 72.4008 21.866C73.2528 21.866 74.0208 22.076 74.7048 22.496C75.4008 22.916 75.9468 23.516 76.3428 24.296C76.7508 25.064 76.9548 25.958 76.9548 26.978C76.9548 27.998 76.7508 28.904 76.3428 29.696C75.9468 30.476 75.4008 31.082 74.7048 31.514C74.0208 31.946 73.2528 32.162 72.4008 32.162C71.6688 32.162 71.0208 32.012 70.4568 31.712C69.9048 31.412 69.4548 31.034 69.1068 30.578V36.752H66.5868V22.028H69.1068V23.468ZM74.3808 26.978C74.3808 26.378 74.2548 25.862 74.0028 25.43C73.7628 24.986 73.4388 24.65 73.0308 24.422C72.6348 24.194 72.2028 24.08 71.7348 24.08C71.2788 24.08 70.8468 24.2 70.4388 24.44C70.0428 24.668 69.7188 25.004 69.4668 25.448C69.2268 25.892 69.1068 26.414 69.1068 27.014C69.1068 27.614 69.2268 28.136 69.4668 28.58C69.7188 29.024 70.0428 29.366 70.4388 29.606C70.8468 29.834 71.2788 29.948 71.7348 29.948C72.2028 29.948 72.6348 29.828 73.0308 29.588C73.4388 29.348 73.7628 29.006 74.0028 28.562C74.2548 28.118 74.3808 27.59 74.3808 26.978ZM80.766 23.468C81.09 23.012 81.534 22.634 82.098 22.334C82.674 22.022 83.328 21.866 84.06 21.866C84.912 21.866 85.68 22.076 86.364 22.496C87.06 22.916 87.606 23.516 88.002 24.296C88.41 25.064 88.614 25.958 88.614 26.978C88.614 27.998 88.41 28.904 88.002 29.696C87.606 30.476 87.06 31.082 86.364 31.514C85.68 31.946 84.912 32.162 84.06 32.162C83.328 32.162 82.68 32.012 82.116 31.712C81.564 31.412 81.114 31.034 80.766 30.578V36.752H78.246V22.028H80.766V23.468ZM86.04 26.978C86.04 26.378 85.914 25.862 85.662 25.43C85.422 24.986 85.098 24.65 84.69 24.422C84.294 24.194 83.862 24.08 83.394 24.08C82.938 24.08 82.506 24.2 82.098 24.44C81.702 24.668 81.378 25.004 81.126 25.448C80.886 25.892 80.766 26.414 80.766 27.014C80.766 27.614 80.886 28.136 81.126 28.58C81.378 29.024 81.702 29.366 82.098 29.606C82.506 29.834 82.938 29.948 83.394 29.948C83.862 29.948 84.294 29.828 84.69 29.588C85.098 29.348 85.422 29.006 85.662 28.562C85.914 28.118 86.04 27.59 86.04 26.978ZM92.4252 18.68V32H89.9052V18.68H92.4252ZM103.645 26.798C103.645 27.158 103.621 27.482 103.573 27.77H96.283C96.343 28.49 96.595 29.054 97.039 29.462C97.483 29.87 98.029 30.074 98.677 30.074C99.613 30.074 100.279 29.672 100.675 28.868H103.393C103.105 29.828 102.553 30.62 101.737 31.244C100.921 31.856 99.919 32.162 98.731 32.162C97.771 32.162 96.907 31.952 96.139 31.532C95.383 31.1 94.789 30.494 94.357 29.714C93.937 28.934 93.727 28.034 93.727 27.014C93.727 25.982 93.937 25.076 94.357 24.296C94.777 23.516 95.365 22.916 96.121 22.496C96.877 22.076 97.747 21.866 98.731 21.866C99.679 21.866 100.525 22.07 101.269 22.478C102.025 22.886 102.607 23.468 103.015 24.224C103.435 24.968 103.645 25.826 103.645 26.798ZM101.035 26.078C101.023 25.43 100.789 24.914 100.333 24.53C99.877 24.134 99.319 23.936 98.659 23.936C98.035 23.936 97.507 24.128 97.075 24.512C96.655 24.884 96.397 25.406 96.301 26.078H101.035ZM113.031 32.126C112.155 32.126 111.363 31.976 110.655 31.676C109.959 31.376 109.407 30.944 108.999 30.38C108.591 29.816 108.381 29.15 108.369 28.382H111.069C111.105 28.898 111.285 29.306 111.609 29.606C111.945 29.906 112.401 30.056 112.977 30.056C113.565 30.056 114.027 29.918 114.363 29.642C114.699 29.354 114.867 28.982 114.867 28.526C114.867 28.154 114.753 27.848 114.525 27.608C114.297 27.368 114.009 27.182 113.661 27.05C113.325 26.906 112.857 26.75 112.257 26.582C111.441 26.342 110.775 26.108 110.259 25.88C109.755 25.64 109.317 25.286 108.945 24.818C108.585 24.338 108.405 23.702 108.405 22.91C108.405 22.166 108.591 21.518 108.963 20.966C109.335 20.414 109.857 19.994 110.529 19.706C111.201 19.406 111.969 19.256 112.833 19.256C114.129 19.256 115.179 19.574 115.983 20.21C116.799 20.834 117.249 21.71 117.333 22.838H114.561C114.537 22.406 114.351 22.052 114.003 21.776C113.667 21.488 113.217 21.344 112.653 21.344C112.161 21.344 111.765 21.47 111.465 21.722C111.177 21.974 111.033 22.34 111.033 22.82C111.033 23.156 111.141 23.438 111.357 23.666C111.585 23.882 111.861 24.062 112.185 24.206C112.521 24.338 112.989 24.494 113.589 24.674C114.405 24.914 115.071 25.154 115.587 25.394C116.103 25.634 116.547 25.994 116.919 26.474C117.291 26.954 117.477 27.584 117.477 28.364C117.477 29.036 117.303 29.66 116.955 30.236C116.607 30.812 116.097 31.274 115.425 31.622C114.753 31.958 113.955 32.126 113.031 32.126ZM122.056 24.098V28.922C122.056 29.258 122.134 29.504 122.29 29.66C122.458 29.804 122.734 29.876 123.118 29.876H124.288V32H122.704C120.58 32 119.518 30.968 119.518 28.904V24.098H118.33V22.028H119.518V19.562H122.056V22.028H124.288V24.098H122.056ZM129.989 32.162C129.029 32.162 128.165 31.952 127.397 31.532C126.629 31.1 126.023 30.494 125.579 29.714C125.147 28.934 124.931 28.034 124.931 27.014C124.931 25.994 125.153 25.094 125.597 24.314C126.053 23.534 126.671 22.934 127.451 22.514C128.231 22.082 129.101 21.866 130.061 21.866C131.021 21.866 131.891 22.082 132.671 22.514C133.451 22.934 134.063 23.534 134.507 24.314C134.963 25.094 135.191 25.994 135.191 27.014C135.191 28.034 134.957 28.934 134.489 29.714C134.033 30.494 133.409 31.1 132.617 31.532C131.837 31.952 130.961 32.162 129.989 32.162ZM129.989 29.966C130.445 29.966 130.871 29.858 131.267 29.642C131.675 29.414 131.999 29.078 132.239 28.634C132.479 28.19 132.599 27.65 132.599 27.014C132.599 26.066 132.347 25.34 131.843 24.836C131.351 24.32 130.745 24.062 130.025 24.062C129.305 24.062 128.699 24.32 128.207 24.836C127.727 25.34 127.487 26.066 127.487 27.014C127.487 27.962 127.721 28.694 128.189 29.21C128.669 29.714 129.269 29.966 129.989 29.966ZM139.019 23.576C139.343 23.048 139.763 22.634 140.279 22.334C140.807 22.034 141.407 21.884 142.079 21.884V24.53H141.413C140.621 24.53 140.021 24.716 139.613 25.088C139.217 25.46 139.019 26.108 139.019 27.032V32H136.499V22.028H139.019V23.576ZM152.507 26.798C152.507 27.158 152.483 27.482 152.435 27.77H145.145C145.205 28.49 145.457 29.054 145.901 29.462C146.345 29.87 146.891 30.074 147.539 30.074C148.475 30.074 149.141 29.672 149.537 28.868H152.255C151.967 29.828 151.415 30.62 150.599 31.244C149.783 31.856 148.781 32.162 147.593 32.162C146.633 32.162 145.769 31.952 145.001 31.532C144.245 31.1 143.651 30.494 143.219 29.714C142.799 28.934 142.589 28.034 142.589 27.014C142.589 25.982 142.799 25.076 143.219 24.296C143.639 23.516 144.227 22.916 144.983 22.496C145.739 22.076 146.609 21.866 147.593 21.866C148.541 21.866 149.387 22.07 150.131 22.478C150.887 22.886 151.469 23.468 151.877 24.224C152.297 24.968 152.507 25.826 152.507 26.798ZM149.897 26.078C149.885 25.43 149.651 24.914 149.195 24.53C148.739 24.134 148.181 23.936 147.521 23.936C146.897 23.936 146.369 24.128 145.937 24.512C145.517 24.884 145.259 25.406 145.163 26.078H149.897Z" fill="white"/>
<path d="M50.26 45.575V46.97H45.835V50.045H49.285V51.44H45.835V56H44.125V45.575H50.26ZM54.9797 56.135C54.1997 56.135 53.4947 55.96 52.8647 55.61C52.2347 55.25 51.7397 54.75 51.3797 54.11C51.0197 53.46 50.8397 52.71 50.8397 51.86C50.8397 51.02 51.0247 50.275 51.3947 49.625C51.7647 48.975 52.2697 48.475 52.9097 48.125C53.5497 47.775 54.2647 47.6 55.0547 47.6C55.8447 47.6 56.5597 47.775 57.1997 48.125C57.8397 48.475 58.3447 48.975 58.7147 49.625C59.0847 50.275 59.2697 51.02 59.2697 51.86C59.2697 52.7 59.0797 53.445 58.6997 54.095C58.3197 54.745 57.7997 55.25 57.1397 55.61C56.4897 55.96 55.7697 56.135 54.9797 56.135ZM54.9797 54.65C55.4197 54.65 55.8297 54.545 56.2097 54.335C56.5997 54.125 56.9147 53.81 57.1547 53.39C57.3947 52.97 57.5147 52.46 57.5147 51.86C57.5147 51.26 57.3997 50.755 57.1697 50.345C56.9397 49.925 56.6347 49.61 56.2547 49.4C55.8747 49.19 55.4647 49.085 55.0247 49.085C54.5847 49.085 54.1747 49.19 53.7947 49.4C53.4247 49.61 53.1297 49.925 52.9097 50.345C52.6897 50.755 52.5797 51.26 52.5797 51.86C52.5797 52.75 52.8047 53.44 53.2547 53.93C53.7147 54.41 54.2897 54.65 54.9797 54.65ZM62.2202 48.935C62.4702 48.515 62.8002 48.19 63.2102 47.96C63.6302 47.72 64.1252 47.6 64.6952 47.6V49.37H64.2602C63.5902 49.37 63.0802 49.54 62.7302 49.88C62.3902 50.22 62.2202 50.81 62.2202 51.65V56H60.5102V47.735H62.2202V48.935ZM70.1335 46.64C69.8235 46.64 69.5635 46.535 69.3535 46.325C69.1435 46.115 69.0385 45.855 69.0385 45.545C69.0385 45.235 69.1435 44.975 69.3535 44.765C69.5635 44.555 69.8235 44.45 70.1335 44.45C70.4335 44.45 70.6885 44.555 70.8985 44.765C71.1085 44.975 71.2135 45.235 71.2135 45.545C71.2135 45.855 71.1085 46.115 70.8985 46.325C70.6885 46.535 70.4335 46.64 70.1335 46.64ZM70.9735 47.735V56H69.2635V47.735H70.9735ZM76.3536 56.135C75.5736 56.135 74.8686 55.96 74.2386 55.61C73.6086 55.25 73.1136 54.75 72.7536 54.11C72.3936 53.46 72.2136 52.71 72.2136 51.86C72.2136 51.02 72.3986 50.275 72.7686 49.625C73.1386 48.975 73.6436 48.475 74.2836 48.125C74.9236 47.775 75.6386 47.6 76.4286 47.6C77.2186 47.6 77.9336 47.775 78.5736 48.125C79.2136 48.475 79.7186 48.975 80.0886 49.625C80.4586 50.275 80.6436 51.02 80.6436 51.86C80.6436 52.7 80.4536 53.445 80.0736 54.095C79.6936 54.745 79.1736 55.25 78.5136 55.61C77.8636 55.96 77.1436 56.135 76.3536 56.135ZM76.3536 54.65C76.7936 54.65 77.2036 54.545 77.5836 54.335C77.9736 54.125 78.2886 53.81 78.5286 53.39C78.7686 52.97 78.8886 52.46 78.8886 51.86C78.8886 51.26 78.7736 50.755 78.5436 50.345C78.3136 49.925 78.0086 49.61 77.6286 49.4C77.2486 49.19 76.8386 49.085 76.3986 49.085C75.9586 49.085 75.5486 49.19 75.1686 49.4C74.7986 49.61 74.5036 49.925 74.2836 50.345C74.0636 50.755 73.9536 51.26 73.9536 51.86C73.9536 52.75 74.1786 53.44 74.6286 53.93C75.0886 54.41 75.6636 54.65 76.3536 54.65ZM84.884 56.135C84.234 56.135 83.649 56.02 83.129 55.79C82.619 55.55 82.214 55.23 81.914 54.83C81.614 54.42 81.454 53.965 81.434 53.465H83.204C83.234 53.815 83.399 54.11 83.699 54.35C84.009 54.58 84.394 54.695 84.854 54.695C85.334 54.695 85.704 54.605 85.964 54.425C86.234 54.235 86.369 53.995 86.369 53.705C86.369 53.395 86.219 53.165 85.919 53.015C85.629 52.865 85.164 52.7 84.524 52.52C83.904 52.35 83.399 52.185 83.009 52.025C82.619 51.865 82.279 51.62 81.989 51.29C81.709 50.96 81.569 50.525 81.569 49.985C81.569 49.545 81.699 49.145 81.959 48.785C82.219 48.415 82.589 48.125 83.069 47.915C83.559 47.705 84.119 47.6 84.749 47.6C85.689 47.6 86.444 47.84 87.014 48.32C87.594 48.79 87.904 49.435 87.944 50.255H86.234C86.204 49.885 86.054 49.59 85.784 49.37C85.514 49.15 85.149 49.04 84.689 49.04C84.239 49.04 83.894 49.125 83.654 49.295C83.414 49.465 83.294 49.69 83.294 49.97C83.294 50.19 83.374 50.375 83.534 50.525C83.694 50.675 83.889 50.795 84.119 50.885C84.349 50.965 84.689 51.07 85.139 51.2C85.739 51.36 86.229 51.525 86.609 51.695C86.999 51.855 87.334 52.095 87.614 52.415C87.894 52.735 88.039 53.16 88.049 53.69C88.049 54.16 87.919 54.58 87.659 54.95C87.399 55.32 87.029 55.61 86.549 55.82C86.079 56.03 85.524 56.135 84.884 56.135ZM92.3232 51.83C92.3232 51 92.4932 50.265 92.8332 49.625C93.1832 48.985 93.6532 48.49 94.2432 48.14C94.8432 47.78 95.5082 47.6 96.2382 47.6C96.7782 47.6 97.3082 47.72 97.8282 47.96C98.3582 48.19 98.7782 48.5 99.0882 48.89V44.9H100.813V56H99.0882V54.755C98.8082 55.155 98.4182 55.485 97.9182 55.745C97.4282 56.005 96.8632 56.135 96.2232 56.135C95.5032 56.135 94.8432 55.955 94.2432 55.595C93.6532 55.225 93.1832 54.715 92.8332 54.065C92.4932 53.405 92.3232 52.66 92.3232 51.83ZM99.0882 51.86C99.0882 51.29 98.9682 50.795 98.7282 50.375C98.4982 49.955 98.1932 49.635 97.8132 49.415C97.4332 49.195 97.0232 49.085 96.5832 49.085C96.1432 49.085 95.7332 49.195 95.3532 49.415C94.9732 49.625 94.6632 49.94 94.4232 50.36C94.1932 50.77 94.0782 51.26 94.0782 51.83C94.0782 52.4 94.1932 52.9 94.4232 53.33C94.6632 53.76 94.9732 54.09 95.3532 54.32C95.7432 54.54 96.1532 54.65 96.5832 54.65C97.0232 54.65 97.4332 54.54 97.8132 54.32C98.1932 54.1 98.4982 53.78 98.7282 53.36C98.9682 52.93 99.0882 52.43 99.0882 51.86ZM110.184 51.665C110.184 51.975 110.164 52.255 110.124 52.505H103.809C103.859 53.165 104.104 53.695 104.544 54.095C104.984 54.495 105.524 54.695 106.164 54.695C107.084 54.695 107.734 54.31 108.114 53.54H109.959C109.709 54.3 109.254 54.925 108.594 55.415C107.944 55.895 107.134 56.135 106.164 56.135C105.374 56.135 104.664 55.96 104.034 55.61C103.414 55.25 102.924 54.75 102.564 54.11C102.214 53.46 102.039 52.71 102.039 51.86C102.039 51.01 102.209 50.265 102.549 49.625C102.899 48.975 103.384 48.475 104.004 48.125C104.634 47.775 105.354 47.6 106.164 47.6C106.944 47.6 107.639 47.77 108.249 48.11C108.859 48.45 109.334 48.93 109.674 49.55C110.014 50.16 110.184 50.865 110.184 51.665ZM108.399 51.125C108.389 50.495 108.164 49.99 107.724 49.61C107.284 49.23 106.739 49.04 106.089 49.04C105.499 49.04 104.994 49.23 104.574 49.61C104.154 49.98 103.904 50.485 103.824 51.125H108.399ZM114.612 54.47L116.952 47.735H118.767L115.617 56H113.577L110.442 47.735H112.272L114.612 54.47ZM120.48 46.64C120.17 46.64 119.91 46.535 119.7 46.325C119.49 46.115 119.385 45.855 119.385 45.545C119.385 45.235 119.49 44.975 119.7 44.765C119.91 44.555 120.17 44.45 120.48 44.45C120.78 44.45 121.035 44.555 121.245 44.765C121.455 44.975 121.56 45.235 121.56 45.545C121.56 45.855 121.455 46.115 121.245 46.325C121.035 46.535 120.78 46.64 120.48 46.64ZM121.32 47.735V56H119.61V47.735H121.32ZM122.545 51.86C122.545 51.01 122.715 50.265 123.055 49.625C123.405 48.975 123.885 48.475 124.495 48.125C125.105 47.775 125.805 47.6 126.595 47.6C127.595 47.6 128.42 47.84 129.07 48.32C129.73 48.79 130.175 49.465 130.405 50.345H128.56C128.41 49.935 128.17 49.615 127.84 49.385C127.51 49.155 127.095 49.04 126.595 49.04C125.895 49.04 125.335 49.29 124.915 49.79C124.505 50.28 124.3 50.97 124.3 51.86C124.3 52.75 124.505 53.445 124.915 53.945C125.335 54.445 125.895 54.695 126.595 54.695C127.585 54.695 128.24 54.26 128.56 53.39H130.405C130.165 54.23 129.715 54.9 129.055 55.4C128.395 55.89 127.575 56.135 126.595 56.135C125.805 56.135 125.105 55.96 124.495 55.61C123.885 55.25 123.405 54.75 123.055 54.11C122.715 53.46 122.545 52.71 122.545 51.86ZM139.234 51.665C139.234 51.975 139.214 52.255 139.174 52.505H132.859C132.909 53.165 133.154 53.695 133.594 54.095C134.034 54.495 134.574 54.695 135.214 54.695C136.134 54.695 136.784 54.31 137.164 53.54H139.009C138.759 54.3 138.304 54.925 137.644 55.415C136.994 55.895 136.184 56.135 135.214 56.135C134.424 56.135 133.714 55.96 133.084 55.61C132.464 55.25 131.974 54.75 131.614 54.11C131.264 53.46 131.089 52.71 131.089 51.86C131.089 51.01 131.259 50.265 131.599 49.625C131.949 48.975 132.434 48.475 133.054 48.125C133.684 47.775 134.404 47.6 135.214 47.6C135.994 47.6 136.689 47.77 137.299 48.11C137.909 48.45 138.384 48.93 138.724 49.55C139.064 50.16 139.234 50.865 139.234 51.665ZM137.449 51.125C137.439 50.495 137.214 49.99 136.774 49.61C136.334 49.23 135.789 49.04 135.139 49.04C134.549 49.04 134.044 49.23 133.624 49.61C133.204 49.98 132.954 50.485 132.874 51.125H137.449ZM143.467 56.135C142.817 56.135 142.232 56.02 141.712 55.79C141.202 55.55 140.797 55.23 140.497 54.83C140.197 54.42 140.037 53.965 140.017 53.465H141.787C141.817 53.815 141.982 54.11 142.282 54.35C142.592 54.58 142.977 54.695 143.437 54.695C143.917 54.695 144.287 54.605 144.547 54.425C144.817 54.235 144.952 53.995 144.952 53.705C144.952 53.395 144.802 53.165 144.502 53.015C144.212 52.865 143.747 52.7 143.107 52.52C142.487 52.35 141.982 52.185 141.592 52.025C141.202 51.865 140.862 51.62 140.572 51.29C140.292 50.96 140.152 50.525 140.152 49.985C140.152 49.545 140.282 49.145 140.542 48.785C140.802 48.415 141.172 48.125 141.652 47.915C142.142 47.705 142.702 47.6 143.332 47.6C144.272 47.6 145.027 47.84 145.597 48.32C146.177 48.79 146.487 49.435 146.527 50.255H144.817C144.787 49.885 144.637 49.59 144.367 49.37C144.097 49.15 143.732 49.04 143.272 49.04C142.822 49.04 142.477 49.125 142.237 49.295C141.997 49.465 141.877 49.69 141.877 49.97C141.877 50.19 141.957 50.375 142.117 50.525C142.277 50.675 142.472 50.795 142.702 50.885C142.932 50.965 143.272 51.07 143.722 51.2C144.322 51.36 144.812 51.525 145.192 51.695C145.582 51.855 145.917 52.095 146.197 52.415C146.477 52.735 146.622 53.16 146.632 53.69C146.632 54.16 146.502 54.58 146.242 54.95C145.982 55.32 145.612 55.61 145.132 55.82C144.662 56.03 144.107 56.135 143.467 56.135Z" fill="#969696"/>
</svg>
