<svg
width="13"
height="13"
viewBox="0 0 13 13"
fill="none"
xmlns="http://www.w3.org/2000/svg"
>
<path
d="M6.64615 3.53093L1 9.17706V12.0001H3.82308L9.46923 6.35399M6.64615 3.53093L8.67072 1.50632L8.67199 1.50512C8.95063 1.22642 9.09023 1.08683 9.25114 1.03454C9.39293 0.988485 9.54559 0.988485 9.68738 1.03454C9.84815 1.08679 9.98761 1.22622 10.2659 1.50452L11.4938 2.73242C11.7733 3.01192 11.9131 3.15173 11.9655 3.31288C12.0115 3.45463 12.0115 3.60731 11.9655 3.74907C11.9132 3.91009 11.7736 4.0497 11.4944 4.32879L11.4938 4.32939L9.46923 6.35399M6.64615 3.53093L9.46923 6.35399"
stroke="black"
stroke-width="1.41154"
stroke-linecap="round"
stroke-linejoin="round"
/>
</svg>