<svg width="67" height="67" viewBox="0 0 67 67" fill="none" xmlns="http://www.w3.org/2000/svg">
<circle cx="33.5" cy="33.5" r="32.1776" stroke="#3DB7FF" stroke-opacity="0.12" stroke-width="2.64474"/>
<path d="M42.1337 19.9824C40.2796 18.4134 38.0116 17.4135 35.6026 17.1033C33.1936 16.793 30.7463 17.1855 28.5551 18.2335C26.364 19.2815 24.5224 20.9404 23.2519 23.0106C21.9815 25.0807 21.3364 27.4739 21.3942 29.9021C21.7155 34.1933 23.6443 38.2052 26.7951 41.136C27.7133 42.1802 28.5954 43.2604 28.5954 43.8185V48.1032C28.5954 48.7462 28.7221 49.383 28.9682 49.9771C29.2142 50.5712 29.5749 51.111 30.0297 51.5658C30.4844 52.0205 31.0242 52.3812 31.6183 52.6273C32.2124 52.8733 32.8492 53 33.4922 53H34.5004C35.7991 53 37.0447 52.4841 37.963 51.5658C38.8813 50.6474 39.3972 49.4019 39.3972 48.1032V43.8185C39.3972 43.2604 40.3514 42.1802 41.1975 41.136C44.4278 38.1364 46.3646 33.998 46.5984 29.5961C46.5971 27.7655 46.197 25.9572 45.426 24.297C44.6549 22.6368 43.5315 21.1644 42.1337 19.9824ZM34.5004 51.1997H33.4922C32.671 51.1997 31.8834 50.8735 31.3027 50.2927C30.722 49.712 30.3957 48.9244 30.3957 48.1032V45.7988H37.5969V48.1032C37.5969 48.9244 37.2707 49.712 36.69 50.2927C36.1093 50.8735 35.3217 51.1997 34.5004 51.1997ZM39.9013 39.9478C38.5871 41.406 37.5609 42.5762 37.5609 43.8185V43.9985H30.3957V43.8185C30.3957 42.5762 29.3695 41.406 28.0553 39.9478C25.2388 37.3078 23.506 33.7138 23.1945 29.8661C23.1323 27.2691 24.0081 24.7367 25.6613 22.733C27.3146 20.7293 29.6345 19.3885 32.196 18.9563C33.744 18.6946 35.3304 18.7735 36.8448 19.1875C38.3592 19.6015 39.7651 20.3407 40.9647 21.3534C42.1643 22.3662 43.1287 23.6283 43.7907 25.0519C44.4528 26.4754 44.7966 28.0261 44.7981 29.5961C44.7981 34.4569 41.9897 37.6254 39.9373 39.9478H39.9013Z" fill="#FFCB03"/>
<path d="M51.1067 27.7969H49.3064C49.0677 27.7969 48.8387 27.8917 48.6699 28.0605C48.5011 28.2293 48.4062 28.4583 48.4062 28.697C48.4062 28.9358 48.5011 29.1647 48.6699 29.3335C48.8387 29.5023 49.0677 29.5972 49.3064 29.5972H51.1067C51.3454 29.5972 51.5744 29.5023 51.7432 29.3335C51.912 29.1647 52.0069 28.9358 52.0069 28.697C52.0069 28.4583 51.912 28.2293 51.7432 28.0605C51.5744 27.8917 51.3454 27.7969 51.1067 27.7969Z" fill="#FFCB03"/>
<path d="M19.6006 28.697C19.6006 28.4583 19.5058 28.2293 19.337 28.0605C19.1681 27.8917 18.9392 27.7969 18.7005 27.7969H16.9002C16.6614 27.7969 16.4325 27.8917 16.2636 28.0605C16.0948 28.2293 16 28.4583 16 28.697C16 28.9358 16.0948 29.1647 16.2636 29.3335C16.4325 29.5023 16.6614 29.5972 16.9002 29.5972H18.7005C18.9392 29.5972 19.1681 29.5023 19.337 29.3335C19.5058 29.1647 19.6006 28.9358 19.6006 28.697Z" fill="#FFCB03"/>
<path d="M19.3259 17.2649C19.1588 17.0978 18.9321 17.0039 18.6958 17.0039C18.4595 17.0039 18.2328 17.0978 18.0657 17.2649C17.8986 17.432 17.8047 17.6587 17.8047 17.895C17.8047 18.1313 17.8986 18.358 18.0657 18.5251L19.866 20.3254C19.9468 20.4115 20.0444 20.4802 20.1528 20.5271C20.2612 20.574 20.378 20.5982 20.4961 20.5982C20.6142 20.5982 20.731 20.574 20.8394 20.5271C20.9478 20.4802 21.0454 20.4115 21.1262 20.3254C21.2123 20.2446 21.2809 20.147 21.3279 20.0386C21.3748 19.9302 21.399 19.8134 21.399 19.6953C21.399 19.5772 21.3748 19.4604 21.3279 19.352C21.2809 19.2436 21.2123 19.146 21.1262 19.0652L19.3259 17.2649Z" fill="#FFCB03"/>
<path d="M47.5123 20.5955C47.6303 20.5969 47.7474 20.5736 47.8559 20.5271C47.9644 20.4806 48.062 20.4119 48.1424 20.3254L49.9427 18.5251C50.1098 18.358 50.2037 18.1313 50.2037 17.895C50.2037 17.6587 50.1098 17.432 49.9427 17.2649C49.7756 17.0978 49.5489 17.0039 49.3126 17.0039C49.0762 17.0039 48.8496 17.0978 48.6825 17.2649L46.8822 19.0652C46.796 19.146 46.7274 19.2436 46.6805 19.352C46.6336 19.4604 46.6094 19.5772 46.6094 19.6953C46.6094 19.8134 46.6336 19.9302 46.6805 20.0386C46.7274 20.147 46.796 20.2446 46.8822 20.3254C46.9625 20.4119 47.0601 20.4806 47.1686 20.5271C47.2772 20.5736 47.3942 20.5969 47.5123 20.5955Z" fill="#FFCB03"/>
<path d="M48.1384 37.0676C47.9713 36.9005 47.7446 36.8066 47.5083 36.8066C47.272 36.8066 47.0453 36.9005 46.8782 37.0676C46.7111 37.2348 46.6172 37.4614 46.6172 37.6977C46.6172 37.9341 46.7111 38.1607 46.8782 38.3279L48.6785 40.1282C48.7593 40.2143 48.8569 40.2829 48.9653 40.3298C49.0737 40.3767 49.1905 40.4009 49.3086 40.4009C49.4267 40.4009 49.5435 40.3767 49.6519 40.3298C49.7603 40.2829 49.8579 40.2143 49.9387 40.1282C50.0248 40.0473 50.0934 39.9497 50.1404 39.8414C50.1873 39.733 50.2115 39.6161 50.2115 39.498C50.2115 39.38 50.1873 39.2631 50.1404 39.1547C50.0934 39.0464 50.0248 38.9488 49.9387 38.8679L48.1384 37.0676Z" fill="#FFCB03"/>
<path d="M19.87 37.0676L18.0697 38.8679C17.9835 38.9488 17.9149 39.0464 17.868 39.1547C17.8211 39.2631 17.7969 39.38 17.7969 39.498C17.7969 39.6161 17.8211 39.733 17.868 39.8414C17.9149 39.9497 17.9835 40.0473 18.0697 40.1282C18.1505 40.2143 18.2481 40.2829 18.3565 40.3298C18.4648 40.3767 18.5817 40.4009 18.6998 40.4009C18.8179 40.4009 18.9347 40.3767 19.0431 40.3298C19.1514 40.2829 19.2491 40.2143 19.3299 40.1282L21.1302 38.3279C21.2973 38.1607 21.3912 37.9341 21.3912 37.6977C21.3912 37.4614 21.2973 37.2348 21.1302 37.0676C20.9631 36.9005 20.7364 36.8066 20.5001 36.8066C20.2637 36.8066 20.0371 36.9005 19.87 37.0676Z" fill="#FFCB03"/>
<path d="M36.0728 26.2649L30.6719 31.6658C30.5408 31.7864 30.451 31.9453 30.4155 32.1198C30.3799 32.2944 30.4003 32.4757 30.4739 32.638C30.5414 32.8024 30.6561 32.9431 30.8035 33.0424C30.9508 33.1417 31.1243 33.1952 31.302 33.1961H34.5246L32.4722 35.2664C32.3861 35.3472 32.3175 35.4448 32.2706 35.5532C32.2236 35.6616 32.1994 35.7784 32.1994 35.8965C32.1994 36.0146 32.2236 36.1315 32.2706 36.2398C32.3175 36.3482 32.3861 36.4458 32.4722 36.5266C32.553 36.6127 32.6506 36.6814 32.759 36.7283C32.8674 36.7752 32.9842 36.7994 33.1023 36.7994C33.2204 36.7994 33.3373 36.7752 33.4456 36.7283C33.554 36.6814 33.6516 36.6127 33.7324 36.5266L37.333 32.926C37.4642 32.8055 37.5539 32.6466 37.5895 32.472C37.625 32.2975 37.6046 32.1161 37.5311 31.9539C37.4635 31.7895 37.3489 31.6488 37.2015 31.5494C37.0541 31.4501 36.8806 31.3967 36.7029 31.3958H33.4804L37.333 27.5251C37.5002 27.358 37.594 27.1313 37.594 26.895C37.594 26.6587 37.5002 26.432 37.333 26.2649C37.1659 26.0978 36.9393 26.0039 36.7029 26.0039C36.4666 26.0039 36.2399 26.0978 36.0728 26.2649Z" fill="#FFCB03"/>
</svg>
