<svg width="40" height="40" viewBox="0 0 40 40" fill="none" xmlns="http://www.w3.org/2000/svg">
<path opacity="0.5" d="M0.338879 1.73217C0.625087 0.918087 1.51707 0.490149 2.33117 0.776379L2.95909 0.997129C4.24352 1.44865 5.33442 1.83215 6.19294 2.2534C7.11092 2.70382 7.89811 3.25869 8.49015 4.12507C9.07761 4.98473 9.32013 5.9279 9.43207 6.96202C9.48219 7.42494 9.50861 7.93732 9.52255 8.5005H31.6856C35.1958 8.5005 38.3558 8.5005 39.2806 9.70275C40.2056 10.905 39.8439 12.7165 39.1208 16.3396L38.0795 21.3911C37.4231 24.5763 37.095 26.1688 35.9454 27.1055C34.796 28.0422 33.17 28.0422 29.9179 28.0422H18.8702C13.0599 28.0422 10.1548 28.0422 8.34984 26.1384C6.54484 24.2345 6.41309 22.2122 6.41309 16.0838V10.6637C6.41309 9.12211 6.41096 8.09042 6.32521 7.29832C6.24327 6.54134 6.09807 6.16338 5.91002 5.88819C5.72657 5.61973 5.44809 5.36884 4.81638 5.05888C4.14377 4.72886 3.22971 4.4048 1.83886 3.9158L1.29467 3.72446C0.480587 3.43825 0.0526494 2.54627 0.338879 1.73217Z" fill="#1C274C"/>
<path d="M11.625 33.5C13.3509 33.5 14.75 34.8992 14.75 36.625C14.75 38.3508 13.3509 39.75 11.625 39.75C9.8991 39.75 8.5 38.3508 8.5 36.625C8.5 34.8992 9.8991 33.5 11.625 33.5Z" fill="#1C274C"/>
<path d="M30.375 33.5C32.1008 33.5 33.5 34.899 33.5 36.625C33.5 38.3508 32.1008 39.75 30.375 39.75C28.6492 39.75 27.25 38.3508 27.25 36.625C27.25 34.899 28.6492 33.5 30.375 33.5Z" fill="#1C274C"/>
<path d="M28.3866 15.8276C28.9818 15.2027 28.9577 14.2137 28.3329 13.6185C27.7079 13.0234 26.7189 13.0475 26.1237 13.6724L21.3029 18.7344L20.0533 17.4225C19.4583 16.7975 18.4691 16.7734 17.8443 17.3685C17.2193 17.9638 17.1954 18.9527 17.7904 19.5775L20.1714 22.0775C20.4662 22.3873 20.8752 22.5625 21.3029 22.5625C21.7304 22.5625 22.1393 22.3873 22.4343 22.0775L28.3866 15.8276Z" fill="#1C274C"/>
</svg>
