<svg width="67" height="67" viewBox="0 0 67 67" fill="none" xmlns="http://www.w3.org/2000/svg">
<circle cx="33.5" cy="33.5" r="32.1776" stroke="#3DB7FF" stroke-opacity="0.12" stroke-width="2.64474"/>
<path d="M44.1007 46.1611L22.9977 46.1325C22.9454 46.1373 22.8788 46.1373 22.8075 46.142C22.6506 46.1468 22.4795 46.1563 22.4224 46.1563C19.8695 46.1563 17.483 45.0962 15.7098 43.1708C13.9603 41.2787 13 38.7591 13 36.0778C13 30.5346 17.2691 26.0279 22.5223 26.0231C23.6204 20.8175 28.0607 17 33.195 17C35.9523 17 38.586 18.0887 40.6112 20.0616C42.3132 21.7207 43.4636 23.8838 43.9153 26.256C44.5761 26.1039 45.2559 26.0279 45.9405 26.0279C47.5236 26.0279 49.0924 26.4462 50.4758 27.2354C50.9702 27.5159 51.1414 28.1481 50.8561 28.6378C50.5756 29.1322 49.9434 29.3034 49.4537 29.0181C48.3793 28.4049 47.167 28.0816 45.9405 28.0816C45.08 28.0816 44.2385 28.2385 43.4304 28.5475L42.1563 29.0371L42.0374 27.6775C41.6143 22.7666 37.8111 19.0632 33.1902 19.0632C28.7833 19.0632 25.0039 22.5764 24.3953 27.2401L24.267 28.2337L23.2686 28.1291C23.0214 28.1006 22.7695 28.0911 22.5223 28.0911C18.4053 28.0911 15.0537 31.6804 15.0537 36.0873C15.0537 40.3089 18.0678 43.7793 21.8757 44.0836L22.9073 44.074H23.0357C23.0737 44.074 23.1118 44.0788 23.1498 44.0836L44.1054 44.1073C44.4002 44.1073 44.6807 44.1026 44.9659 44.0931C45.2749 44.0883 45.5934 44.0788 45.9452 44.0788C49.4727 44.0788 52.5485 41.3975 53.2616 37.7084C53.371 37.1522 53.9082 36.7862 54.4692 36.8908C55.0254 37.0001 55.3914 37.5373 55.2869 38.0983C54.3788 42.7524 50.452 46.1373 45.9405 46.1373C45.6077 46.1373 45.3082 46.142 45.0087 46.1515C44.7092 46.1563 44.4144 46.1611 44.1007 46.1611Z" fill="#BBBBBB"/>
<path d="M32.1395 36.7949C32.1395 37.0659 32.0872 37.3559 31.9826 37.6696C31.878 37.9834 31.7117 38.2924 31.4882 38.5967C31.2648 38.9009 30.9748 39.1434 30.6277 39.3335C30.2807 39.5237 29.8719 39.6188 29.406 39.6188C29.0542 39.6188 28.7356 39.576 28.4457 39.4904C28.1557 39.4049 27.8942 39.2717 27.6612 39.0958C27.4283 38.9152 27.2096 38.6823 27.0147 38.3875C26.8388 38.1213 26.6867 37.8218 26.5631 37.4938C26.4395 37.1657 26.3444 36.8139 26.2826 36.4384C26.2208 36.0628 26.1875 35.6682 26.1875 35.2451C26.1875 34.5605 26.2636 33.952 26.4204 33.4101C26.5773 32.8681 26.8008 32.407 27.0908 32.0266C27.3808 31.6416 27.723 31.3516 28.1129 31.1519C28.5027 30.9522 28.9211 30.8524 29.3632 30.8524C29.9051 30.8524 30.3853 30.9903 30.8084 31.2613C31.2315 31.537 31.5548 31.8745 31.7782 32.2786C32.0016 32.6827 32.1157 33.063 32.1157 33.4196C32.1157 33.6145 32.0587 33.7904 31.9541 33.9425C31.8495 34.0946 31.7117 34.166 31.5595 34.166C31.3884 34.166 31.2553 34.1137 31.1697 34.0091C31.0841 33.9045 30.989 33.7238 30.8797 33.4719C30.7038 33.0535 30.4946 32.735 30.2569 32.5306C30.0192 32.3214 29.7245 32.2168 29.3774 32.2168C28.8212 32.2168 28.3791 32.483 28.0511 33.0202C27.723 33.5574 27.5567 34.3181 27.5567 35.3069C27.5567 35.9677 27.628 36.5144 27.7753 36.9518C27.9227 37.3892 28.1271 37.7172 28.3934 37.9311C28.6596 38.145 28.9733 38.2544 29.3299 38.2544C29.7197 38.2544 30.0477 38.1308 30.314 37.8883C30.5802 37.6411 30.7846 37.2846 30.9225 36.8092C30.9795 36.5857 31.0508 36.4051 31.1364 36.2625C31.222 36.1198 31.3599 36.0533 31.5453 36.0533C31.7069 36.0533 31.8448 36.1246 31.9589 36.2672C32.0825 36.4051 32.1395 36.581 32.1395 36.7949ZM36.2898 30.8477C36.9838 30.8477 37.5781 31.0283 38.0725 31.3849C38.5669 31.7414 38.9425 32.2501 39.1992 32.9061C39.4559 33.5622 39.5795 34.3371 39.5795 35.2213C39.5795 35.8774 39.5082 36.4716 39.3704 37.0088C39.2325 37.546 39.0233 38.0119 38.7428 38.4018C38.4623 38.7963 38.12 39.0959 37.716 39.305C37.3071 39.5142 36.8412 39.6188 36.3183 39.6188C35.7953 39.6188 35.3294 39.5094 34.9159 39.2955C34.5023 39.0816 34.16 38.7773 33.8842 38.3923C33.6085 38.0024 33.3993 37.5318 33.2567 36.9851C33.1141 36.4384 33.0428 35.8441 33.0428 35.2071C33.0428 34.5558 33.1141 33.9568 33.2615 33.4148C33.4088 32.8729 33.6228 32.407 33.9032 32.0266C34.1837 31.6463 34.5213 31.3516 34.9254 31.1519C35.3247 30.9475 35.7811 30.8477 36.2898 30.8477ZM38.2151 35.2118C38.2151 34.5891 38.1343 34.0519 37.9774 33.5955C37.8205 33.1391 37.5924 32.7968 37.3024 32.5639C37.0076 32.3309 36.6748 32.2121 36.2945 32.2121C36.0235 32.2121 35.7763 32.2786 35.5434 32.407C35.3152 32.5353 35.1155 32.7255 34.9539 32.9727C34.7875 33.2199 34.6591 33.5337 34.5641 33.9187C34.469 34.3038 34.4214 34.7317 34.4214 35.2118C34.4214 35.692 34.469 36.1294 34.5641 36.5192C34.6591 36.909 34.797 37.2323 34.9681 37.489C35.144 37.7457 35.3437 37.9359 35.5671 38.0642C35.7953 38.1926 36.0425 38.2544 36.3135 38.2544C36.6606 38.2544 36.9791 38.1451 37.2691 37.9264C37.5591 37.7077 37.7873 37.3654 37.9632 36.909C38.1248 36.4479 38.2151 35.8821 38.2151 35.2118ZM41.2434 38.6632H42.6506C42.7932 38.6632 42.8978 38.7013 42.9739 38.7726C43.0499 38.8439 43.0832 38.9437 43.0832 39.0721C43.0832 39.1862 43.0547 39.2765 42.9977 39.3573C42.9406 39.4334 42.8503 39.4762 42.7314 39.4762H40.749C40.6159 39.4762 40.5113 39.4286 40.4352 39.3335C40.3592 39.2385 40.3212 39.1291 40.3212 39.0008C40.3212 38.92 40.3449 38.8106 40.3925 38.6727C40.44 38.5349 40.4923 38.4303 40.5493 38.3542C40.787 38.0405 41.0057 37.7695 41.1959 37.5413C41.386 37.3179 41.5239 37.1705 41.6095 37.0992C41.7569 36.9661 41.8805 36.8329 41.9755 36.6998C42.0754 36.5667 42.1467 36.4289 42.199 36.2862C42.2513 36.1436 42.275 36.0057 42.275 35.8726C42.275 35.7253 42.2465 35.5969 42.1942 35.4781C42.1372 35.364 42.0659 35.2736 41.9708 35.2071C41.8757 35.1453 41.7759 35.112 41.6618 35.112C41.4241 35.112 41.2434 35.2451 41.1056 35.5066C41.0865 35.5399 41.058 35.6349 41.0152 35.7871C40.9724 35.9392 40.9249 36.058 40.8726 36.1389C40.8203 36.2197 40.7395 36.2625 40.6397 36.2625C40.5493 36.2625 40.4733 36.2244 40.4162 36.1484C40.3592 36.0723 40.3259 35.9725 40.3259 35.8394C40.3259 35.6825 40.3544 35.5161 40.4115 35.3449C40.4685 35.1738 40.5493 35.0169 40.6587 34.8791C40.768 34.7412 40.9106 34.6271 41.077 34.5415C41.2482 34.4559 41.4479 34.4132 41.676 34.4132C41.9518 34.4132 42.1847 34.4702 42.3796 34.5795C42.5032 34.6509 42.6173 34.7554 42.7124 34.8791C42.8075 35.0074 42.8836 35.1548 42.9359 35.3212C42.9881 35.4876 43.0167 35.6635 43.0167 35.8441C43.0167 36.1294 42.9596 36.3861 42.8503 36.619C42.7409 36.852 42.6268 37.0326 42.5127 37.1657C42.3987 37.2988 42.2037 37.5033 41.9328 37.7837C41.6618 38.0642 41.4764 38.2829 41.3765 38.4398C41.3338 38.5064 41.2862 38.5777 41.2434 38.6632Z" fill="#BBBBBB"/>
</svg>
