<svg width="50" height="50" viewBox="0 0 50 50" fill="none" xmlns="http://www.w3.org/2000/svg">
<rect width="50" height="50" rx="10" fill="#E7E6E6"/>
<path d="M30.5 37H18.5C17.3065 37 16.1619 36.5258 15.318 35.6819C14.4741 34.838 14 33.6934 14 32.5V17.5C14 17.1022 13.842 16.7206 13.5607 16.4393C13.2794 16.158 12.8978 16 12.5 16C12.1022 16 11.7206 16.158 11.4393 16.4393C11.158 16.7206 11 17.1022 11 17.5V32.5C11 34.4891 11.7902 36.3968 13.1967 37.8032C14.6032 39.2098 16.5109 40 18.5 40H30.5C30.8978 40 31.2794 39.8419 31.5606 39.5606C31.8419 39.2794 32 38.8978 32 38.5C32 38.1022 31.8419 37.7206 31.5606 37.4394C31.2794 37.1581 30.8978 37 30.5 37ZM38 20.41C37.9844 20.2722 37.9543 20.1364 37.91 20.005V19.87C37.8379 19.7158 37.7417 19.574 37.625 19.45L28.625 10.45C28.501 10.3333 28.3592 10.2371 28.205 10.165H28.07L27.59 10H21.5C20.3065 10 19.1619 10.4741 18.318 11.318C17.4741 12.1619 17 13.3065 17 14.5V29.5C17 30.6934 17.4741 31.838 18.318 32.6819C19.1619 33.5258 20.3065 34 21.5 34H33.5C34.6934 34 35.838 33.5258 36.6819 32.6819C37.5258 31.838 38 30.6934 38 29.5V20.5C38 20.5 38 20.5 38 20.41ZM29 15.115L32.885 19H30.5C30.1022 19 29.7206 18.842 29.4394 18.5607C29.1581 18.2794 29 17.8978 29 17.5V15.115ZM35 29.5C35 29.8978 34.8419 30.2794 34.5606 30.5606C34.2794 30.8419 33.8978 31 33.5 31H21.5C21.1022 31 20.7206 30.8419 20.4393 30.5606C20.158 30.2794 20 29.8978 20 29.5V14.5C20 14.1022 20.158 13.7206 20.4393 13.4393C20.7206 13.158 21.1022 13 21.5 13H26V17.5C26 18.6935 26.4742 19.8381 27.3181 20.682C28.162 21.5259 29.3066 22 30.5 22H35V29.5Z" fill="#525252"/>
</svg>
