<svg width="32" height="32" viewBox="0 0 32 32" fill="none" xmlns="http://www.w3.org/2000/svg">
<circle cx="16.1474" cy="16.1474" r="14.2816" fill="#0263FD" stroke="white" stroke-width="2.26833"/>
<path d="M15.6145 13.016L10.8906 17.7398V20.1018H13.2526L17.9765 15.3779M15.6145 13.016L17.3084 11.3221L17.3095 11.321C17.5426 11.0879 17.6594 10.9711 17.794 10.9273C17.9126 10.8888 18.0404 10.8888 18.159 10.9273C18.2935 10.9711 18.4102 11.0877 18.643 11.3206L19.6703 12.3479C19.9042 12.5817 20.0211 12.6987 20.065 12.8335C20.1035 12.9521 20.1035 13.0799 20.065 13.1985C20.0212 13.3332 19.9044 13.45 19.6709 13.6835L19.6703 13.684L17.9765 15.3779M15.6145 13.016L17.9765 15.3779" stroke="white" stroke-width="1.18097" stroke-linecap="round" stroke-linejoin="round"/>
</svg>
