<svg width="68" height="67" viewBox="0 0 68 67" fill="none" xmlns="http://www.w3.org/2000/svg">
<circle cx="34" cy="33.5" r="32.1776" stroke="#3DB7FF" stroke-opacity="0.12" stroke-width="2.64474"/>
<path fill-rule="evenodd" clip-rule="evenodd" d="M27.0375 19.0352C24.824 19.0352 23 20.8591 23 23.0726V48.6432C23 50.8567 24.824 52.6807 27.0375 52.6807H40.4957C42.7092 52.6807 44.5331 50.8567 44.5331 48.6432V23.0726C44.5331 20.8591 42.7092 19.0352 40.4957 19.0352H27.0375ZM27.0375 21.7268H40.4957C41.2645 21.7268 41.8415 22.3038 41.8415 23.0726V48.6432C41.8415 49.4121 41.2645 49.989 40.4957 49.989H27.0375C26.2686 49.989 25.6916 49.4121 25.6916 48.6432V23.0726C25.6916 22.3038 26.2686 21.7268 27.0375 21.7268Z" fill="#32DF02"/>
<path fill-rule="evenodd" clip-rule="evenodd" d="M34.1906 26.5107C34.0228 26.4547 33.8457 26.4323 33.6693 26.4448C33.4928 26.4573 33.3206 26.5044 33.1624 26.5835C33.0042 26.6626 32.8632 26.7721 32.7473 26.9057C32.6315 27.0394 32.5431 27.1945 32.4873 27.3624L29.7957 35.4373C29.7282 35.6397 29.7098 35.8552 29.742 36.0661C29.7742 36.277 29.856 36.4772 29.9808 36.6502C30.1056 36.8232 30.2697 36.9641 30.4596 37.0613C30.6495 37.1584 30.8598 37.209 31.0731 37.2089H34.5875L32.4873 43.5122C32.4313 43.68 32.4089 43.8571 32.4214 44.0336C32.4338 44.21 32.481 44.3822 32.5601 44.5404C32.6392 44.6986 32.7487 44.8396 32.8823 44.9555C33.016 45.0713 33.1711 45.1597 33.3389 45.2155C33.5067 45.2716 33.6839 45.294 33.8603 45.2815C34.0367 45.269 34.2089 45.2219 34.3671 45.1428C34.5253 45.0637 34.6664 44.9542 34.7822 44.8205C34.8981 44.6869 34.9864 44.5317 35.0423 44.3639L37.7339 36.2889C37.8014 36.0866 37.8198 35.8711 37.7876 35.6602C37.7554 35.4493 37.6735 35.2491 37.5488 35.076C37.424 34.903 37.2599 34.7621 37.07 34.665C36.88 34.5678 36.6697 34.5172 36.4564 34.5173H32.942L35.0423 28.214C35.0983 28.0463 35.1207 27.8691 35.1082 27.6927C35.0957 27.5163 35.0486 27.344 34.9695 27.1858C34.8904 27.0277 34.7809 26.8866 34.6472 26.7708C34.5136 26.6549 34.3584 26.5665 34.1906 26.5107Z" fill="#32DF02"/>
<path fill-rule="evenodd" clip-rule="evenodd" d="M29.7229 15C28.255 15 27.0312 16.2238 27.0312 17.6916V19.0375C27.0312 20.5054 28.255 21.7291 29.7229 21.7291H37.7978C39.2657 21.7291 40.4895 20.5054 40.4895 19.0375V17.6916C40.4895 16.2238 39.2657 15 37.7978 15H29.7229ZM29.7229 17.6916H37.7978V19.0375H29.7229V17.6916Z" fill="#32DF02"/>
</svg>
