<svg width="65" height="65" viewBox="0 0 65 65" fill="none" xmlns="http://www.w3.org/2000/svg">
<circle cx="32.7491" cy="32.5714" r="31.1584" stroke="white" stroke-width="1.97831"/>
<path d="M46.7066 35.0658C46.7066 32.8665 45.7185 30.8361 44.0469 29.1921C43.7333 28.8862 43.4991 28.5084 43.3644 28.0915C43.2297 27.6746 43.1987 27.2311 43.2741 26.7996C43.3682 26.2592 43.4155 25.7118 43.4154 25.1633C43.4154 19.6937 38.7783 15.2598 33.0525 15.2598C27.3268 15.2598 22.6897 19.6937 22.6897 25.1633C22.6896 25.7118 22.7369 26.2592 22.831 26.7996C22.9064 27.2311 22.8753 27.6746 22.7407 28.0915C22.606 28.5084 22.3717 28.8862 22.0582 29.1921C20.3866 30.8361 19.3984 32.8665 19.3984 35.0658C19.3984 40.2925 24.9806 44.573 32.0567 44.9417V49.2708H24.04V51.2582H41.7129V49.2708H34.0484V44.9417C41.1244 44.573 46.7066 40.2925 46.7066 35.0658ZM32.0611 44.9406V39.1509L28.528 35.6487L29.9269 34.2366L33.0547 37.338L36.1837 34.2366L37.5815 35.6487L34.0484 39.1509V44.9406H32.0611Z" fill="white"/>
</svg>
