<svg width="66" height="65" viewBox="0 0 66 65" fill="none" xmlns="http://www.w3.org/2000/svg">
<circle cx="32.9835" cy="32.5714" r="31.1584" stroke="white" stroke-width="1.97831"/>
<path d="M23.5151 34.9219L20.3627 40.2426C20.2272 40.4773 20.156 40.7435 20.1563 41.0145C20.1565 41.2855 20.2283 41.5517 20.3643 41.7861C20.5003 42.0205 20.6958 42.2148 20.9309 42.3496C21.166 42.4843 21.4325 42.5546 21.7035 42.5534H31.5604" stroke="white" stroke-width="2.85292" stroke-linecap="round" stroke-linejoin="round"/>
<path d="M38.6953 42.5523L44.3013 42.6236C44.5716 42.6242 44.8372 42.553 45.0709 42.4172C45.3047 42.2815 45.4982 42.0861 45.6316 41.8511C45.7651 41.616 45.8338 41.3498 45.8306 41.0795C45.8275 40.8092 45.7526 40.5446 45.6136 40.3128L40.7922 31.9395" stroke="white" stroke-width="2.85292" stroke-linecap="round" stroke-linejoin="round"/>
<path d="M37.3968 25.9082L34.4155 20.502C34.2803 20.268 34.0858 20.0737 33.8517 19.9386C33.6176 19.8035 33.3521 19.7324 33.0818 19.7324C32.8115 19.7324 32.546 19.8035 32.3119 19.9386C32.0778 20.0737 31.8833 20.268 31.7481 20.502L26.8125 29.0607" stroke="white" stroke-width="2.85292" stroke-linecap="round" stroke-linejoin="round"/>
<path d="M29.1389 39.7031L31.5639 42.556L28.7109 45.409" stroke="white" stroke-width="2.85292" stroke-linecap="round" stroke-linejoin="round"/>
<path d="M39.4297 35.3085L40.685 31.7852L44.5792 32.8265" stroke="white" stroke-width="2.85292" stroke-linecap="round" stroke-linejoin="round"/>
<path d="M30.4403 28.3781L26.7601 29.0485L25.7188 25.1543" stroke="white" stroke-width="2.85292" stroke-linecap="round" stroke-linejoin="round"/>
</svg>
