<svg width="42" height="55" viewBox="0 0 42 55" fill="none" xmlns="http://www.w3.org/2000/svg">
<path d="M21 0C9.60984 0 0.375 9.23484 0.375 20.625C0.375 25.1101 1.84539 29.2256 4.28945 32.5961C4.33328 32.6769 4.34016 32.7671 4.39 32.8445L18.14 53.4695C18.7777 54.4259 19.8519 55 21 55C22.1481 55 23.2223 54.4259 23.86 53.4695L37.61 32.8445C37.6607 32.7671 37.6667 32.6769 37.7105 32.5961C40.1546 29.2256 41.625 25.1101 41.625 20.625C41.625 9.23484 32.3902 0 21 0ZM21 27.5C17.2033 27.5 14.125 24.4217 14.125 20.625C14.125 16.8283 17.2033 13.75 21 13.75C24.7967 13.75 27.875 16.8283 27.875 20.625C27.875 24.4217 24.7967 27.5 21 27.5Z" fill="url(#paint0_linear_3424_8107)"/>
<circle cx="20.5703" cy="21.0547" r="8.16406" fill="url(#paint1_linear_3424_8107)"/>
<path fill-rule="evenodd" clip-rule="evenodd" d="M19.6316 10.0002L19.5212 10.0001C19.0008 9.99933 18.5441 9.99865 18.1371 10.1587C17.7812 10.2987 17.4662 10.5257 17.2209 10.8191C16.9403 11.1545 16.7966 11.5881 16.6327 12.082L16.5979 12.1868L16.3117 13.0454H12.7918H10.7614C10.3409 13.0454 10 13.3863 10 13.8068C10 14.2273 10.3409 14.5682 10.7614 14.5682H12.0738L12.6871 24.994L12.689 25.0264L12.689 25.0264C12.7507 26.0753 12.7997 26.9076 12.893 27.578C12.9885 28.2644 13.1375 28.843 13.4329 29.3682C13.9132 30.2221 14.6421 30.9094 15.5227 31.3387C16.0644 31.6028 16.6508 31.7176 17.3416 31.7726C18.0163 31.8264 18.8501 31.8264 19.9007 31.8264H19.9332H21.8934H21.9258C22.9765 31.8264 23.8103 31.8264 24.485 31.7726C25.1758 31.7176 25.7621 31.6028 26.3038 31.3387C27.1844 30.9094 27.9133 30.2221 28.3936 29.3682C28.689 28.843 28.8381 28.2644 28.9336 27.578C29.0269 26.9076 29.0758 26.0753 29.1375 25.0264L29.1394 24.994L29.7527 14.5682H31.0652C31.4857 14.5682 31.8266 14.2273 31.8266 13.8068C31.8266 13.3863 31.4857 13.0454 31.0652 13.0454H29.0348H25.5305L25.2443 12.1868L25.2095 12.082C25.0457 11.5881 24.9019 11.1545 24.6213 10.8191C24.376 10.5257 24.061 10.2987 23.7051 10.1587C23.2982 9.99865 22.8414 9.99933 22.321 10.0001L22.2106 10.0002H19.6316ZM24.9517 14.5682C24.9716 14.569 24.9917 14.569 25.0119 14.5682H28.2273L27.6193 24.9046C27.5552 25.993 27.5093 26.7649 27.4253 27.3681C27.3427 27.9622 27.2304 28.3302 27.0664 28.6217C26.7378 29.2059 26.239 29.6762 25.6365 29.9699C25.3358 30.1165 24.9619 30.207 24.364 30.2547C23.7569 30.303 22.9837 30.3036 21.8934 30.3036H19.9332C18.8429 30.3036 18.0697 30.303 17.4625 30.2547C16.8646 30.207 16.4907 30.1165 16.19 29.9699C15.5875 29.6762 15.0888 29.2059 14.7602 28.6217C14.5962 28.3302 14.4839 27.9622 14.4012 27.3681C14.3173 26.7649 14.2713 25.993 14.2073 24.9046L13.5993 14.5682H16.8304C16.8505 14.569 16.8706 14.569 16.8906 14.5682H24.9517ZM23.9254 13.0454L23.7997 12.6684C23.5795 12.0077 23.5234 11.8799 23.4532 11.796C23.3714 11.6982 23.2664 11.6225 23.1478 11.5758C23.046 11.5358 22.907 11.523 22.2106 11.523H19.6316C18.9352 11.523 18.7962 11.5358 18.6944 11.5758C18.5758 11.6225 18.4708 11.6982 18.389 11.796C18.3189 11.8799 18.2628 12.0077 18.0425 12.6684L17.9169 13.0454H23.9254ZM19.6404 18.8835C19.6404 18.463 19.2995 18.1221 18.879 18.1221C18.4585 18.1221 18.1176 18.463 18.1176 18.8835V25.9898C18.1176 26.4103 18.4585 26.7512 18.879 26.7512C19.2995 26.7512 19.6404 26.4103 19.6404 25.9898V18.8835ZM22.9507 18.1221C23.3712 18.1221 23.7121 18.463 23.7121 18.8835V22.9443C23.7121 23.3648 23.3712 23.7056 22.9507 23.7056C22.5302 23.7056 22.1893 23.3648 22.1893 22.9443V18.8835C22.1893 18.463 22.5302 18.1221 22.9507 18.1221Z" fill="white"/>
<defs>
<linearGradient id="paint0_linear_3424_8107" x1="21" y1="0" x2="21" y2="55" gradientUnits="userSpaceOnUse">
<stop stop-color="#89CFF0"/>
<stop offset="1" stop-color="#65C0EA"/>
</linearGradient>
<linearGradient id="paint1_linear_3424_8107" x1="20.5703" y1="12.8906" x2="20.5703" y2="29.2188" gradientUnits="userSpaceOnUse">
<stop stop-color="#82CCEF"/>
<stop offset="1" stop-color="#75C7ED"/>
</linearGradient>
</defs>
</svg>
