<svg width="366" height="372" viewBox="0 0 366 372" fill="none" xmlns="http://www.w3.org/2000/svg">
<g opacity="0.1">
<path d="M332.9 25.934C279.912 16.3975 217.484 67.4279 184.505 98.2682C176.265 106.25 169.859 125.409 176.26 136.607C181.959 146.577 203.437 147.491 214.162 146.07C280.802 137.264 372.396 136.693 358.471 56.545C356.419 44.7329 347.57 28.5742 332.9 25.934Z" fill="white"/>
<path d="M144.535 207.742C120.95 290.852 74.4511 342.346 24.3612 345.549C7.31249 345.818 0.925424 344.31 0.925424 344.31C3.42923 327.257 30.0063 277.716 44.8798 225.302C68.4623 142.189 69.2458 34.1219 111.224 42.3521C153.204 50.5825 168.118 124.629 144.535 207.742Z" fill="white"/>
</g>
</svg>
