<svg width="190" height="74" viewBox="0 0 190 74" fill="none" xmlns="http://www.w3.org/2000/svg">
<rect width="190" height="74" rx="12" fill="#25252D"/>
<path d="M70.404 23.324C70.404 23.996 70.242 24.626 69.918 25.214C69.606 25.802 69.108 26.276 68.424 26.636C67.752 26.996 66.9 27.176 65.868 27.176H63.762V32H61.242V19.436H65.868C66.84 19.436 67.668 19.604 68.352 19.94C69.036 20.276 69.546 20.738 69.882 21.326C70.23 21.914 70.404 22.58 70.404 23.324ZM65.76 25.142C66.456 25.142 66.972 24.986 67.308 24.674C67.644 24.35 67.812 23.9 67.812 23.324C67.812 22.1 67.128 21.488 65.76 21.488H63.762V25.142H65.76ZM74.1732 18.68V32H71.6532V18.68H74.1732ZM75.4749 26.978C75.4749 25.97 75.6729 25.076 76.0689 24.296C76.4769 23.516 77.0229 22.916 77.7069 22.496C78.4029 22.076 79.1769 21.866 80.0289 21.866C80.7729 21.866 81.4209 22.016 81.9729 22.316C82.5369 22.616 82.9869 22.994 83.3229 23.45V22.028H85.8609V32H83.3229V30.542C82.9989 31.01 82.5489 31.4 81.9729 31.712C81.4089 32.012 80.7549 32.162 80.0109 32.162C79.1709 32.162 78.4029 31.946 77.7069 31.514C77.0229 31.082 76.4769 30.476 76.0689 29.696C75.6729 28.904 75.4749 27.998 75.4749 26.978ZM83.3229 27.014C83.3229 26.402 83.2029 25.88 82.9629 25.448C82.7229 25.004 82.3989 24.668 81.9909 24.44C81.5829 24.2 81.1449 24.08 80.6769 24.08C80.2089 24.08 79.7769 24.194 79.3809 24.422C78.9849 24.65 78.6609 24.986 78.4089 25.43C78.1689 25.862 78.0489 26.378 78.0489 26.978C78.0489 27.578 78.1689 28.106 78.4089 28.562C78.6609 29.006 78.9849 29.348 79.3809 29.588C79.7889 29.828 80.2209 29.948 80.6769 29.948C81.1449 29.948 81.5829 29.834 81.9909 29.606C82.3989 29.366 82.7229 29.03 82.9629 28.598C83.2029 28.154 83.3229 27.626 83.3229 27.014ZM97.3222 22.028L91.1482 36.716H88.4662L90.6262 31.748L86.6302 22.028H89.4562L92.0302 28.994L94.6402 22.028H97.3222ZM106.228 32.126C105.352 32.126 104.56 31.976 103.852 31.676C103.156 31.376 102.604 30.944 102.196 30.38C101.788 29.816 101.578 29.15 101.566 28.382H104.266C104.302 28.898 104.482 29.306 104.806 29.606C105.142 29.906 105.598 30.056 106.174 30.056C106.762 30.056 107.224 29.918 107.56 29.642C107.896 29.354 108.064 28.982 108.064 28.526C108.064 28.154 107.95 27.848 107.722 27.608C107.494 27.368 107.206 27.182 106.858 27.05C106.522 26.906 106.054 26.75 105.454 26.582C104.638 26.342 103.972 26.108 103.456 25.88C102.952 25.64 102.514 25.286 102.142 24.818C101.782 24.338 101.602 23.702 101.602 22.91C101.602 22.166 101.788 21.518 102.16 20.966C102.532 20.414 103.054 19.994 103.726 19.706C104.398 19.406 105.166 19.256 106.03 19.256C107.326 19.256 108.376 19.574 109.18 20.21C109.996 20.834 110.446 21.71 110.53 22.838H107.758C107.734 22.406 107.548 22.052 107.2 21.776C106.864 21.488 106.414 21.344 105.85 21.344C105.358 21.344 104.962 21.47 104.662 21.722C104.374 21.974 104.23 22.34 104.23 22.82C104.23 23.156 104.338 23.438 104.554 23.666C104.782 23.882 105.058 24.062 105.382 24.206C105.718 24.338 106.186 24.494 106.786 24.674C107.602 24.914 108.268 25.154 108.784 25.394C109.3 25.634 109.744 25.994 110.116 26.474C110.488 26.954 110.674 27.584 110.674 28.364C110.674 29.036 110.5 29.66 110.152 30.236C109.804 30.812 109.294 31.274 108.622 31.622C107.95 31.958 107.152 32.126 106.228 32.126ZM115.252 24.098V28.922C115.252 29.258 115.33 29.504 115.486 29.66C115.654 29.804 115.93 29.876 116.314 29.876H117.484V32H115.9C113.776 32 112.714 30.968 112.714 28.904V24.098H111.526V22.028H112.714V19.562H115.252V22.028H117.484V24.098H115.252ZM123.185 32.162C122.225 32.162 121.361 31.952 120.593 31.532C119.825 31.1 119.219 30.494 118.775 29.714C118.343 28.934 118.127 28.034 118.127 27.014C118.127 25.994 118.349 25.094 118.793 24.314C119.249 23.534 119.867 22.934 120.647 22.514C121.427 22.082 122.297 21.866 123.257 21.866C124.217 21.866 125.087 22.082 125.867 22.514C126.647 22.934 127.259 23.534 127.703 24.314C128.159 25.094 128.387 25.994 128.387 27.014C128.387 28.034 128.153 28.934 127.685 29.714C127.229 30.494 126.605 31.1 125.813 31.532C125.033 31.952 124.157 32.162 123.185 32.162ZM123.185 29.966C123.641 29.966 124.067 29.858 124.463 29.642C124.871 29.414 125.195 29.078 125.435 28.634C125.675 28.19 125.795 27.65 125.795 27.014C125.795 26.066 125.543 25.34 125.039 24.836C124.547 24.32 123.941 24.062 123.221 24.062C122.501 24.062 121.895 24.32 121.403 24.836C120.923 25.34 120.683 26.066 120.683 27.014C120.683 27.962 120.917 28.694 121.385 29.21C121.865 29.714 122.465 29.966 123.185 29.966ZM132.215 23.576C132.539 23.048 132.959 22.634 133.475 22.334C134.003 22.034 134.603 21.884 135.275 21.884V24.53H134.609C133.817 24.53 133.217 24.716 132.809 25.088C132.413 25.46 132.215 26.108 132.215 27.032V32H129.695V22.028H132.215V23.576ZM145.703 26.798C145.703 27.158 145.679 27.482 145.631 27.77H138.341C138.401 28.49 138.653 29.054 139.097 29.462C139.541 29.87 140.087 30.074 140.735 30.074C141.671 30.074 142.337 29.672 142.733 28.868H145.451C145.163 29.828 144.611 30.62 143.795 31.244C142.979 31.856 141.977 32.162 140.789 32.162C139.829 32.162 138.965 31.952 138.197 31.532C137.441 31.1 136.847 30.494 136.415 29.714C135.995 28.934 135.785 28.034 135.785 27.014C135.785 25.982 135.995 25.076 136.415 24.296C136.835 23.516 137.423 22.916 138.179 22.496C138.935 22.076 139.805 21.866 140.789 21.866C141.737 21.866 142.583 22.07 143.327 22.478C144.083 22.886 144.665 23.468 145.073 24.224C145.493 24.968 145.703 25.826 145.703 26.798ZM143.093 26.078C143.081 25.43 142.847 24.914 142.391 24.53C141.935 24.134 141.377 23.936 140.717 23.936C140.093 23.936 139.565 24.128 139.133 24.512C138.713 24.884 138.455 25.406 138.359 26.078H143.093Z" fill="white"/>
<path d="M31.26 45.575V46.97H26.835V50.045H30.285V51.44H26.835V56H25.125V45.575H31.26ZM35.9797 56.135C35.1997 56.135 34.4947 55.96 33.8647 55.61C33.2347 55.25 32.7397 54.75 32.3797 54.11C32.0197 53.46 31.8397 52.71 31.8397 51.86C31.8397 51.02 32.0247 50.275 32.3947 49.625C32.7647 48.975 33.2697 48.475 33.9097 48.125C34.5497 47.775 35.2647 47.6 36.0547 47.6C36.8447 47.6 37.5597 47.775 38.1997 48.125C38.8397 48.475 39.3447 48.975 39.7147 49.625C40.0847 50.275 40.2697 51.02 40.2697 51.86C40.2697 52.7 40.0797 53.445 39.6997 54.095C39.3197 54.745 38.7997 55.25 38.1397 55.61C37.4897 55.96 36.7697 56.135 35.9797 56.135ZM35.9797 54.65C36.4197 54.65 36.8297 54.545 37.2097 54.335C37.5997 54.125 37.9147 53.81 38.1547 53.39C38.3947 52.97 38.5147 52.46 38.5147 51.86C38.5147 51.26 38.3997 50.755 38.1697 50.345C37.9397 49.925 37.6347 49.61 37.2547 49.4C36.8747 49.19 36.4647 49.085 36.0247 49.085C35.5847 49.085 35.1747 49.19 34.7947 49.4C34.4247 49.61 34.1297 49.925 33.9097 50.345C33.6897 50.755 33.5797 51.26 33.5797 51.86C33.5797 52.75 33.8047 53.44 34.2547 53.93C34.7147 54.41 35.2897 54.65 35.9797 54.65ZM43.2202 48.935C43.4702 48.515 43.8002 48.19 44.2102 47.96C44.6302 47.72 45.1252 47.6 45.6952 47.6V49.37H45.2602C44.5902 49.37 44.0802 49.54 43.7302 49.88C43.3902 50.22 43.2202 50.81 43.2202 51.65V56H41.5102V47.735H43.2202V48.935ZM49.6935 51.83C49.6935 51 49.8635 50.265 50.2035 49.625C50.5535 48.985 51.0235 48.49 51.6135 48.14C52.2135 47.78 52.8735 47.6 53.5935 47.6C54.2435 47.6 54.8085 47.73 55.2885 47.99C55.7785 48.24 56.1685 48.555 56.4585 48.935V47.735H58.1835V56H56.4585V54.77C56.1685 55.16 55.7735 55.485 55.2735 55.745C54.7735 56.005 54.2035 56.135 53.5635 56.135C52.8535 56.135 52.2035 55.955 51.6135 55.595C51.0235 55.225 50.5535 54.715 50.2035 54.065C49.8635 53.405 49.6935 52.66 49.6935 51.83ZM56.4585 51.86C56.4585 51.29 56.3385 50.795 56.0985 50.375C55.8685 49.955 55.5635 49.635 55.1835 49.415C54.8035 49.195 54.3935 49.085 53.9535 49.085C53.5135 49.085 53.1035 49.195 52.7235 49.415C52.3435 49.625 52.0335 49.94 51.7935 50.36C51.5635 50.77 51.4485 51.26 51.4485 51.83C51.4485 52.4 51.5635 52.9 51.7935 53.33C52.0335 53.76 52.3435 54.09 52.7235 54.32C53.1135 54.54 53.5235 54.65 53.9535 54.65C54.3935 54.65 54.8035 54.54 55.1835 54.32C55.5635 54.1 55.8685 53.78 56.0985 53.36C56.3385 52.93 56.4585 52.43 56.4585 51.86ZM64.1495 47.6C64.7995 47.6 65.3795 47.735 65.8895 48.005C66.4095 48.275 66.8145 48.675 67.1045 49.205C67.3945 49.735 67.5395 50.375 67.5395 51.125V56H65.8445V51.38C65.8445 50.64 65.6595 50.075 65.2895 49.685C64.9195 49.285 64.4145 49.085 63.7745 49.085C63.1345 49.085 62.6245 49.285 62.2445 49.685C61.8745 50.075 61.6895 50.64 61.6895 51.38V56H59.9795V47.735H61.6895V48.68C61.9695 48.34 62.3245 48.075 62.7545 47.885C63.1945 47.695 63.6595 47.6 64.1495 47.6ZM68.7007 51.83C68.7007 51 68.8707 50.265 69.2107 49.625C69.5607 48.985 70.0307 48.49 70.6207 48.14C71.2207 47.78 71.8857 47.6 72.6157 47.6C73.1557 47.6 73.6857 47.72 74.2057 47.96C74.7357 48.19 75.1557 48.5 75.4657 48.89V44.9H77.1907V56H75.4657V54.755C75.1857 55.155 74.7957 55.485 74.2957 55.745C73.8057 56.005 73.2407 56.135 72.6007 56.135C71.8807 56.135 71.2207 55.955 70.6207 55.595C70.0307 55.225 69.5607 54.715 69.2107 54.065C68.8707 53.405 68.7007 52.66 68.7007 51.83ZM75.4657 51.86C75.4657 51.29 75.3457 50.795 75.1057 50.375C74.8757 49.955 74.5707 49.635 74.1907 49.415C73.8107 49.195 73.4007 49.085 72.9607 49.085C72.5207 49.085 72.1107 49.195 71.7307 49.415C71.3507 49.625 71.0407 49.94 70.8007 50.36C70.5707 50.77 70.4557 51.26 70.4557 51.83C70.4557 52.4 70.5707 52.9 70.8007 53.33C71.0407 53.76 71.3507 54.09 71.7307 54.32C72.1207 54.54 72.5307 54.65 72.9607 54.65C73.4007 54.65 73.8107 54.54 74.1907 54.32C74.5707 54.1 74.8757 53.78 75.1057 53.36C75.3457 52.93 75.4657 52.43 75.4657 51.86ZM80.6967 48.935C80.9467 48.515 81.2767 48.19 81.6867 47.96C82.1067 47.72 82.6017 47.6 83.1717 47.6V49.37H82.7367C82.0667 49.37 81.5567 49.54 81.2067 49.88C80.8667 50.22 80.6967 50.81 80.6967 51.65V56H78.9867V47.735H80.6967V48.935ZM87.8786 56.135C87.0986 56.135 86.3936 55.96 85.7636 55.61C85.1336 55.25 84.6386 54.75 84.2786 54.11C83.9186 53.46 83.7386 52.71 83.7386 51.86C83.7386 51.02 83.9236 50.275 84.2936 49.625C84.6636 48.975 85.1686 48.475 85.8086 48.125C86.4486 47.775 87.1636 47.6 87.9536 47.6C88.7436 47.6 89.4586 47.775 90.0986 48.125C90.7386 48.475 91.2436 48.975 91.6136 49.625C91.9836 50.275 92.1686 51.02 92.1686 51.86C92.1686 52.7 91.9786 53.445 91.5986 54.095C91.2186 54.745 90.6986 55.25 90.0386 55.61C89.3886 55.96 88.6686 56.135 87.8786 56.135ZM87.8786 54.65C88.3186 54.65 88.7286 54.545 89.1086 54.335C89.4986 54.125 89.8136 53.81 90.0536 53.39C90.2936 52.97 90.4136 52.46 90.4136 51.86C90.4136 51.26 90.2986 50.755 90.0686 50.345C89.8386 49.925 89.5336 49.61 89.1536 49.4C88.7736 49.19 88.3636 49.085 87.9236 49.085C87.4836 49.085 87.0736 49.19 86.6936 49.4C86.3236 49.61 86.0286 49.925 85.8086 50.345C85.5886 50.755 85.4786 51.26 85.4786 51.86C85.4786 52.75 85.7036 53.44 86.1536 53.93C86.6136 54.41 87.1886 54.65 87.8786 54.65ZM94.279 46.64C93.969 46.64 93.709 46.535 93.499 46.325C93.289 46.115 93.184 45.855 93.184 45.545C93.184 45.235 93.289 44.975 93.499 44.765C93.709 44.555 93.969 44.45 94.279 44.45C94.579 44.45 94.834 44.555 95.044 44.765C95.254 44.975 95.359 45.235 95.359 45.545C95.359 45.855 95.254 46.115 95.044 46.325C94.834 46.535 94.579 46.64 94.279 46.64ZM95.119 47.735V56H93.409V47.735H95.119ZM96.3441 51.83C96.3441 51 96.5141 50.265 96.8541 49.625C97.2041 48.985 97.6741 48.49 98.2641 48.14C98.8641 47.78 99.5291 47.6 100.259 47.6C100.799 47.6 101.329 47.72 101.849 47.96C102.379 48.19 102.799 48.5 103.109 48.89V44.9H104.834V56H103.109V54.755C102.829 55.155 102.439 55.485 101.939 55.745C101.449 56.005 100.884 56.135 100.244 56.135C99.5241 56.135 98.8641 55.955 98.2641 55.595C97.6741 55.225 97.2041 54.715 96.8541 54.065C96.5141 53.405 96.3441 52.66 96.3441 51.83ZM103.109 51.86C103.109 51.29 102.989 50.795 102.749 50.375C102.519 49.955 102.214 49.635 101.834 49.415C101.454 49.195 101.044 49.085 100.604 49.085C100.164 49.085 99.7541 49.195 99.3741 49.415C98.9941 49.625 98.6841 49.94 98.4441 50.36C98.2141 50.77 98.0991 51.26 98.0991 51.83C98.0991 52.4 98.2141 52.9 98.4441 53.33C98.6841 53.76 98.9941 54.09 99.3741 54.32C99.7641 54.54 100.174 54.65 100.604 54.65C101.044 54.65 101.454 54.54 101.834 54.32C102.214 54.1 102.519 53.78 102.749 53.36C102.989 52.93 103.109 52.43 103.109 51.86ZM109.507 51.83C109.507 51 109.677 50.265 110.017 49.625C110.367 48.985 110.837 48.49 111.427 48.14C112.027 47.78 112.692 47.6 113.422 47.6C113.962 47.6 114.492 47.72 115.012 47.96C115.542 48.19 115.962 48.5 116.272 48.89V44.9H117.997V56H116.272V54.755C115.992 55.155 115.602 55.485 115.102 55.745C114.612 56.005 114.047 56.135 113.407 56.135C112.687 56.135 112.027 55.955 111.427 55.595C110.837 55.225 110.367 54.715 110.017 54.065C109.677 53.405 109.507 52.66 109.507 51.83ZM116.272 51.86C116.272 51.29 116.152 50.795 115.912 50.375C115.682 49.955 115.377 49.635 114.997 49.415C114.617 49.195 114.207 49.085 113.767 49.085C113.327 49.085 112.917 49.195 112.537 49.415C112.157 49.625 111.847 49.94 111.607 50.36C111.377 50.77 111.262 51.26 111.262 51.83C111.262 52.4 111.377 52.9 111.607 53.33C111.847 53.76 112.157 54.09 112.537 54.32C112.927 54.54 113.337 54.65 113.767 54.65C114.207 54.65 114.617 54.54 114.997 54.32C115.377 54.1 115.682 53.78 115.912 53.36C116.152 52.93 116.272 52.43 116.272 51.86ZM127.368 51.665C127.368 51.975 127.348 52.255 127.308 52.505H120.993C121.043 53.165 121.288 53.695 121.728 54.095C122.168 54.495 122.708 54.695 123.348 54.695C124.268 54.695 124.918 54.31 125.298 53.54H127.143C126.893 54.3 126.438 54.925 125.778 55.415C125.128 55.895 124.318 56.135 123.348 56.135C122.558 56.135 121.848 55.96 121.218 55.61C120.598 55.25 120.108 54.75 119.748 54.11C119.398 53.46 119.223 52.71 119.223 51.86C119.223 51.01 119.393 50.265 119.733 49.625C120.083 48.975 120.568 48.475 121.188 48.125C121.818 47.775 122.538 47.6 123.348 47.6C124.128 47.6 124.823 47.77 125.433 48.11C126.043 48.45 126.518 48.93 126.858 49.55C127.198 50.16 127.368 50.865 127.368 51.665ZM125.583 51.125C125.573 50.495 125.348 49.99 124.908 49.61C124.468 49.23 123.923 49.04 123.273 49.04C122.683 49.04 122.178 49.23 121.758 49.61C121.338 49.98 121.088 50.485 121.008 51.125H125.583ZM131.795 54.47L134.135 47.735H135.95L132.8 56H130.76L127.625 47.735H129.455L131.795 54.47ZM137.663 46.64C137.353 46.64 137.093 46.535 136.883 46.325C136.673 46.115 136.568 45.855 136.568 45.545C136.568 45.235 136.673 44.975 136.883 44.765C137.093 44.555 137.353 44.45 137.663 44.45C137.963 44.45 138.218 44.555 138.428 44.765C138.638 44.975 138.743 45.235 138.743 45.545C138.743 45.855 138.638 46.115 138.428 46.325C138.218 46.535 137.963 46.64 137.663 46.64ZM138.503 47.735V56H136.793V47.735H138.503ZM139.728 51.86C139.728 51.01 139.898 50.265 140.238 49.625C140.588 48.975 141.068 48.475 141.678 48.125C142.288 47.775 142.988 47.6 143.778 47.6C144.778 47.6 145.603 47.84 146.253 48.32C146.913 48.79 147.358 49.465 147.588 50.345H145.743C145.593 49.935 145.353 49.615 145.023 49.385C144.693 49.155 144.278 49.04 143.778 49.04C143.078 49.04 142.518 49.29 142.098 49.79C141.688 50.28 141.483 50.97 141.483 51.86C141.483 52.75 141.688 53.445 142.098 53.945C142.518 54.445 143.078 54.695 143.778 54.695C144.768 54.695 145.423 54.26 145.743 53.39H147.588C147.348 54.23 146.898 54.9 146.238 55.4C145.578 55.89 144.758 56.135 143.778 56.135C142.988 56.135 142.288 55.96 141.678 55.61C141.068 55.25 140.588 54.75 140.238 54.11C139.898 53.46 139.728 52.71 139.728 51.86ZM156.417 51.665C156.417 51.975 156.397 52.255 156.357 52.505H150.042C150.092 53.165 150.337 53.695 150.777 54.095C151.217 54.495 151.757 54.695 152.397 54.695C153.317 54.695 153.967 54.31 154.347 53.54H156.192C155.942 54.3 155.487 54.925 154.827 55.415C154.177 55.895 153.367 56.135 152.397 56.135C151.607 56.135 150.897 55.96 150.267 55.61C149.647 55.25 149.157 54.75 148.797 54.11C148.447 53.46 148.272 52.71 148.272 51.86C148.272 51.01 148.442 50.265 148.782 49.625C149.132 48.975 149.617 48.475 150.237 48.125C150.867 47.775 151.587 47.6 152.397 47.6C153.177 47.6 153.872 47.77 154.482 48.11C155.092 48.45 155.567 48.93 155.907 49.55C156.247 50.16 156.417 50.865 156.417 51.665ZM154.632 51.125C154.622 50.495 154.397 49.99 153.957 49.61C153.517 49.23 152.972 49.04 152.322 49.04C151.732 49.04 151.227 49.23 150.807 49.61C150.387 49.98 150.137 50.485 150.057 51.125H154.632ZM160.65 56.135C160 56.135 159.415 56.02 158.895 55.79C158.385 55.55 157.98 55.23 157.68 54.83C157.38 54.42 157.22 53.965 157.2 53.465H158.97C159 53.815 159.165 54.11 159.465 54.35C159.775 54.58 160.16 54.695 160.62 54.695C161.1 54.695 161.47 54.605 161.73 54.425C162 54.235 162.135 53.995 162.135 53.705C162.135 53.395 161.985 53.165 161.685 53.015C161.395 52.865 160.93 52.7 160.29 52.52C159.67 52.35 159.165 52.185 158.775 52.025C158.385 51.865 158.045 51.62 157.755 51.29C157.475 50.96 157.335 50.525 157.335 49.985C157.335 49.545 157.465 49.145 157.725 48.785C157.985 48.415 158.355 48.125 158.835 47.915C159.325 47.705 159.885 47.6 160.515 47.6C161.455 47.6 162.21 47.84 162.78 48.32C163.36 48.79 163.67 49.435 163.71 50.255H162C161.97 49.885 161.82 49.59 161.55 49.37C161.28 49.15 160.915 49.04 160.455 49.04C160.005 49.04 159.66 49.125 159.42 49.295C159.18 49.465 159.06 49.69 159.06 49.97C159.06 50.19 159.14 50.375 159.3 50.525C159.46 50.675 159.655 50.795 159.885 50.885C160.115 50.965 160.455 51.07 160.905 51.2C161.505 51.36 161.995 51.525 162.375 51.695C162.765 51.855 163.1 52.095 163.38 52.415C163.66 52.735 163.805 53.16 163.815 53.69C163.815 54.16 163.685 54.58 163.425 54.95C163.165 55.32 162.795 55.61 162.315 55.82C161.845 56.03 161.29 56.135 160.65 56.135Z" fill="#969696"/>
<path fill-rule="evenodd" clip-rule="evenodd" d="M44.2276 19.1972C44.0831 19.3525 44 19.5916 44 19.9024V30.9544C44 31.2651 44.0831 31.5042 44.233 31.6542L44.2722 31.6873L50.4649 25.4946V25.3554L44.2668 19.1641L44.2276 19.1972Z" fill="url(#paint0_linear_3352_8060)"/>
<path fill-rule="evenodd" clip-rule="evenodd" d="M52.5265 27.5671L50.4609 25.5009V25.3563L52.5272 23.29L52.5718 23.3177L55.0156 24.7065C55.7154 25.101 55.7154 25.7508 55.0156 26.1507L52.5718 27.5394C52.5711 27.5394 52.5265 27.5671 52.5265 27.5671Z" fill="url(#paint1_linear_3352_8060)"/>
<path fill-rule="evenodd" clip-rule="evenodd" d="M52.5686 27.5391L50.4585 25.4282L44.2266 31.6601C44.4542 31.9046 44.8372 31.9323 45.2654 31.6932L52.5686 27.5391Z" fill="url(#paint2_linear_3352_8060)"/>
<path fill-rule="evenodd" clip-rule="evenodd" d="M52.5686 23.3179L45.2654 19.1691C44.8379 18.9246 44.4542 18.9577 44.2266 19.2022L50.4578 25.4281L52.5686 23.3179Z" fill="url(#paint3_linear_3352_8060)"/>
<path opacity="0.2" fill-rule="evenodd" clip-rule="evenodd" d="M52.5265 27.4946L45.2732 31.6157C44.868 31.8487 44.5066 31.8325 44.2736 31.6211L44.2344 31.6603L44.2736 31.6934C44.5066 31.9041 44.868 31.921 45.2732 31.688L52.5764 27.5392L52.5265 27.4946Z" fill="black"/>
<path opacity="0.12" fill-rule="evenodd" clip-rule="evenodd" d="M55.0095 26.078L52.5156 27.4945L52.5602 27.5391L55.0041 26.1503C55.354 25.9504 55.5262 25.6896 55.5262 25.4282C55.5039 25.6673 55.3263 25.895 55.0095 26.078Z" fill="black"/>
<path opacity="0.25" fill-rule="evenodd" clip-rule="evenodd" d="M45.2665 19.2418L55.0135 24.7793C55.3303 24.9569 55.508 25.19 55.5357 25.4291C55.5357 25.1683 55.3634 24.9069 55.0135 24.707L45.2665 19.1695C44.5667 18.7696 44 19.1026 44 19.9024V19.9746C44 19.1749 44.5667 18.8473 45.2665 19.2418Z" fill="white"/>
<defs>
<linearGradient id="paint0_linear_3352_8060" x1="49.9088" y1="19.7836" x2="39.9892" y2="22.4267" gradientUnits="userSpaceOnUse">
<stop stop-color="#00A0FF"/>
<stop offset="0.007" stop-color="#00A1FF"/>
<stop offset="0.26" stop-color="#00BEFF"/>
<stop offset="0.512" stop-color="#00D2FF"/>
<stop offset="0.76" stop-color="#00DFFF"/>
<stop offset="1" stop-color="#00E3FF"/>
</linearGradient>
<linearGradient id="paint1_linear_3352_8060" x1="55.9263" y1="25.4289" x2="43.8313" y2="25.4289" gradientUnits="userSpaceOnUse">
<stop stop-color="#FFE000"/>
<stop offset="0.409" stop-color="#FFBD00"/>
<stop offset="0.775" stop-color="#FFA500"/>
<stop offset="1" stop-color="#FF9C00"/>
</linearGradient>
<linearGradient id="paint2_linear_3352_8060" x1="51.4212" y1="26.5765" x2="43.4576" y2="39.9797" gradientUnits="userSpaceOnUse">
<stop stop-color="#FF3A44"/>
<stop offset="1" stop-color="#C31162"/>
</linearGradient>
<linearGradient id="paint3_linear_3352_8060" x1="42.6578" y1="15.5204" x2="46.2106" y2="21.5065" gradientUnits="userSpaceOnUse">
<stop stop-color="#32A071"/>
<stop offset="0.069" stop-color="#2DA771"/>
<stop offset="0.476" stop-color="#15CF74"/>
<stop offset="0.801" stop-color="#06E775"/>
<stop offset="1" stop-color="#00F076"/>
</linearGradient>
</defs>
</svg>
