<svg width="51" height="37" viewBox="0 0 51 37" fill="none" xmlns="http://www.w3.org/2000/svg">
<path d="M47.1633 11.5019C46.9995 11.2289 46.7811 11.0105 46.6173 10.7375L46.5081 10.6283C45.0339 8.49886 43.2867 6.64246 41.3211 5.11367C39.4647 3.63947 37.7721 2.60207 35.4243 1.40087C33.9502 0.636476 32.0392 -0.182522 30.6742 0.0358771C29.8552 0.199677 28.927 0.691076 28.3264 1.40087C27.835 1.45547 27.3982 1.56467 26.9068 1.67387C24.8866 2.38367 23.6854 3.91247 22.4842 5.44127C22.2658 5.71427 22.0474 6.04186 21.829 6.31486C21.7744 6.36946 21.6106 6.58786 21.3922 6.91546C20.9008 7.57066 19.4812 9.48166 18.9898 9.97306L12.9292 8.77186C12.3832 8.60806 11.7826 8.55346 11.182 8.55346C6.86861 8.55346 2.50062 12.8123 0.753421 18.709C-1.26677 25.5886 0.91722 32.3044 5.61281 33.6694C6.15881 33.8332 6.75941 33.9424 7.36001 33.9424C8.0698 34.8706 9.544 35.4166 10.1992 35.5804C13.2568 36.2356 16.4236 36.454 19.4812 36.6724L20.9008 36.7816C22.8664 36.9454 24.7228 37 26.47 37C28.2172 37 29.9098 36.9454 31.5478 36.7816C32.1484 36.727 32.8036 36.6724 33.3496 36.3994C33.8955 36.1264 34.3323 35.7442 34.7691 35.4166C35.4789 34.816 36.1341 34.2154 36.8439 33.6148C39.4647 31.3216 42.1401 28.9738 44.6517 26.4622C45.9621 25.0972 47.3817 23.6776 48.5829 22.0396C49.2927 21.0568 50.2209 19.7464 50.2209 18.3268C50.2209 15.7606 48.5283 13.4128 47.1633 11.5019ZM22.2658 7.57066C22.4842 7.29766 22.648 7.07926 22.648 7.02466L23.3032 6.20566C23.467 6.36946 23.74 6.42406 24.013 6.31486C24.286 6.15106 24.3952 5.82346 24.286 5.49587C24.2314 5.38667 24.1768 5.33207 24.0676 5.27747C24.832 4.29467 25.651 3.47567 26.6884 2.92967C26.8522 3.03887 27.0706 3.03887 27.2344 2.98427C27.3982 2.92967 27.5074 2.76587 27.5074 2.60207C27.9442 2.49287 28.381 2.43827 28.8178 2.43827C29.9098 2.43827 30.9472 2.82047 31.6024 3.47567C31.93 3.74867 32.1484 4.13087 32.3668 4.56767V4.67687L32.4214 4.73147C32.749 5.55047 32.9674 6.53326 32.9674 7.78906C32.9674 8.66266 32.9674 9.53626 33.022 10.4645C32.9128 10.4645 32.8582 10.4645 32.749 10.5191C32.476 10.6829 32.3668 11.0105 32.476 11.3381C32.5852 11.5565 32.8036 11.6657 33.022 11.6657V11.9933C33.022 13.4128 33.0766 14.8324 33.0766 16.1974V17.071C32.9674 17.071 32.9128 17.071 32.8036 17.1256C32.5306 17.2894 32.4214 17.617 32.5306 17.9446C32.6398 18.163 32.8582 18.2722 33.0766 18.2722V18.8182C33.1312 20.4562 33.1311 22.0942 33.1311 23.7322C33.0765 23.7322 32.9674 23.7322 32.9128 23.7868C32.6398 23.9506 32.5306 24.2782 32.6398 24.6058C32.749 24.7696 32.9128 24.8788 33.0766 24.9334C33.0766 25.3156 33.022 25.6432 33.022 26.0254C32.9674 25.9708 32.9674 25.9162 32.9128 25.9162C32.749 25.7524 32.476 25.7524 32.2576 25.8616C31.9846 26.0254 31.8754 26.353 31.9846 26.6806C32.0392 26.8444 32.203 26.9536 32.3122 26.9536C32.4214 26.9536 32.6398 27.0082 32.749 26.899C32.8036 26.8444 32.8582 26.8444 32.9128 26.7898C32.8582 27.7726 32.749 28.7554 32.5852 29.7382C32.5306 30.0112 32.4214 30.2842 32.3122 30.2842C32.1484 30.2842 31.93 30.175 31.7116 30.0112C31.7116 29.9566 31.657 29.9566 31.657 29.902C31.6024 29.8474 31.5478 29.8474 31.4932 29.7928C31.2202 29.5744 30.8926 29.2468 30.6742 28.9192C30.5104 28.7008 30.4012 28.4824 30.2374 28.2094C30.3466 28.1548 30.4558 28.0456 30.5104 27.8818C30.5104 27.8272 30.565 27.718 30.5104 27.6634C30.5104 27.6088 30.5104 27.4996 30.4558 27.445C30.4012 27.2812 30.2374 27.172 30.1282 27.172C30.019 27.1174 29.8552 27.1174 29.746 27.172C29.6368 26.899 29.5276 26.626 29.3638 26.353C29.2546 26.08 29.0908 25.7524 28.9816 25.4794C29.1454 25.3156 29.2 25.0426 29.0908 24.7696L28.927 24.6058C28.8178 24.4966 28.654 24.442 28.4902 24.4966C28.2172 23.896 27.9442 23.2954 27.7258 22.6948C27.7804 22.531 27.835 22.3672 27.7258 22.1488C27.6712 21.985 27.5074 21.8758 27.3982 21.8758C27.3982 21.8212 27.3436 21.8212 27.3436 21.7666C27.016 21.0022 26.6884 20.2924 26.3608 19.528L26.0332 18.8182C25.105 16.4158 24.013 13.9588 22.375 12.0479L22.4296 11.9933C22.4296 11.9387 22.4842 11.8295 22.4296 11.7749C22.375 11.7203 22.4296 11.6111 22.375 11.5565C22.2112 11.2835 21.8836 11.1743 21.6106 11.2835C21.1738 10.9013 20.6278 10.6283 20.1364 10.4099C20.3002 10.2461 20.464 10.0277 20.6824 9.75466C20.737 9.75466 20.737 9.75466 20.7916 9.70006C21.01 9.59086 21.0646 9.42706 21.1192 9.20866C21.3922 8.71726 21.7744 8.22586 22.2658 7.57066ZM7.46921 32.7958C6.97781 32.7958 6.43181 32.7412 5.94041 32.5774C1.79082 31.3762 -0.0655772 25.261 1.79082 18.982C3.42882 13.5766 7.36001 9.64546 11.182 9.64546C11.4004 9.64546 11.6188 9.64546 11.8372 9.70006L12.6016 9.86386H12.6562C16.8058 11.1197 18.6622 17.2348 16.8058 23.4592C15.2224 28.8646 11.2912 32.7958 7.46921 32.7958ZM47.6547 21.3298C46.5081 22.9132 45.1431 24.3328 43.8327 25.6432C41.3757 28.1002 38.7003 30.448 36.0795 32.7412C35.3697 33.3418 34.7145 33.9424 34.0048 34.543C33.6772 34.8706 33.2949 35.1982 32.8582 35.362C32.4214 35.5258 31.93 35.5804 31.384 35.635C28.1626 35.908 24.7228 35.908 20.9008 35.635L19.4812 35.5258C16.4782 35.3074 13.3114 35.089 10.3084 34.4338C9.9262 34.3792 9.2164 34.1062 8.6704 33.724C12.4924 32.9596 16.2052 28.9738 17.7886 23.7322C19.372 18.3814 18.3892 13.1398 15.6592 10.4099L18.8806 11.0651C19.099 11.1197 20.3002 11.6111 20.9554 12.2117C22.7572 14.0134 23.9038 16.5796 24.9958 19.0912L25.3234 19.8556C25.651 20.62 25.9786 21.3298 26.3062 22.0942C26.7976 23.2954 27.3436 24.4966 27.8896 25.6978C28.0534 26.0254 28.1626 26.353 28.3264 26.6806C28.7086 27.6088 29.1454 28.5916 29.746 29.4106C29.8006 29.4652 31.0564 31.2124 32.3122 31.2124H32.3668C32.749 31.2124 33.4587 30.994 33.6771 29.7382C34.2777 26.08 34.2231 22.3126 34.1685 18.709C34.1685 17.8354 34.1139 17.0164 34.1139 16.1428C34.1139 14.7232 34.0594 13.3036 34.0594 11.9387C34.0594 10.5737 34.0048 9.15406 34.0048 7.78906C34.0048 6.15106 33.6771 4.78607 33.0766 3.74867C35.4789 4.78607 37.7175 6.15106 39.5739 7.84366C43.1229 10.9559 45.5799 14.7232 45.6345 14.7232C45.7437 14.887 45.9075 14.9962 46.0713 14.9962C46.1805 14.9962 46.2897 14.9416 46.3443 14.887C46.6173 14.7232 46.6719 14.3956 46.5081 14.1226C46.5081 14.0134 44.0511 10.2461 40.3929 7.02466C37.7175 4.67687 34.4415 2.87507 30.838 1.72847C30.565 1.61927 30.2374 1.51007 29.9098 1.45547C30.2374 1.29167 30.565 1.12787 30.838 1.07327C31.9846 0.854875 34.114 1.94687 34.8783 2.32907C37.1715 3.47567 38.8095 4.51307 40.6113 5.93267C42.4677 7.40686 44.1603 9.20866 45.5799 11.2289L45.6891 11.3381C45.8529 11.6111 46.0713 11.8295 46.2351 12.1025C47.6001 13.9588 49.1289 16.0882 49.1289 18.2176C49.1289 19.3096 48.3099 20.4016 47.6547 21.3298ZM32.3122 7.02466C32.3668 7.02466 32.476 7.02466 32.5306 6.97006L32.6944 6.80626C32.749 6.75166 32.8036 6.69706 32.8036 6.58786C32.8582 6.42406 32.8582 6.26026 32.749 6.15106C32.6944 5.98726 32.5306 5.87806 32.4214 5.87806C32.2576 5.82347 32.0938 5.82347 31.9846 5.93267C31.8208 5.98726 31.7662 6.15106 31.7116 6.26026C31.657 6.42406 31.657 6.58786 31.7662 6.69706C31.8754 6.91546 32.0938 7.02466 32.3122 7.02466ZM30.9472 4.34927C31.0018 4.34927 31.111 4.34927 31.1656 4.29467L31.3294 4.13087C31.4932 3.96707 31.4932 3.69407 31.384 3.47567C31.3294 3.31187 31.1656 3.20267 31.0564 3.20267C30.8926 3.14807 30.7288 3.14807 30.6196 3.25727C30.3466 3.42107 30.2374 3.74867 30.3466 4.07627C30.5104 4.29467 30.7288 4.40387 30.9472 4.34927Z" fill="#5A5A5A"/>
<path d="M29.0781 7.79467C29.0781 7.84927 29.0781 7.95847 29.1327 8.01307C29.2965 8.28606 29.6241 8.39526 29.9517 8.28606L30.1155 8.12227C30.2247 8.01307 30.2793 7.84927 30.2247 7.68547C30.2247 7.63087 30.2247 7.52167 30.1701 7.46707C30.1155 7.30327 29.9517 7.19407 29.8425 7.19407C29.6787 7.13947 29.5149 7.13947 29.4057 7.24867C29.1873 7.35787 29.0781 7.57627 29.0781 7.79467Z" fill="#5A5A5A"/>
<path d="M27.7766 5.38607C27.9282 5.68107 28.2903 5.79728 28.5853 5.64563C28.8803 5.49398 28.9966 5.13189 28.8449 4.83689C28.6933 4.54188 28.3312 4.42567 28.0362 4.57732C27.7412 4.72897 27.6249 5.09106 27.7766 5.38607Z" fill="#5A5A5A"/>
<path d="M27.1203 7.37239C27.272 7.6674 27.6341 7.78361 27.9291 7.63196C28.2241 7.48031 28.3403 7.11822 28.1887 6.82322C28.037 6.52821 27.6749 6.412 27.3799 6.56365C27.0849 6.7153 26.9687 7.07739 27.1203 7.37239Z" fill="#5A5A5A"/>
<path d="M29.7688 6.02669C29.9204 6.32169 30.2825 6.4379 30.5775 6.28625C30.8725 6.1346 30.9887 5.77252 30.8371 5.47751C30.6854 5.18251 30.3234 5.0663 30.0283 5.21795C29.7333 5.3696 29.6171 5.73168 29.7688 6.02669Z" fill="#5A5A5A"/>
<path d="M25.8 4.7181C25.9517 5.0131 26.3138 5.12931 26.6088 4.97766C26.9038 4.82601 27.02 4.46393 26.8683 4.16892C26.7167 3.87392 26.3546 3.7577 26.0596 3.90935C25.7646 4.061 25.6484 4.42309 25.8 4.7181Z" fill="#5A5A5A"/>
<path d="M28.3547 3.38997C28.5064 3.68497 28.8685 3.80119 29.1635 3.64954C29.4585 3.49788 29.5747 3.1358 29.423 2.84079C29.2714 2.54579 28.9093 2.42958 28.6143 2.58123C28.3193 2.73288 28.2031 3.09496 28.3547 3.38997Z" fill="#5A5A5A"/>
<path d="M26.4766 9.14359C26.4766 9.19819 26.4766 9.30739 26.5312 9.36199L26.695 9.52579C26.8042 9.63499 26.968 9.68959 27.1318 9.68959C27.1864 9.68959 27.2956 9.68959 27.3502 9.63499C27.6232 9.47119 27.7324 9.14359 27.6232 8.81599L27.4594 8.65219C27.2956 8.48839 27.0226 8.48839 26.8042 8.59759C26.5858 8.65219 26.4766 8.92519 26.4766 9.14359Z" fill="#5A5A5A"/>
<path d="M25.1516 6.73177C25.3032 7.02677 25.6653 7.14298 25.9603 6.99133C26.2553 6.83968 26.3716 6.4776 26.2199 6.18259C26.0682 5.88759 25.7062 5.77137 25.4112 5.92303C25.1162 6.07468 24.9999 6.43676 25.1516 6.73177Z" fill="#5A5A5A"/>
<path d="M32.1088 12.4784C31.8904 12.5876 31.7812 12.806 31.7812 13.0244C31.7812 13.079 31.7812 13.1882 31.8358 13.2428C31.9996 13.5158 32.3272 13.625 32.6548 13.5158C32.8186 13.4612 32.8732 13.2974 32.9278 13.1883C32.9824 13.0245 32.9824 12.8606 32.8732 12.7514C32.8186 12.5876 32.6548 12.4784 32.5456 12.4784C32.4364 12.4239 32.2726 12.4239 32.1088 12.4784Z" fill="#5A5A5A"/>
<path d="M31.5672 10.1667C31.4155 9.87167 31.0534 9.75545 30.7584 9.9071C30.4634 10.0588 30.3472 10.4208 30.4989 10.7158C30.6505 11.0109 31.0126 11.1271 31.3076 10.9754C31.6026 10.8238 31.7188 10.4617 31.5672 10.1667Z" fill="#5A5A5A"/>
<path d="M30.9265 12.1198C30.7749 11.8248 30.4128 11.7086 30.1178 11.8602C29.8228 12.0119 29.7066 12.374 29.8582 12.669C30.0099 12.964 30.372 13.0802 30.667 12.9285C30.962 12.7769 31.0782 12.4148 30.9265 12.1198Z" fill="#5A5A5A"/>
<path d="M29.575 9.50065C29.4233 9.20565 29.0612 9.08944 28.7662 9.24109C28.4712 9.39274 28.355 9.75482 28.5067 10.0498C28.6583 10.3448 29.0204 10.461 29.3154 10.3094C29.6104 10.1577 29.7266 9.79566 29.575 9.50065Z" fill="#5A5A5A"/>
<path d="M31.4167 7.88401C31.1217 8.03566 31.0055 8.39775 31.1571 8.69275C31.3088 8.98776 31.6708 9.10397 31.9658 8.95232C32.2609 8.80067 32.3771 8.43859 32.2254 8.14358C32.0738 7.84857 31.7117 7.73236 31.4167 7.88401Z" fill="#5A5A5A"/>
<path d="M29.4682 13.8448C29.2498 13.954 29.1406 14.1724 29.1406 14.3908C29.1406 14.4454 29.1406 14.5546 29.1952 14.6092C29.3044 14.8276 29.5228 14.9368 29.7412 14.9368C29.7958 14.9368 29.905 14.9368 29.9596 14.8822L30.1234 14.7184C30.2872 14.5546 30.2872 14.2816 30.178 14.0632L30.0142 13.8994C29.9596 13.8448 29.905 13.7902 29.7958 13.7902C29.7958 13.7356 29.632 13.7902 29.4682 13.8448Z" fill="#5A5A5A"/>
<path d="M31.2297 15.2786C31.3814 15.5736 31.7435 15.6899 32.0385 15.5382C32.3335 15.3866 32.4497 15.0245 32.298 14.7295C32.1464 14.4345 31.7843 14.3183 31.4893 14.4699C31.1943 14.6216 31.0781 14.9836 31.2297 15.2786Z" fill="#5A5A5A"/>
<path d="M31.4017 17.5069C31.6747 17.3431 31.7839 17.0155 31.6747 16.6879C31.5109 16.4149 31.1833 16.3057 30.8557 16.4149C30.6919 16.4695 30.6373 16.6333 30.5827 16.7425C30.5281 16.9063 30.5281 17.0701 30.6373 17.1793C30.7465 17.3977 30.9649 17.5069 31.1833 17.5069C31.2925 17.6161 31.3471 17.5615 31.4017 17.5069Z" fill="#5A5A5A"/>
<path d="M22.5578 8.07161C22.7095 8.36662 23.0716 8.48283 23.3666 8.33118C23.6616 8.17953 23.7778 7.81744 23.6261 7.52243C23.4745 7.22743 23.1124 7.11122 22.8174 7.26287C22.5224 7.41452 22.4062 7.77661 22.5578 8.07161Z" fill="#5A5A5A"/>
<path d="M21.9407 10.0618C22.0923 10.3569 22.4544 10.4731 22.7494 10.3214C23.0444 10.1698 23.1606 9.80768 23.009 9.51267C22.8573 9.21767 22.4952 9.10145 22.2002 9.2531C21.9052 9.40475 21.789 9.76684 21.9407 10.0618Z" fill="#5A5A5A"/>
<path d="M24.5578 8.72591C24.7095 9.02091 25.0716 9.13712 25.3666 8.98547C25.6616 8.83382 25.7778 8.47174 25.6261 8.17673C25.4745 7.88173 25.1124 7.76552 24.8174 7.91717C24.5224 8.06882 24.4062 8.4309 24.5578 8.72591Z" fill="#5A5A5A"/>
<path d="M27.6183 16.0878C27.7275 15.9786 27.7821 15.8148 27.7275 15.651C27.7275 15.5964 27.7275 15.4872 27.6729 15.4326C27.5091 15.1596 27.1815 15.0504 26.8539 15.1596C26.5809 15.3234 26.4717 15.651 26.5809 15.9786L26.7447 16.1424C26.8539 16.2516 27.0177 16.3062 27.1815 16.3062C27.2361 16.3062 27.3453 16.3062 27.3999 16.2516C27.5091 16.197 27.5637 16.1424 27.6183 16.0878ZM28.1643 11.2284C27.8913 11.3922 27.7821 11.7198 27.8913 12.0474C28.0551 12.3204 28.3827 12.4296 28.7103 12.3204C28.9833 12.1566 29.0925 11.829 28.9833 11.5014C28.9287 11.3376 28.7649 11.2284 28.6557 11.2284C28.4373 11.1192 28.2735 11.1192 28.1643 11.2284Z" fill="#5A5A5A"/>
<path d="M26.0833 13.6082C26.3783 13.4565 26.4945 13.0944 26.3429 12.7994C26.1912 12.5044 25.8292 12.3882 25.5342 12.5399C25.2391 12.6915 25.1229 13.0536 25.2746 13.3486C25.4262 13.6436 25.7883 13.7598 26.0833 13.6082Z" fill="#5A5A5A"/>
<path d="M25.7234 14.8229C25.5718 14.5279 25.2097 14.4117 24.9147 14.5634C24.6197 14.715 24.5034 15.0771 24.6551 15.3721C24.8068 15.6671 25.1688 15.7833 25.4638 15.6317C25.7588 15.48 25.8751 15.1179 25.7234 14.8229Z" fill="#5A5A5A"/>
<path d="M28.3562 13.4616C28.2046 13.1666 27.8425 13.0504 27.5475 13.202C27.2525 13.3537 27.1363 13.7158 27.2879 14.0108C27.4396 14.3058 27.8017 14.422 28.0967 14.2703C28.3917 14.1187 28.5079 13.7566 28.3562 13.4616Z" fill="#5A5A5A"/>
<path d="M23.5182 11.9055C23.2232 12.0572 23.107 12.4192 23.2587 12.7142C23.4103 13.0092 23.7724 13.1255 24.0674 12.9738C24.3624 12.8222 24.4786 12.4601 24.327 12.1651C24.1753 11.8701 23.8132 11.7538 23.5182 11.9055Z" fill="#5A5A5A"/>
<path d="M25.9172 11.3158C26.0689 11.6108 26.431 11.727 26.726 11.5753C27.021 11.4237 27.1372 11.0616 26.9855 10.7666C26.8339 10.4716 26.4718 10.3554 26.1768 10.507C25.8818 10.6587 25.7656 11.0207 25.9172 11.3158Z" fill="#5A5A5A"/>
<path d="M24.0649 10.9009C24.1741 11.0101 24.3379 11.0647 24.5017 11.0647C24.5563 11.0647 24.6655 11.0647 24.7201 11.0101C24.8839 10.9555 24.9385 10.7917 24.9931 10.6825C25.0477 10.5187 25.0477 10.3549 24.9385 10.2457L24.7747 10.0819C24.6109 9.91808 24.3379 9.91808 24.1195 10.0273C23.8465 10.1911 23.7373 10.5187 23.8465 10.8463C23.9557 10.7917 24.0103 10.8463 24.0649 10.9009Z" fill="#5A5A5A"/>
<path d="M28.7865 18.8484C29.0815 18.6968 29.1977 18.3347 29.046 18.0397C28.8944 17.7447 28.5323 17.6284 28.2373 17.7801C27.9423 17.9318 27.8261 18.2938 27.9777 18.5888C28.1294 18.8838 28.4914 19.0001 28.7865 18.8484Z" fill="#5A5A5A"/>
<path d="M28.4422 20.0729C28.2905 19.7779 27.9284 19.6617 27.6334 19.8134C27.3384 19.965 27.2222 20.3271 27.3739 20.6221C27.5255 20.9171 27.8876 21.0333 28.1826 20.8817C28.4776 20.73 28.5938 20.3679 28.4422 20.0729Z" fill="#5A5A5A"/>
<path d="M31.0125 18.7253C30.8608 18.4303 30.4987 18.314 30.2037 18.4657C29.9087 18.6173 29.7925 18.9794 29.9442 19.2744C30.0958 19.5694 30.4579 19.6857 30.7529 19.534C31.0479 19.3824 31.1641 19.0203 31.0125 18.7253Z" fill="#5A5A5A"/>
<path d="M27.0828 17.4401C26.9311 17.1451 26.569 17.0289 26.274 17.1805C25.979 17.3322 25.8628 17.6943 26.0145 17.9893C26.1661 18.2843 26.5282 18.4005 26.8232 18.2488C27.1182 18.0972 27.2344 17.7351 27.0828 17.4401Z" fill="#5A5A5A"/>
<path d="M29.6922 16.0983C29.5405 15.8033 29.1784 15.6871 28.8834 15.8387C28.5884 15.9904 28.4722 16.3525 28.6238 16.6475C28.7755 16.9425 29.1376 17.0587 29.4326 16.9071C29.7276 16.7554 29.8438 16.3933 29.6922 16.0983Z" fill="#5A5A5A"/>
<path d="M31.4818 24.1648C31.7768 24.0132 31.893 23.6511 31.7413 23.3561C31.5897 23.0611 31.2276 22.9449 30.9326 23.0965C30.6376 23.2482 30.5214 23.6102 30.673 23.9052C30.8247 24.2003 31.1868 24.3165 31.4818 24.1648Z" fill="#5A5A5A"/>
<path d="M31.1218 25.3503C30.9702 25.0553 30.6081 24.939 30.3131 25.0907C30.0181 25.2423 29.9019 25.6044 30.0535 25.8994C30.2052 26.1944 30.5673 26.3107 30.8623 26.159C31.1573 26.0074 31.2735 25.6453 31.1218 25.3503Z" fill="#5A5A5A"/>
<path d="M29.7859 22.7096C29.6343 22.4146 29.2722 22.2984 28.9772 22.4501C28.6822 22.6017 28.5659 22.9638 28.7176 23.2588C28.8693 23.5538 29.2313 23.67 29.5263 23.5184C29.8213 23.3667 29.9376 23.0046 29.7859 22.7096Z" fill="#5A5A5A"/>
<path d="M32.3875 21.3327C32.2358 21.0377 31.8737 20.9215 31.5787 21.0731C31.2837 21.2248 31.1675 21.5869 31.3192 21.8819C31.4708 22.1769 31.8329 22.2931 32.1279 22.1414C32.4229 21.9898 32.5391 21.6277 32.3875 21.3327Z" fill="#5A5A5A"/>
<path d="M31.9109 19.4702C31.8563 19.634 31.8563 19.7978 31.9655 19.907L32.1293 20.0708C32.2385 20.18 32.4023 20.2346 32.5661 20.2346C32.6207 20.2346 32.7299 20.2346 32.7845 20.18C32.9483 20.1254 33.0029 19.9616 33.0575 19.8524C33.1121 19.7432 33.1121 19.5248 33.0029 19.4156L32.8391 19.2518C32.6753 19.088 32.4023 19.088 32.1839 19.1972C32.0201 19.1972 31.9655 19.3064 31.9109 19.4702Z" fill="#5A5A5A"/>
<path d="M30.1302 21.5515C30.4252 21.3999 30.5414 21.0378 30.3898 20.7428C30.2381 20.4478 29.876 20.3316 29.581 20.4832C29.286 20.6349 29.1698 20.997 29.3215 21.292C29.4731 21.587 29.8352 21.7032 30.1302 21.5515Z" fill="#5A5A5A"/>
<path d="M32.4968 27.9499C32.3452 27.6549 31.9831 27.5387 31.6881 27.6903C31.3931 27.842 31.2769 28.204 31.4285 28.499C31.5802 28.7941 31.9423 28.9103 32.2373 28.7586C32.5323 28.607 32.6485 28.2449 32.4968 27.9499Z" fill="#5A5A5A"/>
<path d="M4.92891 31.0051C4.76511 31.0051 4.60131 30.9505 4.49212 30.7867C2.14432 28.0021 1.43452 23.6341 2.74492 19.3207C4.00072 15.0074 7.11291 11.6222 10.6073 10.6394C10.8803 10.5848 11.2079 10.7486 11.2625 11.0216C11.3171 11.2946 11.1533 11.6222 10.8803 11.6768C7.71351 12.5504 4.92891 15.6626 3.78232 19.5937C2.63572 23.4703 3.23632 27.5653 5.36571 30.0223C5.58411 30.2407 5.52951 30.6229 5.31111 30.7867C5.14731 30.9505 5.03811 31.0051 4.92891 31.0051ZM11.6447 16.5908C11.4809 16.5362 11.3171 16.5362 11.2079 16.6454C10.9895 16.7546 10.8803 16.973 10.8803 17.1914C10.8803 17.246 10.8803 17.3552 10.9349 17.4098C11.0987 17.6828 11.4263 17.792 11.7539 17.6828L11.9177 17.519C11.9723 17.4644 12.0269 17.4098 12.0269 17.3006C12.0815 17.1368 12.0815 16.973 11.9723 16.8638C11.9177 16.7546 11.7539 16.6454 11.6447 16.5908Z" fill="#5A5A5A"/>
<path d="M13.9265 17.4948C13.7749 17.1998 13.4128 17.0836 13.1178 17.2352C12.8228 17.3869 12.7066 17.749 12.8582 18.044C13.0099 18.339 13.372 18.4552 13.667 18.3035C13.962 18.1519 14.0782 17.7898 13.9265 17.4948Z" fill="#5A5A5A"/>
<path d="M15.0092 15.0483C14.081 14.0655 12.7707 13.5195 11.5149 13.5195C10.4229 13.5195 9.44006 13.9017 8.73026 14.6115C8.18426 15.1575 7.80206 15.8673 7.69286 16.6317C7.47446 17.8329 8.56646 18.2151 9.33086 18.5427C9.82226 18.7611 10.3683 18.9249 10.7505 19.3071C11.1327 19.6893 11.2965 20.1807 11.5149 20.7267C11.7879 21.4911 12.1701 22.3647 13.1529 22.3647H13.4258C14.2448 22.2555 14.9546 21.8733 15.5006 21.3273C17.0294 19.6893 16.8656 16.9047 15.0092 15.0483ZM15.1184 19.9623C14.9546 19.8531 14.7362 19.7985 14.5178 19.9077C14.2448 20.0715 14.1356 20.3991 14.2448 20.7267C14.2448 20.7813 14.2994 20.8359 14.354 20.8359C14.0264 21.1089 13.5896 21.2727 13.1529 21.3273C12.8799 21.3819 12.7707 21.1635 12.4977 20.3445C12.4977 20.2899 12.4431 20.2899 12.4431 20.2353C12.6069 20.3445 12.8799 20.3991 13.0436 20.2899C13.262 20.1807 13.3712 19.9623 13.3712 19.7439C13.3712 19.6893 13.3712 19.5801 13.3166 19.5255L13.1529 19.3617C12.9891 19.1979 12.7161 19.1979 12.4977 19.3071C12.3339 19.4163 12.2247 19.5801 12.1701 19.7439C12.0063 19.3617 11.7879 18.9795 11.4603 18.5973C10.9143 18.0513 10.2591 17.8329 9.71306 17.5599C8.83946 17.2323 8.73026 17.0685 8.73026 16.8501C8.78486 16.6863 8.78486 16.5225 8.83946 16.4133C8.83946 16.5225 8.83946 16.6317 8.89406 16.7955C9.05786 17.0685 9.38546 17.1777 9.71306 17.0685C9.98606 16.9047 10.0953 16.5771 9.98606 16.2495C9.82226 15.9765 9.49466 15.8673 9.16706 15.9765L9.00326 16.1403C9.11246 15.8673 9.27626 15.6489 9.49466 15.4305C9.60386 15.3213 9.76766 15.2121 9.93146 15.1029C9.98606 15.1029 10.0407 15.1575 10.1499 15.1029C10.2045 15.1029 10.3137 15.1029 10.3683 15.0483L10.5321 14.8845C10.5867 14.8299 10.5867 14.8299 10.5867 14.7753C10.8597 14.6661 11.1873 14.6115 11.5149 14.6115H11.7879C11.5149 14.7753 11.4057 15.1029 11.5695 15.3759C11.7333 15.6489 12.0609 15.7581 12.3885 15.6489C12.6615 15.4851 12.7707 15.1575 12.6615 14.8299C12.6615 14.7753 12.6069 14.7207 12.5523 14.7207C12.9891 14.8299 13.3712 15.0483 13.7534 15.3213C13.5896 15.4305 13.4804 15.6489 13.535 15.8127C13.535 15.8673 13.535 15.9765 13.5896 16.0311C13.7534 16.3041 14.081 16.4133 14.4086 16.3041C14.5178 16.2495 14.5724 16.1949 14.627 16.0857C15.0638 16.6317 15.3368 17.2323 15.446 17.8329C15.3368 17.8329 15.2822 17.8329 15.173 17.8875C14.9 18.0513 14.7908 18.3789 14.9 18.7065C15.0092 18.9249 15.2276 19.0341 15.446 19.0341C15.3368 19.3617 15.2822 19.6347 15.1184 19.9623ZM7.58366 27.4971C7.41986 27.4971 7.25606 27.4971 7.03766 27.4425C6.49166 27.3333 5.89106 27.0603 5.34507 26.6781C5.12667 26.5143 5.07207 26.1321 5.23587 25.9137C5.39967 25.6953 5.78186 25.6407 6.00026 25.8045C6.38246 26.1321 6.81926 26.2959 7.20146 26.4051C7.63826 26.4597 8.02046 26.4051 8.34806 26.1867C9.16706 25.6407 9.65846 24.0573 9.71306 22.8561C9.76766 22.0371 9.44006 21.3819 8.73026 20.7267C8.51186 20.5083 8.51186 20.1807 8.73026 19.9623C8.94866 19.7439 9.27626 19.7439 9.49466 19.9623C10.4229 20.8359 10.8597 21.8187 10.8051 22.9653C10.7505 24.0573 10.3137 26.2959 8.94866 27.1695C8.62106 27.3879 8.12966 27.4971 7.58366 27.4971Z" fill="#5A5A5A"/>
<path d="M7.75394 24.9254C7.59014 24.9254 7.42634 24.9254 6.38895 24.0518C6.17055 23.8334 6.11595 23.5058 6.33435 23.2874C6.55275 23.069 6.88034 23.0144 7.09874 23.2328C7.69934 23.7242 7.91774 23.8334 7.97234 23.888C8.19074 23.9426 8.35454 24.161 8.35454 24.434C8.29994 24.6524 8.08154 24.9254 7.75394 24.9254Z" fill="#5A5A5A"/>
</svg>
