<svg width="41" height="53" viewBox="0 0 41 53" fill="none" xmlns="http://www.w3.org/2000/svg">
<path d="M5.56084 31.2564L5.53836 31.215L5.51067 31.1767C3.31662 28.151 2 24.4623 2 20.4438C2 10.2272 10.2834 1.94385 20.5 1.94385C30.7166 1.94385 39 10.2272 39 20.4438C39 24.4623 37.6834 28.151 35.4893 31.1767L35.4617 31.215L35.4392 31.2564C35.4055 31.3183 35.3833 31.3744 35.3686 31.4156C35.3603 31.4386 35.3526 31.4628 35.3472 31.48L22.5641 50.6545C22.1039 51.3447 21.3286 51.7591 20.5 51.7591C19.6714 51.7591 18.8961 51.3447 18.4359 50.6545L5.65331 31.4806C5.64782 31.4633 5.6396 31.438 5.63078 31.4136C5.61608 31.3728 5.59395 31.3174 5.56084 31.2564ZM13.3694 20.4438C13.3694 24.3818 16.5621 27.5744 20.5 27.5744C24.4379 27.5744 27.6305 24.3818 27.6305 20.4438C27.6305 16.5059 24.4379 13.3133 20.5 13.3133C16.5621 13.3133 13.3694 16.5059 13.3694 20.4438Z" fill="#89CEEF" stroke="white" stroke-width="2.33005"/>
<path d="M20.5024 34.0605C26.6954 34.0605 31.7158 29.0401 31.7158 22.8472C31.7158 16.6542 26.6954 11.6338 20.5024 11.6338C14.3095 11.6338 9.28906 16.6542 9.28906 22.8472C9.28906 29.0401 14.3095 34.0605 20.5024 34.0605Z" fill="#89CEEF"/>
<path d="M27.6125 12.8826C27.1808 12.8224 26.4681 13.0226 26.0045 13.1537C23.8237 13.7709 21.4527 16.1932 20.4094 17.4726C20.0309 17.9545 19.8066 19.0707 20.1946 19.6922C20.3553 19.9497 20.7232 20.0291 21.0356 20.1194C21.3347 20.2057 21.8808 20.1833 22.1854 20.1194C23.4411 19.8558 25.5378 19.4733 25.822 19.412C25.8425 19.4077 25.8604 19.4044 25.881 19.4014C26.0798 19.3704 27.0356 19.1384 28.0146 18.6224C28.1939 18.5278 28.2155 18.5105 28.5504 18.2426C28.8855 17.8406 28.9957 17.5385 29.1536 17.1036C29.5405 16.0371 29.2385 15.1605 29.0865 14.5576C28.9177 13.8876 28.3775 12.9893 27.6125 12.8826Z" fill="white"/>
<path d="M18.9549 23.8575C18.1971 28.6866 16.0957 31.7753 13.5497 32.1102C12.6787 32.1772 12.3438 32.1102 12.3438 32.1102C12.3797 31.1264 13.4721 28.2099 13.9501 25.1643C14.7078 20.3351 14.164 14.1462 16.3567 14.4903C18.5495 14.8344 19.7126 19.0282 18.9549 23.8575Z" fill="white"/>
</svg>
