<svg width="51" height="50" viewBox="0 0 51 50" fill="none" xmlns="http://www.w3.org/2000/svg">
<rect x="0.398438" width="50" height="50" rx="10" fill="url(#paint0_linear_1656_5260)"/>
<path d="M21.071 28.9863L20.4177 35.93C20.4177 35.93 20.1442 38.0576 22.2713 35.93C24.3985 33.8024 26.4345 32.1617 26.4345 32.1617" fill="#A9C6D8"/>
<path d="M16.5625 26.5684L19.9659 35.9887C19.9659 35.9887 20.3915 36.8701 20.8471 36.8701C21.3027 36.8701 28.0798 29.8198 28.0798 29.8198L35.616 15.2637L16.6839 24.1367L16.5625 26.5684Z" fill="#C8DAEA"/>
<path d="M16.6217 26.9053L9.62073 24.6243C9.62073 24.6243 8.78403 24.2848 9.05345 23.515C9.10891 23.3563 9.22079 23.2212 9.55547 22.9891C11.1067 21.9079 38.2676 12.1455 38.2676 12.1455C38.2676 12.1455 39.0345 11.8871 39.4867 12.059C39.5986 12.0936 39.6993 12.1574 39.7785 12.2437C39.8577 12.33 39.9125 12.4358 39.9374 12.5503C39.9862 12.7524 40.0067 12.9604 39.9981 13.1682C39.9959 13.348 39.9742 13.5146 39.9577 13.7759C39.7923 16.445 34.8419 36.365 34.8419 36.365C34.8419 36.365 34.5457 37.5307 33.4845 37.5706C33.2237 37.579 32.9639 37.5349 32.7206 37.4407C32.4772 37.3466 32.2553 37.2044 32.0681 37.0227C29.9857 35.2314 22.7882 30.3944 21.1977 29.3306C21.1619 29.3061 21.1317 29.2743 21.1091 29.2372C21.0866 29.2 21.0723 29.1585 21.0672 29.1154C21.045 29.0033 21.1669 28.8644 21.1669 28.8644C21.1669 28.8644 33.6997 17.7244 34.0332 16.5549C34.059 16.4643 33.9614 16.4196 33.8304 16.4593C32.998 16.7655 18.5681 25.8781 16.9755 26.8838C16.8609 26.9185 16.7397 26.9259 16.6217 26.9053Z" fill="white"/>
<defs>
<linearGradient id="paint0_linear_1656_5260" x1="25.3984" y1="0" x2="25.3984" y2="50" gradientUnits="userSpaceOnUse">
<stop stop-color="#249BD7"/>
<stop offset="1" stop-color="#34ACE1"/>
</linearGradient>
</defs>
</svg>
