<svg width="39" height="39" viewBox="0 0 39 39" fill="none" xmlns="http://www.w3.org/2000/svg">
<rect width="39" height="39" rx="11.9185" fill="url(#paint0_linear_3352_7187)"/>
<path d="M26.08 9.65899C25.6479 9.59869 24.9346 9.79909 24.4706 9.93036C22.2879 10.548 19.9149 12.9725 18.8707 14.2529C18.4919 14.7352 18.2674 15.8524 18.6558 16.4745C18.8166 16.7322 19.1848 16.8117 19.4975 16.902C19.7968 16.9883 20.3434 16.9661 20.6482 16.902C21.905 16.6382 24.0036 16.2554 24.288 16.1941C24.3085 16.1897 24.3263 16.1865 24.347 16.1834C24.5459 16.1524 25.5027 15.9202 26.4824 15.4037C26.6619 15.3091 26.6835 15.2918 27.0188 15.0236C27.3541 14.6212 27.4643 14.3189 27.6223 13.8836C28.0097 12.8161 27.7074 11.9389 27.5553 11.3354C27.3863 10.6648 26.8457 9.76582 26.08 9.65899Z" fill="white"/>
<path d="M17.406 20.6429C16.6474 25.4763 14.5443 28.5675 11.9961 28.9028C11.1243 28.9698 10.7891 28.9028 10.7891 28.9028C10.8251 27.9181 11.9184 24.9991 12.3968 21.9509C13.1552 17.1175 12.611 10.9233 14.8055 11.2677C17.0001 11.6121 18.1644 15.8094 17.406 20.6429Z" fill="white"/>
<defs>
<linearGradient id="paint0_linear_3352_7187" x1="19.5" y1="0" x2="19.5" y2="39" gradientUnits="userSpaceOnUse">
<stop stop-color="#89CFF0"/>
<stop offset="1" stop-color="#62BEE9"/>
</linearGradient>
</defs>
</svg>
