<svg width="16" height="21" viewBox="0 0 16 21" fill="none" xmlns="http://www.w3.org/2000/svg">
<path d="M7.69752 0C3.52978 0 0 3.55011 0 7.75471C0 12.1582 4.09149 16.6614 6.84351 19.8265C6.85431 19.8392 7.29911 20.3329 7.84685 20.3329H7.89514C8.44351 20.3329 8.88513 19.8392 8.89593 19.8265C11.4783 16.8578 15.2502 11.9618 15.2502 7.75471C15.2502 3.54948 12.4969 0 7.69752 0ZM7.95232 18.9737C7.93008 18.996 7.89768 19.0208 7.86908 19.0417C7.83986 19.0214 7.80808 18.996 7.78457 18.9737L7.45225 18.5912C4.8432 15.5984 1.27021 11.4993 1.27021 7.75407C1.27021 4.23891 4.21349 1.26958 7.69689 1.26958C12.0362 1.26958 13.9787 4.52612 13.9787 7.75407C13.9787 10.597 11.951 14.3726 7.95232 18.9737ZM7.64732 3.84749C5.54216 3.84749 3.83478 5.55424 3.83478 7.66003C3.83478 9.76582 5.54216 11.4726 7.64732 11.4726C9.75248 11.4726 11.4599 9.76519 11.4599 7.66003C11.4599 5.55487 9.75311 3.84749 7.64732 3.84749ZM7.64732 10.2017C6.24558 10.2017 5.0764 9.03382 5.0764 7.63207C5.0764 6.23033 6.21635 5.09038 7.61809 5.09038C9.02047 5.09038 10.1598 6.23033 10.1598 7.63207C10.1604 9.03382 9.0497 10.2017 7.64732 10.2017Z" fill="#4B4B4B"/>
<ellipse cx="7.5" cy="8" rx="3.5" ry="3" fill="#4B4B4B"/>
</svg>
