<svg width="22" height="22" viewBox="0 0 22 22" fill="none" xmlns="http://www.w3.org/2000/svg">
<path d="M12.5659 9.48983C13.1483 9.48983 13.6204 9.96193 13.6204 10.5443C13.6204 11.1267 13.1483 11.5988 12.5659 11.5988V9.48983Z" fill="#4B4B4B"/>
<path d="M11.5119 0C8.59998 0 6.23938 2.36059 6.23938 5.27253C6.23938 5.85491 6.71149 6.32703 7.29389 6.32703C7.87627 6.32703 8.34839 5.85491 8.34839 5.27253C8.34839 3.52537 9.76479 2.10901 11.5119 2.10901H15.7299C17.4771 2.10901 18.8934 3.52537 18.8934 5.27253V15.8176C18.8934 17.5648 17.4771 18.9811 15.7299 18.9811H11.5119C9.76479 18.9811 8.34839 17.5648 8.34839 15.8176C8.34839 15.2352 7.87627 14.7631 7.29389 14.7631C6.71149 14.7631 6.23938 15.2352 6.23938 15.8176C6.23938 18.7295 8.59998 21.0901 11.5119 21.0901H15.7299C18.6418 21.0901 21.0024 18.7295 21.0024 15.8176V5.27253C21.0024 2.36059 18.6418 0 15.7299 0H11.5119Z" fill="#4B4B4B"/>
<path d="M3.83011 9.49015C3.92398 9.37436 4.01392 9.26206 4.099 9.15481C4.35787 8.82823 4.57704 8.54151 4.7318 8.33598C4.80925 8.23312 4.87075 8.15035 4.91321 8.09284L4.96232 8.02609L4.97548 8.00808L4.98014 8.00169C4.98019 8.00163 4.98067 8.00095 4.12757 7.38113L4.98014 8.00169C5.32246 7.53053 5.21855 6.87034 4.74738 6.52802C4.27625 6.18572 3.61684 6.29014 3.2745 6.76124L3.27153 6.76533L3.26073 6.78009L3.21669 6.83995C3.17774 6.89271 3.12014 6.97023 3.04696 7.06742C2.90046 7.262 2.6922 7.53448 2.44643 7.84445C1.94951 8.47118 1.32013 9.22452 0.745651 9.79901L0 10.5447L0.745651 11.2903C1.32013 11.8648 1.94951 12.6181 2.44643 13.2448C2.6922 13.5548 2.90046 13.8273 3.04696 14.0219C3.12014 14.1191 3.17774 14.1966 3.21669 14.2493L3.26073 14.3092L3.27153 14.324L3.27399 14.3274C3.61632 14.7984 4.27625 14.9036 4.74738 14.5613C5.21855 14.219 5.32299 13.5595 4.98067 13.0883L4.12757 13.7082C4.98067 13.0883 4.98072 13.0884 4.98067 13.0883L4.97548 13.0813L4.96232 13.0632L4.91321 12.9965C4.87075 12.9389 4.80925 12.8562 4.7318 12.7533C4.57704 12.5478 4.35787 12.2611 4.099 11.9345C4.01392 11.8272 3.92398 11.7149 3.83011 11.5992H12.5636V9.49015H3.83011Z" fill="#4B4B4B"/>
</svg>
