<svg width="177" height="59" viewBox="0 0 177 59" fill="none" xmlns="http://www.w3.org/2000/svg">
<rect y="0.597778" width="58" height="57.6813" rx="13.3846" fill="#89CFF0"/>
<rect y="0.597778" width="58" height="57.6813" rx="13.3846" fill="#89CFF0"/>
<path d="M47.5929 23.7286C47.4541 23.4972 47.269 23.3121 47.1301 23.0807L47.0376 22.9881C45.788 21.1833 44.3071 19.6098 42.6411 18.314C41.0676 17.0644 39.6329 16.1851 37.6429 15.167C36.3934 14.5191 34.7737 13.8249 33.6167 14.01C32.9225 14.1489 32.1358 14.5654 31.6267 15.167C31.2102 15.2133 30.8399 15.3058 30.4234 15.3984C28.7111 16 27.693 17.2958 26.6748 18.5916C26.4897 18.823 26.3046 19.1007 26.1195 19.3321C26.0732 19.3784 25.9344 19.5635 25.7493 19.8412C25.3328 20.3965 24.1295 22.0163 23.713 22.4328L18.576 21.4146C18.1133 21.2758 17.6042 21.2295 17.0951 21.2295C13.4391 21.2295 9.73677 24.8393 8.25585 29.8374C6.54353 35.6685 8.39469 41.3608 12.3747 42.5178C12.8375 42.6567 13.3465 42.7492 13.8556 42.7492C14.4572 43.536 15.7067 43.9987 16.2621 44.1376C18.8537 44.6929 21.5379 44.878 24.1295 45.0632L25.3328 45.1557C26.9988 45.2946 28.5723 45.3408 30.0532 45.3408C31.5341 45.3408 32.9688 45.2946 34.3571 45.1557C34.8662 45.1094 35.4216 45.0632 35.8843 44.8318C36.3471 44.6004 36.7174 44.2764 37.0876 43.9987C37.6892 43.4897 38.2446 42.9806 38.8462 42.4715C41.0676 40.5278 43.3353 38.5378 45.4641 36.409C46.5748 35.252 47.778 34.0488 48.7962 32.6604C49.3978 31.8274 50.1845 30.7167 50.1845 29.5135C50.1845 27.3383 48.7499 25.3484 47.5929 23.7286ZM26.4897 20.3965C26.6748 20.1651 26.8137 19.98 26.8137 19.9337L27.369 19.2395C27.5079 19.3784 27.7393 19.4247 27.9707 19.3321C28.2021 19.1933 28.2946 18.9156 28.2021 18.6379C28.1558 18.5454 28.1095 18.4991 28.0169 18.4528C28.6648 17.6198 29.359 16.9256 30.2383 16.4628C30.3772 16.5554 30.5623 16.5554 30.7011 16.5091C30.8399 16.4628 30.9325 16.324 30.9325 16.1851C31.3027 16.0926 31.673 16.0463 32.0432 16.0463C32.9688 16.0463 33.8481 16.3702 34.4034 16.9256C34.6811 17.157 34.8662 17.4809 35.0513 17.8512V17.9437L35.0976 17.99C35.3753 18.6842 35.5604 19.5172 35.5604 20.5816C35.5604 21.3221 35.5604 22.0626 35.6067 22.8493C35.5141 22.8493 35.4678 22.8493 35.3753 22.8956C35.1439 23.0344 35.0513 23.3121 35.1439 23.5898C35.2364 23.7749 35.4216 23.8674 35.6067 23.8674V24.1451C35.6067 25.3484 35.653 26.5516 35.653 27.7086V28.449C35.5604 28.449 35.5141 28.449 35.4216 28.4953C35.1902 28.6342 35.0976 28.9118 35.1902 29.1895C35.2827 29.3746 35.4678 29.4672 35.653 29.4672V29.93C35.6992 31.3183 35.6992 32.7067 35.6992 34.0951C35.653 34.0951 35.5604 34.0951 35.5141 34.1413C35.2827 34.2802 35.1902 34.5579 35.2827 34.8355C35.3753 34.9744 35.5141 35.0669 35.653 35.1132C35.653 35.4372 35.6067 35.7148 35.6067 36.0388C35.5604 35.9925 35.5604 35.9462 35.5141 35.9462C35.3753 35.8074 35.1439 35.8074 34.9588 35.8999C34.7274 36.0388 34.6348 36.3164 34.7274 36.5941C34.7737 36.733 34.9125 36.8255 35.005 36.8255C35.0976 36.8255 35.2827 36.8718 35.3753 36.7792C35.4216 36.733 35.4678 36.733 35.5141 36.6867C35.4678 37.5197 35.3753 38.3527 35.2364 39.1857C35.1902 39.4171 35.0976 39.6485 35.005 39.6485C34.8662 39.6485 34.6811 39.556 34.496 39.4171C34.496 39.3709 34.4497 39.3709 34.4497 39.3246C34.4034 39.2783 34.3571 39.2783 34.3109 39.232C34.0795 39.0469 33.8018 38.7692 33.6167 38.4916C33.4778 38.3064 33.3853 38.1213 33.2465 37.8899C33.339 37.8437 33.4316 37.7511 33.4778 37.6123C33.4778 37.566 33.5241 37.4734 33.4778 37.4271C33.4778 37.3809 33.4778 37.2883 33.4316 37.242C33.3853 37.1032 33.2465 37.0106 33.1539 37.0106C33.0613 36.9644 32.9225 36.9644 32.8299 37.0106C32.7374 36.7792 32.6448 36.5478 32.506 36.3164C32.4134 36.0851 32.2746 35.8074 32.182 35.576C32.3209 35.4372 32.3672 35.2058 32.2746 34.9744L32.1358 34.8355C32.0432 34.743 31.9044 34.6967 31.7655 34.743C31.5341 34.2339 31.3027 33.7248 31.1176 33.2158C31.1639 33.0769 31.2102 32.9381 31.1176 32.753C31.0713 32.6141 30.9325 32.5216 30.8399 32.5216C30.8399 32.4753 30.7937 32.4753 30.7937 32.429C30.516 31.7811 30.2383 31.1795 29.9606 30.5316L29.683 29.93C28.8962 27.8937 27.9707 25.8111 26.5823 24.1914L26.6286 24.1451C26.6286 24.0988 26.6748 24.0063 26.6286 23.96C26.5823 23.9137 26.6286 23.8211 26.5823 23.7749C26.4435 23.5435 26.1658 23.4509 25.9344 23.5435C25.5642 23.2195 25.1014 22.9881 24.6849 22.803C24.8237 22.6642 24.9625 22.4791 25.1476 22.2477C25.1939 22.2477 25.1939 22.2477 25.2402 22.2014C25.4253 22.1088 25.4716 21.97 25.5179 21.7849C25.7493 21.3684 26.0732 20.9519 26.4897 20.3965ZM13.9482 41.7774C13.5316 41.7774 13.0689 41.7311 12.6523 41.5922C9.13515 40.5741 7.56167 35.3909 9.13515 30.0688C10.5235 25.4872 13.8556 22.1551 17.0951 22.1551C17.2802 22.1551 17.4653 22.1551 17.6505 22.2014L18.2984 22.3402H18.3446C21.8618 23.4046 23.4353 28.5879 21.8618 33.8637C20.5198 38.4453 17.1877 41.7774 13.9482 41.7774ZM48.0094 32.0588C47.0376 33.4009 45.8806 34.6041 44.7699 35.7148C42.6873 37.7974 40.4197 39.7874 38.1983 41.7311C37.5967 42.2401 37.0413 42.7492 36.4397 43.2583C36.162 43.536 35.8381 43.8136 35.4678 43.9525C35.0976 44.0913 34.6811 44.1376 34.2183 44.1839C31.4879 44.4153 28.5723 44.4153 25.3328 44.1839L24.1295 44.0913C21.5842 43.9062 18.9 43.7211 16.3547 43.1657C16.0307 43.1194 15.4291 42.8881 14.9663 42.5641C18.2058 41.9162 21.3528 38.5378 22.6949 34.0951C24.037 29.5597 23.2039 25.117 20.89 22.803L23.6204 23.3584C23.8056 23.4046 24.8237 23.8211 25.379 24.3302C26.9062 25.8574 27.8781 28.0325 28.8037 30.1614L29.0814 30.8093C29.359 31.4572 29.6367 32.0588 29.9144 32.7067C30.3309 33.7248 30.7937 34.743 31.2565 35.7611C31.3953 36.0388 31.4879 36.3164 31.6267 36.5941C31.9506 37.3809 32.3209 38.2139 32.8299 38.9081C32.8762 38.9543 33.9406 40.4353 35.005 40.4353H35.0513C35.3753 40.4353 35.9769 40.2502 36.162 39.1857C36.6711 36.0851 36.6248 32.8918 36.5785 29.8374C36.5785 29.0969 36.5323 28.4028 36.5323 27.6623C36.5323 26.459 36.486 25.2558 36.486 24.0988C36.486 22.9418 36.4397 21.7386 36.4397 20.5816C36.4397 19.1933 36.162 18.0363 35.653 17.157C37.6892 18.0363 39.5867 19.1933 41.1601 20.6279C44.1683 23.2658 46.2508 26.459 46.2971 26.459C46.3897 26.5979 46.5285 26.6904 46.6673 26.6904C46.7599 26.6904 46.8524 26.6442 46.8987 26.5979C47.1301 26.459 47.1764 26.1814 47.0376 25.95C47.0376 25.8574 44.955 22.6642 41.8543 19.9337C39.5867 17.9437 36.8099 16.4165 33.7555 15.4447C33.5241 15.3521 33.2465 15.2596 32.9688 15.2133C33.2465 15.0744 33.5241 14.9356 33.7555 14.8893C34.7274 14.7042 36.5323 15.6298 37.1802 15.9537C39.1239 16.9256 40.5122 17.8049 42.0394 19.0081C43.6129 20.2577 45.0476 21.7849 46.2508 23.4972L46.3434 23.5898C46.4822 23.8211 46.6673 24.0063 46.8062 24.2377C47.9631 25.8111 49.2589 27.616 49.2589 29.4209C49.2589 30.3465 48.5648 31.272 48.0094 32.0588ZM35.005 19.9337C35.0513 19.9337 35.1439 19.9337 35.1902 19.8874L35.329 19.7486C35.3753 19.7023 35.4216 19.656 35.4216 19.5635C35.4678 19.4247 35.4678 19.2858 35.3753 19.1933C35.329 19.0544 35.1902 18.9619 35.0976 18.9619C34.9588 18.9156 34.8199 18.9156 34.7274 19.0081C34.5885 19.0544 34.5423 19.1933 34.496 19.2858C34.4497 19.4247 34.4497 19.5635 34.5423 19.656C34.6348 19.8412 34.8199 19.9337 35.005 19.9337ZM33.8481 17.6661C33.8944 17.6661 33.9869 17.6661 34.0332 17.6198L34.172 17.4809C34.3109 17.3421 34.3109 17.1107 34.2183 16.9256C34.172 16.7868 34.0332 16.6942 33.9406 16.6942C33.8018 16.6479 33.663 16.6479 33.5704 16.7405C33.339 16.8793 33.2465 17.157 33.339 17.4347C33.4778 17.6198 33.663 17.7123 33.8481 17.6661Z" fill="white"/>
<path d="M32.2669 20.5862C32.2669 20.6325 32.2669 20.7251 32.3132 20.7713C32.452 21.0027 32.7297 21.0953 33.0074 21.0027L33.1462 20.8639C33.2388 20.7713 33.285 20.6325 33.2388 20.4937C33.2388 20.4474 33.2388 20.3548 33.1925 20.3085C33.1462 20.1697 33.0074 20.0772 32.9148 20.0772C32.776 20.0309 32.6371 20.0309 32.5446 20.1234C32.3595 20.216 32.2669 20.4011 32.2669 20.5862Z" fill="white"/>
<path d="M31.1601 18.5448C31.2887 18.7949 31.5956 18.8934 31.8456 18.7648C32.0957 18.6363 32.1942 18.3294 32.0656 18.0793C31.9371 17.8293 31.6302 17.7308 31.3801 17.8593C31.1301 17.9879 31.0316 18.2948 31.1601 18.5448Z" fill="white"/>
<path d="M30.611 20.2277C30.7395 20.4777 31.0464 20.5762 31.2965 20.4477C31.5465 20.3191 31.645 20.0122 31.5165 19.7622C31.388 19.5122 31.0811 19.4136 30.831 19.5422C30.581 19.6707 30.4825 19.9776 30.611 20.2277Z" fill="white"/>
<path d="M32.843 19.0873C32.9715 19.3373 33.2784 19.4358 33.5285 19.3073C33.7785 19.1788 33.877 18.8719 33.7485 18.6218C33.6199 18.3718 33.313 18.2733 33.063 18.4018C32.813 18.5303 32.7145 18.8373 32.843 19.0873Z" fill="white"/>
<path d="M29.4861 17.9801C29.6147 18.2302 29.9216 18.3287 30.1716 18.2001C30.4217 18.0716 30.5202 17.7647 30.3916 17.5146C30.2631 17.2646 29.9562 17.1661 29.7061 17.2946C29.4561 17.4232 29.3576 17.7301 29.4861 17.9801Z" fill="white"/>
<path d="M31.6562 16.853C31.7847 17.1031 32.0916 17.2016 32.3416 17.0731C32.5917 16.9445 32.6902 16.6376 32.5617 16.3876C32.4331 16.1375 32.1262 16.039 31.8762 16.1676C31.6261 16.2961 31.5276 16.603 31.6562 16.853Z" fill="white"/>
<path d="M30.0615 21.7299C30.0615 21.7762 30.0615 21.8688 30.1077 21.915L30.2466 22.0539C30.3391 22.1464 30.478 22.1927 30.6168 22.1927C30.6631 22.1927 30.7556 22.1927 30.8019 22.1464C31.0333 22.0076 31.1259 21.7299 31.0333 21.4523L30.8945 21.3134C30.7556 21.1746 30.5243 21.1746 30.3391 21.2671C30.154 21.3134 30.0615 21.5448 30.0615 21.7299Z" fill="white"/>
<path d="M28.9281 19.6852C29.0567 19.9352 29.3636 20.0337 29.6136 19.9052C29.8637 19.7767 29.9622 19.4698 29.8336 19.2197C29.7051 18.9697 29.3982 18.8712 29.1481 18.9997C28.8981 19.1282 28.7996 19.4352 28.9281 19.6852Z" fill="white"/>
<path d="M34.8297 24.5567C34.6446 24.6492 34.5521 24.8344 34.5521 25.0195C34.5521 25.0657 34.5521 25.1583 34.5983 25.2046C34.7372 25.436 35.0149 25.5285 35.2925 25.436C35.4314 25.3897 35.4776 25.2509 35.5239 25.1583C35.5702 25.0195 35.5702 24.8806 35.4776 24.7881C35.4314 24.6492 35.2925 24.5567 35.2 24.5567C35.1074 24.5104 34.9686 24.5104 34.8297 24.5567Z" fill="white"/>
<path d="M34.3745 22.5962C34.246 22.3461 33.9391 22.2476 33.689 22.3762C33.439 22.5047 33.3405 22.8116 33.469 23.0617C33.5976 23.3117 33.9045 23.4102 34.1545 23.2817C34.4046 23.1531 34.5031 22.8462 34.3745 22.5962Z" fill="white"/>
<path d="M33.8254 24.2502C33.6969 24.0002 33.39 23.9017 33.1399 24.0302C32.8899 24.1588 32.7914 24.4657 32.9199 24.7157C33.0484 24.9658 33.3554 25.0643 33.6054 24.9357C33.8554 24.8072 33.9539 24.5003 33.8254 24.2502Z" fill="white"/>
<path d="M32.6917 22.0315C32.5631 21.7814 32.2562 21.6829 32.0062 21.8115C31.7561 21.94 31.6576 22.2469 31.7862 22.497C31.9147 22.747 32.2216 22.8455 32.4717 22.717C32.7217 22.5884 32.8202 22.2815 32.6917 22.0315Z" fill="white"/>
<path d="M34.2361 20.6606C33.9861 20.7892 33.8876 21.0961 34.0161 21.3461C34.1447 21.5962 34.4516 21.6947 34.7016 21.5661C34.9517 21.4376 35.0502 21.1307 34.9216 20.8806C34.7931 20.6306 34.4862 20.5321 34.2361 20.6606Z" fill="white"/>
<path d="M32.5977 25.7145C32.4126 25.8071 32.3201 25.9922 32.3201 26.1773C32.3201 26.2236 32.3201 26.3161 32.3663 26.3624C32.4589 26.5475 32.644 26.6401 32.8291 26.6401C32.8754 26.6401 32.968 26.6401 33.0143 26.5938L33.1531 26.455C33.2919 26.3161 33.2919 26.0847 33.1994 25.8996L33.0605 25.7608C33.0143 25.7145 32.968 25.6682 32.8754 25.6682C32.8754 25.6219 32.7366 25.6682 32.5977 25.7145Z" fill="white"/>
<path d="M34.0919 26.9304C34.2204 27.1805 34.5273 27.279 34.7774 27.1504C35.0274 27.0219 35.1259 26.715 34.9974 26.465C34.8689 26.2149 34.5619 26.1164 34.3119 26.2449C34.0619 26.3735 33.9634 26.6804 34.0919 26.9304Z" fill="white"/>
<path d="M34.2315 28.8199C34.4629 28.6811 34.5554 28.4034 34.4629 28.1257C34.324 27.8944 34.0464 27.8018 33.7687 27.8944C33.6299 27.9406 33.5836 28.0795 33.5373 28.172C33.491 28.3109 33.491 28.4497 33.5836 28.5423C33.6761 28.7274 33.8612 28.8199 34.0464 28.8199C34.1389 28.9125 34.1852 28.8662 34.2315 28.8199Z" fill="white"/>
<path d="M26.7404 20.8189C26.8689 21.0689 27.1758 21.1674 27.4259 21.0389C27.6759 20.9103 27.7744 20.6034 27.6459 20.3534C27.5173 20.1033 27.2104 20.0048 26.9604 20.1334C26.7104 20.2619 26.6118 20.5688 26.7404 20.8189Z" fill="white"/>
<path d="M26.209 22.5084C26.3375 22.7585 26.6444 22.857 26.8944 22.7284C27.1445 22.5999 27.243 22.293 27.1145 22.043C26.9859 21.7929 26.679 21.6944 26.429 21.823C26.1789 21.9515 26.0804 22.2584 26.209 22.5084Z" fill="white"/>
<path d="M28.4321 21.3768C28.5606 21.6269 28.8675 21.7254 29.1176 21.5969C29.3676 21.4683 29.4661 21.1614 29.3376 20.9114C29.2091 20.6613 28.9022 20.5628 28.6521 20.6914C28.4021 20.8199 28.3036 21.1268 28.4321 21.3768Z" fill="white"/>
<path d="M31.0294 27.6163C31.1219 27.5238 31.1682 27.3849 31.1219 27.2461C31.1219 27.1998 31.1219 27.1073 31.0757 27.061C30.9368 26.8296 30.6592 26.737 30.3815 26.8296C30.1501 26.9684 30.0575 27.2461 30.1501 27.5238L30.2889 27.6626C30.3815 27.7552 30.5203 27.8015 30.6592 27.8015C30.7054 27.8015 30.798 27.8015 30.8443 27.7552C30.9368 27.7089 30.9831 27.6626 31.0294 27.6163ZM31.4922 23.4975C31.2608 23.6364 31.1682 23.914 31.2608 24.1917C31.3996 24.4231 31.6773 24.5157 31.955 24.4231C32.1864 24.2843 32.2789 24.0066 32.1864 23.7289C32.1401 23.5901 32.0012 23.4975 31.9087 23.4975C31.7236 23.405 31.5847 23.405 31.4922 23.4975Z" fill="white"/>
<path d="M29.7219 25.5158C29.972 25.3872 30.0705 25.0803 29.942 24.8303C29.8134 24.5802 29.5065 24.4817 29.2565 24.6103C29.0064 24.7388 28.9079 25.0457 29.0365 25.2958C29.165 25.5458 29.4719 25.6443 29.7219 25.5158Z" fill="white"/>
<path d="M29.4145 26.5443C29.2859 26.2942 28.979 26.1957 28.729 26.3243C28.4789 26.4528 28.3804 26.7597 28.509 27.0098C28.6375 27.2598 28.9444 27.3583 29.1944 27.2298C29.4445 27.1012 29.543 26.7943 29.4145 26.5443Z" fill="white"/>
<path d="M31.6554 25.3906C31.5268 25.1406 31.2199 25.0421 30.9699 25.1706C30.7198 25.2991 30.6213 25.606 30.7499 25.8561C30.8784 26.1061 31.1853 26.2046 31.4354 26.0761C31.6854 25.9476 31.7839 25.6407 31.6554 25.3906Z" fill="white"/>
<path d="M27.5578 24.0683C27.3077 24.1969 27.2092 24.5038 27.3378 24.7538C27.4663 25.0039 27.7732 25.1024 28.0233 24.9738C28.2733 24.8453 28.3718 24.5384 28.2433 24.2883C28.1147 24.0383 27.8078 23.9398 27.5578 24.0683Z" fill="white"/>
<path d="M29.5747 23.5713C29.7032 23.8214 30.0101 23.9199 30.2602 23.7913C30.5102 23.6628 30.6087 23.3559 30.4802 23.1058C30.3516 22.8558 30.0447 22.7573 29.7947 22.8858C29.5446 23.0144 29.4461 23.3213 29.5747 23.5713Z" fill="white"/>
<path d="M28.0146 23.2189C28.1071 23.3115 28.246 23.3577 28.3848 23.3577C28.4311 23.3577 28.5237 23.3577 28.5699 23.3115C28.7088 23.2652 28.7551 23.1264 28.8013 23.0338C28.8476 22.895 28.8476 22.7561 28.7551 22.6636L28.6162 22.5247C28.4774 22.3859 28.246 22.3859 28.0609 22.4784C27.8295 22.6173 27.7369 22.895 27.8295 23.1726C27.922 23.1264 27.9683 23.1726 28.0146 23.2189Z" fill="white"/>
<path d="M32.016 29.9577C32.2661 29.8291 32.3646 29.5222 32.236 29.2722C32.1075 29.0221 31.8006 28.9236 31.5505 29.0522C31.3005 29.1807 31.202 29.4876 31.3305 29.7377C31.4591 29.9877 31.766 30.0862 32.016 29.9577Z" fill="white"/>
<path d="M31.7174 30.9906C31.5888 30.7405 31.2819 30.642 31.0319 30.7706C30.7818 30.8991 30.6833 31.206 30.8119 31.4561C30.9404 31.7061 31.2473 31.8046 31.4974 31.6761C31.7474 31.5475 31.8459 31.2406 31.7174 30.9906Z" fill="white"/>
<path d="M33.9051 29.8525C33.7766 29.6025 33.4697 29.504 33.2196 29.6325C32.9696 29.7611 32.8711 30.068 32.9996 30.318C33.1282 30.568 33.4351 30.6666 33.6851 30.538C33.9352 30.4095 34.0337 30.1026 33.9051 29.8525Z" fill="white"/>
<path d="M30.5748 28.763C30.4463 28.513 30.1394 28.4145 29.8893 28.543C29.6393 28.6716 29.5408 28.9785 29.6693 29.2285C29.7978 29.4786 30.1047 29.5771 30.3548 29.4485C30.6048 29.32 30.7033 29.0131 30.5748 28.763Z" fill="white"/>
<path d="M32.7802 27.6249C32.6517 27.3748 32.3448 27.2763 32.0948 27.4049C31.8447 27.5334 31.7462 27.8403 31.8747 28.0903C32.0033 28.3404 32.3102 28.4389 32.5602 28.3103C32.8103 28.1818 32.9088 27.8749 32.7802 27.6249Z" fill="white"/>
<path d="M34.3012 34.4616C34.5512 34.333 34.6497 34.0261 34.5212 33.7761C34.3926 33.526 34.0857 33.4275 33.8357 33.5561C33.5856 33.6846 33.4871 33.9915 33.6157 34.2416C33.7442 34.4916 34.0511 34.5901 34.3012 34.4616Z" fill="white"/>
<path d="M33.9937 35.468C33.8651 35.218 33.5582 35.1195 33.3082 35.248C33.0581 35.3765 32.9596 35.6834 33.0882 35.9335C33.2167 36.1835 33.5236 36.282 33.7737 36.1535C34.0237 36.025 34.1222 35.718 33.9937 35.468Z" fill="white"/>
<path d="M32.8688 33.227C32.7403 32.977 32.4334 32.8785 32.1833 33.007C31.9333 33.1356 31.8348 33.4425 31.9633 33.6925C32.0918 33.9426 32.3987 34.0411 32.6488 33.9125C32.8988 33.784 32.9973 33.4771 32.8688 33.227Z" fill="white"/>
<path d="M35.0742 32.0602C34.9457 31.8101 34.6388 31.7116 34.3888 31.8402C34.1387 31.9687 34.0402 32.2756 34.1687 32.5256C34.2973 32.7757 34.6042 32.8742 34.8542 32.7457C35.1043 32.6171 35.2028 32.3102 35.0742 32.0602Z" fill="white"/>
<path d="M34.671 30.4821C34.6247 30.6209 34.6247 30.7597 34.7173 30.8523L34.8561 30.9911C34.9487 31.0837 35.0875 31.13 35.2264 31.13C35.2726 31.13 35.3652 31.13 35.4115 31.0837C35.5503 31.0374 35.5966 30.8986 35.6429 30.806C35.6892 30.7135 35.6892 30.5283 35.5966 30.4358L35.4578 30.2969C35.3189 30.1581 35.0875 30.1581 34.9024 30.2507C34.7636 30.2507 34.7173 30.3432 34.671 30.4821Z" fill="white"/>
<path d="M33.1497 32.2472C33.3997 32.1187 33.4982 31.8118 33.3697 31.5617C33.2411 31.3117 32.9342 31.2132 32.6842 31.3417C32.4341 31.4703 32.3356 31.7772 32.4642 32.0272C32.5927 32.2773 32.8996 32.3758 33.1497 32.2472Z" fill="white"/>
<path d="M35.154 37.6711C35.0254 37.4211 34.7185 37.3226 34.4685 37.4511C34.2184 37.5797 34.1199 37.8866 34.2485 38.1366C34.377 38.3867 34.6839 38.4852 34.9339 38.3566C35.184 38.2281 35.2825 37.9212 35.154 37.6711Z" fill="white"/>
<path d="M11.7829 40.2583C11.6441 40.2583 11.5052 40.212 11.4127 40.0732C9.42268 37.713 8.82106 34.0107 9.93175 30.3546C10.9962 26.6986 13.6341 23.8293 16.5959 22.9963C16.8273 22.95 17.105 23.0889 17.1513 23.3202C17.1975 23.5516 17.0587 23.8293 16.8273 23.8756C14.1431 24.6161 11.7829 27.254 10.8111 30.586C9.83919 33.8718 10.3483 37.3427 12.1531 39.4253C12.3383 39.6104 12.292 39.9344 12.1069 40.0732C11.968 40.212 11.8755 40.2583 11.7829 40.2583ZM17.4752 28.0407C17.3364 27.9944 17.1975 27.9944 17.105 28.087C16.9199 28.1795 16.8273 28.3646 16.8273 28.5498C16.8273 28.596 16.8273 28.6886 16.8736 28.7349C17.0124 28.9663 17.2901 29.0588 17.5678 28.9663L17.7066 28.8274C17.7529 28.7812 17.7992 28.7349 17.7992 28.6423C17.8454 28.5035 17.8454 28.3646 17.7529 28.2721C17.7066 28.1795 17.5678 28.087 17.4752 28.0407Z" fill="white"/>
<path d="M19.4147 28.8096C19.2862 28.5595 18.9793 28.461 18.7292 28.5895C18.4792 28.7181 18.3807 29.025 18.5092 29.275C18.6377 29.5251 18.9446 29.6236 19.1947 29.495C19.4447 29.3665 19.5432 29.0596 19.4147 28.8096Z" fill="white"/>
<path d="M20.3396 26.7344C19.5529 25.9014 18.4422 25.4386 17.3778 25.4386C16.4522 25.4386 15.6192 25.7626 15.0176 26.3642C14.5548 26.827 14.2308 27.4286 14.1383 28.0765C13.9531 29.0946 14.8787 29.4186 15.5266 29.6963C15.9431 29.8814 16.4059 30.0202 16.7299 30.3442C17.0538 30.6681 17.1927 31.0846 17.3778 31.5474C17.6092 32.1953 17.9331 32.9358 18.7661 32.9358H18.9975C19.6917 32.8432 20.2933 32.5193 20.7561 32.0565C22.0519 30.6681 21.9131 28.3079 20.3396 26.7344ZM20.4322 30.8995C20.2933 30.807 20.1082 30.7607 19.9231 30.8532C19.6917 30.9921 19.5992 31.2697 19.6917 31.5474C19.6917 31.5937 19.738 31.64 19.7843 31.64C19.5066 31.8714 19.1364 32.0102 18.7661 32.0565C18.5347 32.1028 18.4422 31.9176 18.2108 31.2235C18.2108 31.1772 18.1645 31.1772 18.1645 31.1309C18.3034 31.2235 18.5347 31.2697 18.6736 31.1772C18.8587 31.0846 18.9513 30.8995 18.9513 30.7144C18.9513 30.6681 18.9513 30.5756 18.905 30.5293L18.7661 30.3904C18.6273 30.2516 18.3959 30.2516 18.2108 30.3442C18.072 30.4367 17.9794 30.5756 17.9331 30.7144C17.7943 30.3904 17.6092 30.0665 17.3315 29.7425C16.8687 29.2797 16.3134 29.0946 15.8506 28.8632C15.1101 28.5856 15.0176 28.4467 15.0176 28.2616C15.0638 28.1228 15.0638 27.9839 15.1101 27.8914C15.1101 27.9839 15.1101 28.0765 15.1564 28.2153C15.2952 28.4467 15.5729 28.5393 15.8506 28.4467C16.082 28.3079 16.1745 28.0302 16.082 27.7525C15.9431 27.5211 15.6655 27.4286 15.3878 27.5211L15.2489 27.66C15.3415 27.4286 15.4803 27.2435 15.6655 27.0584C15.758 26.9658 15.8969 26.8732 16.0357 26.7807C16.082 26.7807 16.1282 26.827 16.2208 26.7807C16.2671 26.7807 16.3596 26.7807 16.4059 26.7344L16.5448 26.5956C16.591 26.5493 16.591 26.5493 16.591 26.503C16.8224 26.4105 17.1001 26.3642 17.3778 26.3642H17.6092C17.3778 26.503 17.2852 26.7807 17.4241 27.0121C17.5629 27.2435 17.8406 27.336 18.1182 27.2435C18.3496 27.1046 18.4422 26.827 18.3496 26.5493C18.3496 26.503 18.3034 26.4567 18.2571 26.4567C18.6273 26.5493 18.9513 26.7344 19.2752 26.9658C19.1364 27.0584 19.0438 27.2435 19.0901 27.3823C19.0901 27.4286 19.0901 27.5211 19.1364 27.5674C19.2752 27.7988 19.5529 27.8914 19.8306 27.7988C19.9231 27.7525 19.9694 27.7063 20.0157 27.6137C20.3859 28.0765 20.6173 28.5856 20.7099 29.0946C20.6173 29.0946 20.571 29.0946 20.4785 29.1409C20.2471 29.2797 20.1545 29.5574 20.2471 29.8351C20.3396 30.0202 20.5247 30.1128 20.7099 30.1128C20.6173 30.3904 20.571 30.6218 20.4322 30.8995ZM14.0457 37.286C13.9069 37.286 13.768 37.286 13.5829 37.2397C13.1201 37.1472 12.611 36.9158 12.1483 36.5918C11.9631 36.453 11.9169 36.129 12.0557 35.9439C12.1945 35.7588 12.5185 35.7125 12.7036 35.8514C13.0276 36.129 13.3978 36.2679 13.7217 36.3604C14.092 36.4067 14.4159 36.3604 14.6936 36.1753C15.3878 35.7125 15.8043 34.3704 15.8506 33.3523C15.8968 32.6581 15.6192 32.1028 15.0176 31.5474C14.8324 31.3623 14.8324 31.0846 15.0176 30.8995C15.2027 30.7144 15.4803 30.7144 15.6655 30.8995C16.4522 31.64 16.8224 32.473 16.7761 33.4448C16.7299 34.3704 16.3596 36.2679 15.2027 37.0083C14.925 37.1934 14.5085 37.286 14.0457 37.286Z" fill="white"/>
<path d="M14.1907 35.1066C14.0518 35.1066 13.913 35.1066 13.0337 34.3661C12.8486 34.181 12.8023 33.9033 12.9874 33.7182C13.1725 33.5331 13.4502 33.4868 13.6353 33.6719C14.1444 34.0884 14.3295 34.181 14.3758 34.2273C14.5609 34.2735 14.6997 34.4587 14.6997 34.6901C14.6535 34.8752 14.4683 35.1066 14.1907 35.1066Z" fill="white"/>
<path d="M78.1223 32.7681H76.4251V40.4544C76.4251 41.4661 76.2021 42.2114 75.756 42.6901C75.31 43.1688 74.728 43.4081 74.0099 43.4081C73.2375 43.4081 72.6391 43.1579 72.2148 42.6574C71.7905 42.157 71.5784 41.4226 71.5784 40.4544V22.0466C71.5784 21.0022 71.8123 20.2461 72.2801 19.7782C72.7479 19.3104 73.504 19.0765 74.5484 19.0765H82.4305C83.5184 19.0765 84.4486 19.1255 85.221 19.2234C85.9935 19.3104 86.6898 19.4954 87.3099 19.7782C88.0605 20.0937 88.7242 20.5452 89.3008 21.1327C89.8774 21.7202 90.3126 22.4056 90.6063 23.1889C90.9109 23.9613 91.0632 24.7827 91.0632 25.6531C91.0632 27.4373 90.5573 28.8625 89.5456 29.9286C88.5447 30.9948 87.0216 31.7509 84.9763 32.197C85.8357 32.6539 86.6571 33.3284 87.4404 34.2205C88.2237 35.1126 88.92 36.0646 89.5293 37.0763C90.1494 38.0772 90.6281 38.9857 90.9653 39.8016C91.3135 40.6067 91.4875 41.1615 91.4875 41.4661C91.4875 41.7816 91.3842 42.0971 91.1775 42.4126C90.9816 42.7173 90.7097 42.9566 90.3615 43.1307C90.0134 43.3156 89.6108 43.4081 89.1539 43.4081C88.61 43.4081 88.153 43.2775 87.7831 43.0164C87.4132 42.7662 87.0923 42.4453 86.8203 42.0536C86.5592 41.662 86.2002 41.0854 85.7433 40.3238L83.8013 37.0927C83.105 35.9068 82.4795 35.0038 81.9246 34.3837C81.3807 33.7636 80.8258 33.3393 80.2601 33.1108C79.6944 32.8824 78.9818 32.7681 78.1223 32.7681ZM80.8965 22.7157H76.4251V29.2922H80.766C81.9301 29.2922 82.9092 29.1943 83.7034 28.9985C84.4976 28.7917 85.1014 28.449 85.5148 27.9704C85.9391 27.4808 86.1512 26.8117 86.1512 25.9631C86.1512 25.2995 85.9826 24.7174 85.6453 24.217C85.3081 23.7057 84.8403 23.3249 84.2419 23.0747C83.6762 22.8353 82.5611 22.7157 80.8965 22.7157ZM106.273 35.4444H97.5588C97.5697 36.4562 97.771 37.3483 98.1626 38.1208C98.5652 38.8932 99.0928 39.4752 99.7456 39.8669C100.409 40.2585 101.138 40.4544 101.932 40.4544C102.465 40.4544 102.95 40.3945 103.385 40.2749C103.831 40.1443 104.26 39.9485 104.674 39.6874C105.087 39.4154 105.468 39.1271 105.816 38.8225C106.164 38.5178 106.616 38.1044 107.171 37.5822C107.399 37.3864 107.726 37.2885 108.15 37.2885C108.607 37.2885 108.977 37.4136 109.26 37.6638C109.542 37.914 109.684 38.2676 109.684 38.7246C109.684 39.1271 109.526 39.6003 109.211 40.1443C108.895 40.6774 108.416 41.1942 107.775 41.6946C107.144 42.1842 106.344 42.5921 105.376 42.9185C104.418 43.2449 103.314 43.4081 102.063 43.4081C99.2016 43.4081 96.9768 42.5921 95.3884 40.9603C93.8 39.3284 93.0058 37.1144 93.0058 34.3184C93.0058 33.002 93.2017 31.7836 93.5933 30.663C93.985 29.5315 94.5561 28.5633 95.3068 27.7582C96.0575 26.9531 96.9822 26.3385 98.081 25.9142C99.1798 25.479 100.398 25.2614 101.736 25.2614C103.477 25.2614 104.968 25.6313 106.208 26.3711C107.459 27.1 108.395 28.0465 109.015 29.2106C109.635 30.3747 109.945 31.5605 109.945 32.7681C109.945 33.8887 109.624 34.6176 108.982 34.9549C108.34 35.2813 107.437 35.4444 106.273 35.4444ZM97.5588 32.915H105.637C105.528 31.3919 105.115 30.255 104.396 29.5043C103.689 28.7428 102.754 28.362 101.59 28.362C100.48 28.362 99.5661 28.7482 98.848 29.5207C98.1409 30.2822 97.7111 31.4137 97.5588 32.915ZM129.022 37.8923C129.022 38.4471 128.854 39.0401 128.517 39.6711C128.19 40.3021 127.684 40.9059 126.999 41.4825C126.324 42.0482 125.47 42.5051 124.437 42.8533C123.403 43.2014 122.239 43.3755 120.945 43.3755C118.192 43.3755 116.043 42.5758 114.499 40.9766C112.954 39.3664 112.181 37.2123 112.181 34.5143C112.181 32.6865 112.535 31.071 113.242 29.6675C113.949 28.2641 114.972 27.1816 116.31 26.4201C117.648 25.6476 119.247 25.2614 121.108 25.2614C122.261 25.2614 123.316 25.43 124.274 25.7673C125.242 26.1046 126.058 26.5397 126.721 27.0728C127.396 27.6059 127.907 28.1771 128.255 28.7863C128.614 29.3847 128.794 29.945 128.794 30.4672C128.794 31.0002 128.593 31.4517 128.19 31.8216C127.799 32.1915 127.32 32.3765 126.754 32.3765C126.384 32.3765 126.074 32.284 125.824 32.0991C125.585 31.9032 125.313 31.5932 125.008 31.1689C124.464 30.342 123.893 29.7219 123.294 29.3085C122.707 28.8951 121.956 28.6884 121.042 28.6884C119.726 28.6884 118.665 29.2052 117.86 30.2387C117.055 31.2614 116.653 32.6648 116.653 34.449C116.653 35.2867 116.756 36.0591 116.963 36.7663C117.169 37.4626 117.469 38.0609 117.86 38.5614C118.252 39.0509 118.725 39.4263 119.28 39.6874C119.835 39.9376 120.444 40.0627 121.108 40.0627C122 40.0627 122.761 39.856 123.392 39.4426C124.034 39.0292 124.6 38.3982 125.09 37.5496C125.362 37.0491 125.655 36.6575 125.971 36.3746C126.286 36.0918 126.673 35.9503 127.129 35.9503C127.673 35.9503 128.125 36.157 128.484 36.5705C128.843 36.9839 129.022 37.4245 129.022 37.8923ZM143.514 40.895C142.437 41.7327 141.393 42.3637 140.381 42.788C139.38 43.2014 138.254 43.4081 137.003 43.4081C135.861 43.4081 134.854 43.1851 133.984 42.739C133.125 42.2821 132.461 41.6674 131.993 40.895C131.525 40.1225 131.291 39.2848 131.291 38.3819C131.291 37.1634 131.678 36.1244 132.45 35.2649C133.223 34.4055 134.283 33.8289 135.632 33.5351C135.915 33.4698 136.617 33.323 137.737 33.0945C138.858 32.866 139.815 32.6593 140.61 32.4744C141.415 32.2786 142.285 32.0447 143.221 31.7727C143.166 30.5977 142.927 29.7382 142.503 29.1943C142.089 28.6394 141.224 28.362 139.908 28.362C138.776 28.362 137.922 28.5198 137.346 28.8353C136.78 29.1508 136.29 29.624 135.877 30.255C135.475 30.886 135.186 31.3049 135.012 31.5116C134.849 31.7074 134.49 31.8053 133.935 31.8053C133.435 31.8053 132.999 31.6476 132.63 31.3321C132.271 31.0057 132.091 30.5923 132.091 30.0918C132.091 29.3085 132.368 28.547 132.923 27.8072C133.478 27.0674 134.343 26.4581 135.518 25.9794C136.693 25.5008 138.156 25.2614 139.908 25.2614C141.866 25.2614 143.406 25.4953 144.526 25.9631C145.647 26.4201 146.435 27.149 146.892 28.1499C147.36 29.1508 147.594 30.478 147.594 32.1317C147.594 33.1761 147.589 34.0628 147.578 34.7917C147.578 35.5206 147.572 36.3311 147.561 37.2232C147.561 38.0609 147.697 38.9367 147.969 39.8506C148.252 40.7535 148.394 41.3356 148.394 41.5967C148.394 42.0536 148.176 42.4725 147.741 42.8533C147.317 43.2231 146.833 43.4081 146.289 43.4081C145.832 43.4081 145.38 43.1959 144.934 42.7717C144.488 42.3365 144.015 41.7109 143.514 40.895ZM143.221 34.449C142.568 34.6883 141.616 34.944 140.365 35.216C139.125 35.4771 138.265 35.6729 137.786 35.8035C137.308 35.9231 136.851 36.1679 136.416 36.5378C135.98 36.8968 135.763 37.4027 135.763 38.0555C135.763 38.73 136.018 39.3066 136.53 39.7853C137.041 40.2531 137.71 40.487 138.537 40.487C139.418 40.487 140.229 40.2966 140.969 39.9158C141.719 39.5242 142.269 39.0237 142.617 38.4145C143.019 37.74 143.221 36.6303 143.221 35.0854V34.449ZM151.462 40.6991V21.3775C151.462 20.4854 151.658 19.8109 152.05 19.3539C152.452 18.897 152.991 18.6686 153.665 18.6686C154.34 18.6686 154.884 18.897 155.297 19.3539C155.711 19.8 155.917 20.4745 155.917 21.3775V40.6991C155.917 41.6021 155.705 42.2821 155.281 42.739C154.868 43.1851 154.329 43.4081 153.665 43.4081C153.013 43.4081 152.48 43.1742 152.066 42.7064C151.664 42.2386 151.462 41.5695 151.462 40.6991ZM159.867 40.6991V21.3775C159.867 20.4854 160.063 19.8109 160.455 19.3539C160.857 18.897 161.396 18.6686 162.07 18.6686C162.745 18.6686 163.289 18.897 163.702 19.3539C164.116 19.8 164.322 20.4745 164.322 21.3775V40.6991C164.322 41.6021 164.11 42.2821 163.686 42.739C163.272 43.1851 162.734 43.4081 162.07 43.4081C161.418 43.4081 160.884 43.1742 160.471 42.7064C160.069 42.2386 159.867 41.5695 159.867 40.6991ZM171.226 43.4081C170.551 43.4081 169.969 43.1905 169.48 42.7553C168.99 42.3202 168.745 41.7109 168.745 40.9276C168.745 40.264 168.979 39.6928 169.447 39.2141C169.915 38.7354 170.492 38.4961 171.177 38.4961C171.862 38.4961 172.444 38.7354 172.923 39.2141C173.413 39.6819 173.657 40.2531 173.657 40.9276C173.657 41.7 173.413 42.3093 172.923 42.7553C172.444 43.1905 171.879 43.4081 171.226 43.4081Z" fill="black"/>
</svg>
