<svg width="20" height="21" viewBox="0 0 20 21" fill="none" xmlns="http://www.w3.org/2000/svg">
<path fill-rule="evenodd" clip-rule="evenodd" d="M3.99756 6.00463C3.99756 2.68836 6.68592 0 10.0022 0C13.3184 0 16.0068 2.68836 16.0068 6.00463C16.0068 9.32089 13.3184 12.0093 10.0022 12.0093C6.68592 12.0093 3.99756 9.32089 3.99756 6.00463Z" fill="#4B4B4B"/>
<path fill-rule="evenodd" clip-rule="evenodd" d="M3.42528 14.9178C5.05146 14.236 7.22056 14.0146 9.99941 14.0146C12.7725 14.0146 14.9383 14.2351 16.5631 14.9134C18.307 15.6413 19.3774 16.8781 19.9481 18.6769C20.16 19.3454 19.6587 20.0192 18.9655 20.0192H1.02708C0.336775 20.0192 -0.161639 19.3484 0.0486332 18.6836C0.617542 16.8849 1.68418 15.6476 3.42528 14.9178Z" fill="#4B4B4B"/>
</svg>
