<svg width="21" height="19" viewBox="0 0 21 19" fill="none" xmlns="http://www.w3.org/2000/svg">
<path d="M17.9257 1H2.74418C2.60254 0.999975 2.46511 1.04931 2.35455 1.13985C2.24399 1.23041 2.16689 1.35678 2.13596 1.49815L1 5.87962C1 6.38603 1.1967 6.87169 1.54683 7.22978C1.89696 7.58787 2.37183 7.78904 2.86699 7.78904C3.36214 7.78904 3.83701 7.58787 4.18714 7.22978C4.53727 6.87169 4.73397 6.38603 4.73397 5.87962C4.73397 6.38603 4.93067 6.87169 5.2808 7.22978C5.63093 7.58787 6.1058 7.78904 6.60096 7.78904C7.09611 7.78904 7.57098 7.58787 7.92111 7.22978C8.27124 6.87169 8.46794 6.38603 8.46794 5.87962C8.46794 6.38603 8.66465 6.87169 9.0148 7.22978C9.36486 7.58787 9.83975 7.78904 10.3349 7.78904C10.8301 7.78904 11.305 7.58787 11.6551 7.22978C12.0052 6.87169 12.2019 6.38603 12.2019 5.87962C12.2019 6.38603 12.3986 6.87169 12.7488 7.22978C13.0988 7.58787 13.5737 7.78904 14.0689 7.78904C14.5641 7.78904 15.039 7.58787 15.389 7.22978C15.7392 6.87169 15.9359 6.38603 15.9359 5.87962C15.9359 6.38603 16.1326 6.87169 16.4827 7.22978C16.8328 7.58787 17.3077 7.78904 17.8029 7.78904C18.298 7.78904 18.7729 7.58787 19.123 7.22978C19.4731 6.87169 19.6699 6.38603 19.6699 5.87962L18.533 1.49815C18.5025 1.35677 18.4255 1.23034 18.3151 1.13974C18.2046 1.04916 18.0672 0.999856 17.9257 1Z" stroke="#4B4B4B" stroke-width="1.27294" stroke-linecap="round" stroke-linejoin="round"/>
<path d="M2.48901 10.339C2.48901 9.98748 2.20405 9.70251 1.85254 9.70251C1.50103 9.70251 1.21606 9.98748 1.21606 10.339H2.48901ZM19.4616 10.339C19.4616 9.98748 19.1766 9.70251 18.8251 9.70251C18.4736 9.70251 18.1887 9.98748 18.1887 10.339H19.4616ZM1.21606 10.339V16.2794H2.48901V10.339H1.21606ZM3.5498 18.6131H17.1279V17.3402H3.5498V18.6131ZM19.4616 16.2794V10.339H18.1887V16.2794H19.4616ZM17.1279 18.6131C18.4168 18.6131 19.4616 17.5683 19.4616 16.2794H18.1887C18.1887 16.8653 17.7138 17.3402 17.1279 17.3402V18.6131ZM1.21606 16.2794C1.21606 17.5683 2.26091 18.6131 3.5498 18.6131V17.3402C2.96394 17.3402 2.48901 16.8653 2.48901 16.2794H1.21606Z" fill="#4B4B4B"/>
<path d="M8.21337 11.185H5.66748C5.43314 11.185 5.24316 11.3749 5.24316 11.6093V14.1552C5.24316 14.3895 5.43314 14.5795 5.66748 14.5795H8.21337C8.44771 14.5795 8.63768 14.3895 8.63768 14.1552V11.6093C8.63768 11.3749 8.44771 11.185 8.21337 11.185Z" stroke="#4B4B4B" stroke-width="1.27294"/>
<path d="M15.4258 17.9716V12.4555C15.4258 12.2212 15.2358 12.0312 15.0015 12.0312H12.4556C12.2213 12.0312 12.0312 12.2212 12.0312 12.4555V17.9716" stroke="#4B4B4B" stroke-width="1.27294"/>
</svg>
