<svg width="18" height="18" viewBox="0 0 18 18" fill="none" xmlns="http://www.w3.org/2000/svg">
<path d="M10.293 7.293L11.586 6H2V17C2 17.2652 1.89464 17.5196 1.70711 17.7071C1.51957 17.8946 1.26522 18 1 18C0.734784 18 0.48043 17.8946 0.292893 17.7071C0.105357 17.5196 0 17.2652 0 17V1C0 0.734784 0.105357 0.48043 0.292893 0.292893C0.48043 0.105357 0.734784 0 1 0C1.26522 0 1.51957 0.105357 1.70711 0.292893C1.89464 0.48043 2 0.734784 2 1V4H11.586L10.293 2.707C10.1108 2.5184 10.01 2.2658 10.0123 2.0036C10.0146 1.7414 10.1198 1.49059 10.3052 1.30518C10.4906 1.11977 10.7414 1.0146 11.0036 1.01233C11.2658 1.01005 11.5184 1.11084 11.707 1.293L14.706 4.292C14.7991 4.38489 14.873 4.49524 14.9234 4.61673C14.9738 4.73822 14.9998 4.86847 14.9998 5C14.9998 5.13153 14.9738 5.26178 14.9234 5.38327C14.873 5.50476 14.7991 5.61511 14.706 5.708L11.707 8.707C11.5675 8.84779 11.3893 8.94388 11.195 8.983C11.0007 9.02213 10.7992 9.00252 10.6161 8.92669C10.433 8.85085 10.2766 8.72222 10.1669 8.55718C10.0572 8.39215 9.99908 8.19818 10 8C10.0001 7.73481 10.1055 7.48049 10.293 7.293ZM17 0C17.2652 0 17.5196 0.105357 17.7071 0.292893C17.8946 0.48043 18 0.734784 18 1V17C18 17.2652 17.8946 17.5196 17.7071 17.7071C17.5196 17.8946 17.2652 18 17 18C16.7348 18 16.4804 17.8946 16.2929 17.7071C16.1054 17.5196 16 17.2652 16 17V14H6.414L7.707 15.293C7.80251 15.3852 7.87869 15.4956 7.9311 15.6176C7.98351 15.7396 8.0111 15.8708 8.01225 16.0036C8.0134 16.1364 7.9881 16.2681 7.93782 16.391C7.88754 16.5138 7.81329 16.6255 7.71939 16.7194C7.6255 16.8133 7.51385 16.8875 7.39095 16.9378C7.26806 16.9881 7.13638 17.0134 7.0036 17.0123C6.87082 17.0111 6.7396 16.9835 6.6176 16.9311C6.49559 16.8787 6.38525 16.8025 6.293 16.707L3.294 13.708C3.20087 13.6151 3.12699 13.5048 3.07657 13.3833C3.02616 13.2618 3.00021 13.1315 3.00021 13C3.00021 12.8685 3.02616 12.7382 3.07657 12.6167C3.12699 12.4952 3.20087 12.3849 3.294 12.292L6.293 9.293C6.4816 9.11084 6.7342 9.01005 6.9964 9.01233C7.2586 9.0146 7.50941 9.11977 7.69482 9.30518C7.88023 9.49059 7.9854 9.7414 7.98767 10.0036C7.98995 10.2658 7.88916 10.5184 7.707 10.707L6.414 12H16V1C16 0.734784 16.1054 0.48043 16.2929 0.292893C16.4804 0.105357 16.7348 0 17 0Z" fill="#4B4B4B"/>
</svg>
