<svg width="21" height="23" viewBox="0 0 21 23" fill="none" xmlns="http://www.w3.org/2000/svg">
<path d="M5.88867 1V3.93233" stroke="white" stroke-width="1.46617" stroke-miterlimit="10" stroke-linecap="round" stroke-linejoin="round"/>
<path d="M13.7051 1V3.93233" stroke="white" stroke-width="1.46617" stroke-miterlimit="10" stroke-linecap="round" stroke-linejoin="round"/>
<path opacity="0.4" d="M1.49023 7.92993H18.1068" stroke="white" stroke-width="1.46617" stroke-miterlimit="10" stroke-linecap="round" stroke-linejoin="round"/>
<path d="M19.5715 17.6166C19.5715 18.3497 19.3662 19.0436 19.0046 19.6301C18.3302 20.7639 17.0888 21.5263 15.6617 21.5263C14.6745 21.5263 13.7753 21.1647 13.0911 20.5489C12.788 20.2948 12.5241 19.982 12.3189 19.6301C11.9572 19.0436 11.752 18.3497 11.752 17.6166C11.752 15.4564 13.5016 13.7068 15.6617 13.7068C16.8347 13.7068 17.8805 14.2248 18.5941 15.0361C19.2001 15.7301 19.5715 16.6293 19.5715 17.6166Z" stroke="white" stroke-width="1.46617" stroke-miterlimit="10" stroke-linecap="round" stroke-linejoin="round"/>
<path d="M14.1387 17.6166L15.1063 18.5842L17.1883 16.6587" stroke="white" stroke-width="1.46617" stroke-linecap="round" stroke-linejoin="round"/>
<path d="M18.594 7.35341V15.0361C17.8805 14.2248 16.8346 13.7068 15.6617 13.7068C13.5015 13.7068 11.7519 15.4564 11.7519 17.6166C11.7519 18.3497 11.9572 19.0437 12.3188 19.6301C12.5241 19.982 12.788 20.2948 13.091 20.5489H5.88722C2.46617 20.5489 1 18.594 1 15.6617V7.35341C1 4.42108 2.46617 2.46619 5.88722 2.46619H13.7068C17.1278 2.46619 18.594 4.42108 18.594 7.35341Z" stroke="white" stroke-width="1.46617" stroke-miterlimit="10" stroke-linecap="round" stroke-linejoin="round"/>
<path opacity="0.4" d="M9.79297 12.4363H9.80235" stroke="white" stroke-width="1.95489" stroke-linecap="round" stroke-linejoin="round"/>
<path opacity="0.4" d="M6.17578 12.4363H6.18514" stroke="white" stroke-width="1.95489" stroke-linecap="round" stroke-linejoin="round"/>
<path opacity="0.4" d="M6.17578 15.3687H6.18514" stroke="white" stroke-width="1.95489" stroke-linecap="round" stroke-linejoin="round"/>
</svg>
