<svg width="20" height="22" viewBox="0 0 20 22" fill="none" xmlns="http://www.w3.org/2000/svg">
<path d="M8.57143 0C6.20536 0 4.28571 1.91964 4.28571 4.28571C4.28571 6.65179 6.20536 8.57143 8.57143 8.57143C10.9375 8.57143 12.8571 6.65179 12.8571 4.28571C12.8571 1.91964 10.9375 0 8.57143 0ZM6.42857 10C2.8683 10 0 12.8683 0 16.4286V17.1429C0 18.7277 1.27232 20 2.85714 20H11.4286V18.5714H7.14286V12.8571H11.4286V10.0391C11.1942 10.0112 10.9542 10 10.7143 10H6.42857ZM12.8571 10V14.2857H8.57143V17.1429H12.8571V21.4286H15.7143V17.1429H20V14.2857H15.7143V10H12.8571Z" fill="white"/>
</svg>
