<svg width="49" height="44" viewBox="0 0 49 44" fill="none" xmlns="http://www.w3.org/2000/svg">
<path d="M42.359 2H6.15898C5.82123 1.99994 5.49353 2.11757 5.2299 2.33348C4.96628 2.54941 4.78244 2.85074 4.70868 3.18782L2 13.6354C2 14.8429 2.46902 16.001 3.30391 16.8548C4.13879 17.7087 5.2711 18.1884 6.4518 18.1884C7.6325 18.1884 8.76482 17.7087 9.59969 16.8548C10.4346 16.001 10.9036 14.8429 10.9036 13.6354C10.9036 14.8429 11.3726 16.001 12.2075 16.8548C13.0424 17.7087 14.1747 18.1884 15.3554 18.1884C16.5361 18.1884 17.6684 17.7087 18.5033 16.8548C19.3382 16.001 19.8072 14.8429 19.8072 13.6354C19.8072 14.8429 20.2763 16.001 21.1112 16.8548C21.9459 17.7087 23.0783 18.1884 24.259 18.1884C25.4398 18.1884 26.5721 17.7087 27.4068 16.8548C28.2418 16.001 28.7108 14.8429 28.7108 13.6354C28.7108 14.8429 29.1799 16.001 30.0148 16.8548C30.8495 17.7087 31.9819 18.1884 33.1626 18.1884C34.3434 18.1884 35.4757 17.7087 36.3105 16.8548C37.1454 16.001 37.6144 14.8429 37.6144 13.6354C37.6144 14.8429 38.0835 16.001 38.9184 16.8548C39.7531 17.7087 40.8855 18.1884 42.0662 18.1884C43.247 18.1884 44.3794 17.7087 45.2141 16.8548C46.049 16.001 46.518 14.8429 46.518 13.6354L43.8073 3.18782C43.7344 2.85072 43.5509 2.54923 43.2876 2.33322C43.0242 2.11722 42.6966 1.99966 42.359 2Z" stroke="white" stroke-width="3.03532" stroke-linecap="round" stroke-linejoin="round"/>
<path d="M5.55876 24.2696C5.55876 23.4315 4.87927 22.752 4.0411 22.752C3.20292 22.752 2.52344 23.4315 2.52344 24.2696H5.55876ZM46.0297 24.2696C46.0297 23.4315 45.3502 22.752 44.512 22.752C43.6739 22.752 42.9944 23.4315 42.9944 24.2696H46.0297ZM2.52344 24.2696V38.4344H5.55876V24.2696H2.52344ZM8.08819 43.9992H40.4649V40.9639H8.08819V43.9992ZM46.0297 38.4344V24.2696H42.9944V38.4344H46.0297ZM40.4649 43.9992C43.5383 43.9992 46.0297 41.5078 46.0297 38.4344H42.9944C42.9944 39.8315 41.862 40.9639 40.4649 40.9639V43.9992ZM2.52344 38.4344C2.52344 41.5078 5.01487 43.9992 8.08819 43.9992V40.9639C6.69122 40.9639 5.55876 39.8315 5.55876 38.4344H2.52344Z" fill="white"/>
<path d="M19.1996 26.2871H13.129C12.5702 26.2871 12.1172 26.7401 12.1172 27.2989V33.3695C12.1172 33.9283 12.5702 34.3813 13.129 34.3813H19.1996C19.7584 34.3813 20.2114 33.9283 20.2114 33.3695V27.2989C20.2114 26.7401 19.7584 26.2871 19.1996 26.2871Z" stroke="white" stroke-width="3.03532"/>
<path d="M36.3911 42.4695V29.3165C36.3911 28.7578 35.938 28.3047 35.3793 28.3047H29.3086C28.7499 28.3047 28.2969 28.7578 28.2969 29.3165V42.4695" stroke="white" stroke-width="3.03532"/>
</svg>
